{
.appVersion = "965";
classes = (
{
code = "";
name = DevaIMatras;
}
);
copyright = "Copyright 2015 The Lalezar Project Authors (https://github.com/BornaIz/Lalezar)";
customParameters = (
{
name = trademark;
value = "Lalezar is a trademark of Borna Izadpanah";
},
{
name = license;
value = "This Font Software is licensed under the SIL Open Font License, Version 1.1. This license is available with a FAQ at: http://scripts.sil.org/OFL";
},
{
name = fsType;
value = (
);
},
{
name = licenseURL;
value = "http://scripts.sil.org/OFL";
},
{
name = "Use Typo Metrics";
value = 1;
},
{
name = "Disable Last Change";
value = 1;
},
{
name = "Use Line Breaks";
value = 1;
}
);
date = "2016-08-22 09:13:28 +0000";
designer = "Borna Izadpanah";
designerURL = "http://www.borna.design";
familyName = Lalezar;
featurePrefixes = (
{
automatic = 1;
code = "languagesystem DFLT dflt;
languagesystem arab dflt;
languagesystem latn dflt;
languagesystem arab URD;
";
name = Languagesystems;
}
);
features = (
{
code = "feature ccmp;
feature locl;
feature init;
feature medi;
feature fina;
feature rlig;
";
name = aalt;
},
{
automatic = 1;
code = "lookup ccmp_arab_1 {
	script arab;
	lookupflag 0;
	sub beh-ar.medi yehFarsi-ar.fina by beh_yehFarsi-ar.fina.liga;
	sub yehFarsi-ar.fina beh-ar.medi by beh_yehFarsi-ar.fina.liga;
	sub beh-ar.init yehFarsi-ar.fina by beh_yehFarsi-ar.liga;
	sub yehFarsi-ar.fina beh-ar.init by beh_yehFarsi-ar.liga;
	sub peh-ar.medi yehFarsi-ar.fina by peh_yehFarsi-ar.fina.liga;
	sub yehFarsi-ar.fina peh-ar.medi by peh_yehFarsi-ar.fina.liga;
	sub peh-ar.init yehFarsi-ar.fina by peh_yehFarsi-ar.liga;
	sub yehFarsi-ar.fina peh-ar.init by peh_yehFarsi-ar.liga;
	sub teh-ar.medi yehFarsi-ar.fina by teh_yehFarsi-ar.fina.liga;
	sub yehFarsi-ar.fina teh-ar.medi by teh_yehFarsi-ar.fina.liga;
	sub teh-ar.init yehFarsi-ar.fina by teh_yehFarsi-ar.liga;
	sub yehFarsi-ar.fina teh-ar.init by teh_yehFarsi-ar.liga;
	sub theh-ar.medi yehFarsi-ar.fina by theh_yehFarsi-ar.fina.liga;

glyphs = (
{
color = 7;
glyphname = A;
layers = (
{
anchors = (
{
name = bottom;
position = "{300, 0}";
},
{
name = ogonek;
position = "{522, 0}";
},
{
name = top;
position = "{298, 570}";
}
);
background = {
paths = (
{
closed = 0;
nodes = (
"222 183 LINE"
);
}
);
};
layerId = "5483B82D-F897-45AA-9987-2D1C58E320E8";
paths = (
{
closed = 1;
nodes = (
"366 236 LINE",
"230 236 LINE",
"195 125 LINE",
"401 125 LINE"
);
},
{
closed = 1;
nodes = (
"300 447 LINE",
"369 188 LINE",
"370 168 LINE",
"410 0 LINE",
"595 0 LINE",
"419 570 LINE",
"184 570 LINE",
"0 0 LINE",
"184 0 LINE",
"224 165 LINE",
"222 183 LINE",
"296 447 LINE"
);
}
);
width = 595;
},
{
associatedMasterId = "5483B82D-F897-45AA-9987-2D1C58E320E8";
layerId = "45AE9919-C3E4-4155-A140-C1C2E935CF2D";
name = bubble;
paths = (
{
closed = 1;
nodes = (
"407 0 LINE",
"595 0 LINE",
"578 271 LINE",
"522 570 LINE",
"74 570 LINE",
"17 271 LINE",
"0 0 LINE",
"181 0 LINE"
);
}
);
width = 595;
}
);
unicode = 0041;
},
{
color = 1;
glyphname = AE;
layers = (
{
components = (
{
name = E;
transform = "{1, 0, 0, 1, 422, 0}";
}
);
layerId = "5483B82D-F897-45AA-9987-2D1C58E320E8";
paths = (
{
closed = 1;
nodes = (
"510 236 LINE",
"282 236 LINE",
"247 125 LINE",
"513 125 LINE"
);
},
{
closed = 1;
nodes = (
"200 0 LINE",
"558 570 LINE",
"365 570 LINE",
"0 0 LINE"
);
}
);
width = 912;
}
);
unicode = 00C6;
},
{
color = 7;
glyphname = B;
layers = (
{
anchors = (
{
name = bottom;
position = "{282, 0}";
}
);
background = {
paths = (
{
closed = 1;
nodes = (
"134 12 OFFCURVE",
"200 50 OFFCURVE",
"230 92 CURVE",
"230 553 LINE",
"50 570 LINE",
"50 0 LINE"
);
},
{
closed = 1;
nodes = (
"420 306 LINE",
"496 322 OFFCURVE",
"526 367 OFFCURVE",
"526 434 CURVE SMOOTH",
"526 561 OFFCURVE",
"417 570 OFFCURVE",
"285 570 CURVE SMOOTH",
"50 570 LINE",
"129 455 LINE",
"179 462 OFFCURVE",
"225 464 OFFCURVE",
"274 464 CURVE SMOOTH",
"308 464 OFFCURVE",
"326 463 OFFCURVE",
"340 449 CURVE SMOOTH",
"352 437 OFFCURVE",
"355 418 OFFCURVE",
"355 404 CURVE SMOOTH",
"355 379 OFFCURVE",
"346 360 OFFCURVE",
"332 343 CURVE SMOOTH",
"297 340 OFFCURVE",
"266 341 OFFCURVE",
"240 341 CURVE SMOOTH",
"156 341 LINE",
"162 250 LINE",
"212 251 OFFCURVE",
"248 252 OFFCURVE",
"272 252 CURVE SMOOTH",
"325 252 OFFCURVE",
"341 248 OFFCURVE",
"353 237 CURVE SMOOTH",
"365 226 OFFCURVE",
"373 199 OFFCURVE",
"373 171 CURVE SMOOTH",
"373 149 OFFCURVE",
"366 123 OFFCURVE",
"357 115 CURVE SMOOTH",
"344 104 OFFCURVE",
"197 103 OFFCURVE",
"133 112 CURVE",
"50 0 LINE",
"244 0 LINE SMOOTH",
"360 0 OFFCURVE",
"457 6 OFFCURVE",
"488 26 CURVE SMOOTH",
"506 37 OFFCURVE",
"546 93 OFFCURVE",
"546 165 CURVE SMOOTH",
"546 227 OFFCURVE",
"518 290 OFFCURVE",
"420 301 CURVE"
);
}
);
};
layerId = "5483B82D-F897-45AA-9987-2D1C58E320E8";
paths = (
{
closed = 1;
nodes = (
"134 12 OFFCURVE",
"200 50 OFFCURVE",
"230 92 CURVE",
"230 553 LINE",
"50 570 LINE",
"50 0 LINE"
);
},
{
closed = 1;
nodes = (
"420 306 LINE",
"496 322 OFFCURVE",
"526 367 OFFCURVE",
"526 434 CURVE SMOOTH",
"526 561 OFFCURVE",
"417 570 OFFCURVE",
"285 570 CURVE SMOOTH",
"50 570 LINE",
"129 455 LINE",
"179 462 OFFCURVE",
"225 464 OFFCURVE",
"274 464 CURVE SMOOTH",
"308 464 OFFCURVE",
"326 463 OFFCURVE",
"340 449 CURVE SMOOTH",
"352 437 OFFCURVE",
"355 418 OFFCURVE",
"355 404 CURVE SMOOTH",
"355 376 OFFCURVE",
"342 351 OFFCURVE",
"331 346 CURVE SMOOTH",
"317 340 OFFCURVE",
"266 341 OFFCURVE",
"240 341 CURVE SMOOTH",
"156 341 LINE",
"162 250 LINE",
"212 251 OFFCURVE",
"248 252 OFFCURVE",
"272 252 CURVE SMOOTH",
"325 252 OFFCURVE",
"341 248 OFFCURVE",
"353 237 CURVE SMOOTH",
"365 226 OFFCURVE",
"373 199 OFFCURVE",
"373 171 CURVE SMOOTH",
"373 149 OFFCURVE",
"366 123 OFFCURVE",
"357 115 CURVE SMOOTH",
"344 104 OFFCURVE",
"197 103 OFFCURVE",
"133 112 CURVE",
"50 0 LINE",
"244 0 LINE SMOOTH",
"360 0 OFFCURVE",
"457 6 OFFCURVE",
"488 26 CURVE SMOOTH",
"506 37 OFFCURVE",
"546 93 OFFCURVE",
"546 165 CURVE SMOOTH",
"546 227 OFFCURVE",
"518 290 OFFCURVE",
"420 301 CURVE"
);
}
);
width = 571;
},
{
associatedMasterId = "5483B82D-F897-45AA-9987-2D1C58E320E8";
layerId = "F907A6F1-E12D-4F4B-9BB0-2A3174172440";
name = bubble;
paths = (
{
closed = 1;
nodes = (
"0 0 LINE",
"545 0 LINE",
"572 62 OFFCURVE",
"571 270 OFFCURVE",
"571 287 CURVE SMOOTH",
"571 316 OFFCURVE",
"565 504 OFFCURVE",
"545 570 CURVE",
"0 570 LINE"
);
}
);
width = 571;
}
);
unicode = 0042;
},
{
color = 7;
glyphname = C;
layers = (
{
anchors = (
{
name = bottom;
position = "{320, 0}";
},
{
name = top;
position = "{319, 578}";
}
);
background = {
paths = (
{
closed = 1;
nodes = (
"30 75 OFFCURVE",
"146 -11 OFFCURVE",
"320 -11 CURVE SMOOTH",
"365 -11 OFFCURVE",
"442 -5 OFFCURVE",
"497 19 CURVE",
"486 136 LINE",
"418 129 OFFCURVE",
"324 121 OFFCURVE",
"283 140 CURVE SMOOTH",
"254 154 OFFCURVE",
"223 194 OFFCURVE",
"223 293 CURVE SMOOTH",
"223 344 OFFCURVE",
"231 431 OFFCURVE",
"295 524 CURVE",
"200 427 LINE",
"257 445 OFFCURVE",
"344 443 OFFCURVE",
"473 443 CURVE",
"478 464 OFFCURVE",
"485 532 OFFCURVE",
"485 558 CURVE",
"437 570 OFFCURVE",
"391 577 OFFCURVE",
"339 577 CURVE SMOOTH",
"149 577 OFFCURVE",
"30 483 OFFCURVE",
"30 278 CURVE SMOOTH"
);
}
);
};
layerId = "5483B82D-F897-45AA-9987-2D1C58E320E8";
paths = (
{
closed = 1;
nodes = (
"449 132 OFFCURVE",
"405 128 OFFCURVE",
"366 128 CURVE SMOOTH",
"332 128 OFFCURVE",
"302 131 OFFCURVE",
"283 140 CURVE SMOOTH",
"254 154 OFFCURVE",
"223 194 OFFCURVE",
"223 293 CURVE SMOOTH",
"223 334 OFFCURVE",
"231 410 OFFCURVE",
"254 431 CURVE SMOOTH",
"266 442 OFFCURVE",
"336 443 OFFCURVE",
"410 443 CURVE SMOOTH",
"431 443 OFFCURVE",
"453 443 OFFCURVE",
"473 443 CURVE",
"478 464 OFFCURVE",
"485 532 OFFCURVE",
"485 558 CURVE",
"437 570 OFFCURVE",
"391 577 OFFCURVE",
"339 577 CURVE SMOOTH",
"149 577 OFFCURVE",
"30 483 OFFCURVE",
"30 278 CURVE SMOOTH",
"30 75 OFFCURVE",
"146 -11 OFFCURVE",
"320 -11 CURVE SMOOTH",
"365 -11 OFFCURVE",
"442 -5 OFFCURVE",
"497 19 CURVE",
"486 136 LINE"
);
}
);
width = 513;
},
{
associatedMasterId = "5483B82D-F897-45AA-9987-2D1C58E320E8";
layerId = "346C448D-50ED-4407-ABD1-0E718A5701A1";
name = bubble;
paths = (
{
closed = 1;
nodes = (
"110 570 LINE",
"0 476 OFFCURVE",
"0 316 OFFCURVE",
"0 287 CURVE SMOOTH",
"0 270 OFFCURVE",
"0 96 OFFCURVE",
"110 0 CURVE",
"513 0 LINE",
"513 570 LINE"
);
}
);
width = 513;
}
);
unicode = 0043;
},
{
color = 7;
glyphname = D;
layers = (
{
anchors = (
{
name = bottom;
position = "{289, 0}";
},
{
name = top;
position = "{288, 578}";
}
);
background = {
paths = (
{
closed = 1;
nodes = (
"50 0 LINE",
"250 0 LINE SMOOTH",
"462 0 OFFCURVE",
"599 43 OFFCURVE",
"599 280 CURVE SMOOTH",
"599 530 OFFCURVE",
"446 570 OFFCURVE",
"250 570 CURVE SMOOTH",
"50 570 LINE"
);
}
);
};
layerId = "5483B82D-F897-45AA-9987-2D1C58E320E8";
paths = (
{
closed = 1;
nodes = (
"250 0 LINE SMOOTH",
"446 0 OFFCURVE",
"599 32 OFFCURVE",
"599 290 CURVE SMOOTH",
"599 527 OFFCURVE",
"462 570 OFFCURVE",
"250 570 CURVE SMOOTH",
"50 570 LINE",
"50 0 LINE"
);
},
{
closed = 1;
nodes = (
"230 456 LINE",
"243 457 OFFCURVE",
"254 458 OFFCURVE",
"269 458 CURVE SMOOTH",
"319 458 OFFCURVE",
"352 447 OFFCURVE",
"372 425 CURVE SMOOTH",
"399 398 OFFCURVE",
"406 357 OFFCURVE",
"406 290 CURVE SMOOTH",
"406 254 OFFCURVE",
"402 154 OFFCURVE",
"384 136 CURVE SMOOTH",
"370 122 OFFCURVE",
"265 116 OFFCURVE",
"198 129 CURVE",
"230 75 LINE"
);
}
);
width = 629;
},
{
associatedMasterId = "5483B82D-F897-45AA-9987-2D1C58E320E8";
layerId = "BE30143C-AAA7-41E4-AD72-C71DD96F7ECA";
name = bubble;
paths = (
{
closed = 1;
nodes = (
"0 0 LINE",
"584 0 LINE",
"629 96 OFFCURVE",
"629 270 OFFCURVE",
"629 287 CURVE SMOOTH",
"629 316 OFFCURVE",
"629 476 OFFCURVE",
"576 570 CURVE",
"0 570 LINE"
);
}
);
width = 629;
}
);
unicode = 0044;
},
{
color = 7;
glyphname = E;
layers = (
{
anchors = (
{
name = bottom;
position = "{256, 0}";
},
{
name = ogonek;
position = "{397, 0}";
},
{
name = top;
position = "{256, 570}";
}
);
layerId = "5483B82D-F897-45AA-9987-2D1C58E320E8";
paths = (
{
closed = 1;
nodes = (
"459 0 LINE",
"459 122 LINE",
"225 122 LINE",
"225 238 LINE",
"423 238 LINE",
"423 346 LINE",
"225 346 LINE",
"225 450 LINE",
"460 450 LINE",
"460 570 LINE",
"45 570 LINE",
"45 0 LINE"
);
}
);
width = 486;
},
{
associatedMasterId = "5483B82D-F897-45AA-9987-2D1C58E320E8";
layerId = "5ADE331D-19E7-4908-A572-FF2C5BA0EE32";
name = bubble;
paths = (
{
closed = 1;
nodes = (
"0 289 LINE",
"0 0 LINE",
"486 0 LINE",
"472 285 LINE",
"486 570 LINE",
"0 570 LINE"
);
}
);
width = 486;
}
);
unicode = 0045;
},
{
color = 7;
glyphname = F;
layers = (
{
layerId = "5483B82D-F897-45AA-9987-2D1C58E320E8";
paths = (
{
closed = 1;
nodes = (
"228 0 LINE",
"228 224 LINE",
"417 224 LINE",
"417 333 LINE",
"228 333 LINE",
"228 446 LINE",
"457 446 LINE",
"457 570 LINE",
"48 570 LINE",
"48 0 LINE"
);
}
);
width = 468;
},
{
associatedMasterId = "5483B82D-F897-45AA-9987-2D1C58E320E8";
layerId = "E256DD75-16CF-411C-B100-EF3961B9BE6F";
name = bubble;
paths = (
{
closed = 1;
nodes = (
"0 299 LINE",
"0 0 LINE",
"320 0 LINE",
"468 161 LINE",
"468 421 LINE",
"468 570 LINE",
"0 570 LINE"
);
}
);
width = 468;
}
);
unicode = 0046;
},
{
color = 7;
glyphname = G;
layers = (
{
anchors = (
{
name = bottom;
position = "{330, 0}";
},
{
name = hook;
position = "{482, 506}";
},
{
name = top;
position = "{327, 578}";
}
);
background = {
paths = (
{
closed = 1;
nodes = (
"449 132 OFFCURVE",
"405 128 OFFCURVE",
"366 128 CURVE SMOOTH",
"332 128 OFFCURVE",
"302 131 OFFCURVE",
"283 140 CURVE SMOOTH",
"254 154 OFFCURVE",
"223 194 OFFCURVE",
"223 293 CURVE SMOOTH",
"223 334 OFFCURVE",
"231 410 OFFCURVE",
"254 431 CURVE SMOOTH",
"266 442 OFFCURVE",
"336 443 OFFCURVE",
"410 443 CURVE SMOOTH",
"431 443 OFFCURVE",
"453 443 OFFCURVE",
"473 443 CURVE",
"478 464 OFFCURVE",
"485 532 OFFCURVE",
"485 558 CURVE",
"437 570 OFFCURVE",
"391 577 OFFCURVE",
"339 577 CURVE SMOOTH",
"149 577 OFFCURVE",
"30 483 OFFCURVE",
"30 278 CURVE SMOOTH",
"30 75 OFFCURVE",
"146 -11 OFFCURVE",
"320 -11 CURVE SMOOTH",
"365 -11 OFFCURVE",
"442 -5 OFFCURVE",
"497 19 CURVE",
"486 136 LINE"
);
}
);
};
layerId = "5483B82D-F897-45AA-9987-2D1C58E320E8";
paths = (
{
closed = 1;
nodes = (
"372 35 LINE",
"548 31 LINE",
"548 316 LINE",
"372 316 LINE"
);
},
{
closed = 1;
nodes = (
"469 129 OFFCURVE",
"413 122 OFFCURVE",
"368 122 CURVE SMOOTH",
"267 122 OFFCURVE",
"223 158 OFFCURVE",
"223 293 CURVE SMOOTH",
"223 328 OFFCURVE",
"228 401 OFFCURVE",
"252 429 CURVE SMOOTH",
"260 439 OFFCURVE",
"312 442 OFFCURVE",
"373 442 CURVE SMOOTH",
"419 442 OFFCURVE",
"471 440 OFFCURVE",
"512 439 CURVE",
"517 460 OFFCURVE",
"524 528 OFFCURVE",
"524 554 CURVE",
"449 570 OFFCURVE",
"391 577 OFFCURVE",
"339 577 CURVE SMOOTH",
"149 577 OFFCURVE",
"30 483 OFFCURVE",
"30 278 CURVE SMOOTH",
"30 75 OFFCURVE",
"146 -11 OFFCURVE",
"320 -11 CURVE SMOOTH",
"365 -11 OFFCURVE",
"449 -2 OFFCURVE",
"548 31 CURVE",
"537 138 LINE"
);
}
);
width = 583;
},
{
associatedMasterId = "5483B82D-F897-45AA-9987-2D1C58E320E8";
layerId = "5AE61944-C1AE-4AFF-B438-8832FE21E241";
name = bubble;
paths = (
{
closed = 1;
nodes = (
"56 570 LINE",
"0 476 OFFCURVE",
"0 316 OFFCURVE",
"0 287 CURVE SMOOTH",
"0 270 OFFCURVE",
"0 96 OFFCURVE",
"43 0 CURVE",
"583 0 LINE",
"583 341 LINE",
"544 366 LINE",
"562 570 LINE"
);
}
);
width = 583;
}
);
unicode = 0047;
},
{
color = 7;
glyphname = H;
layers = (
{
anchors = (
{
name = bottom;
position = "{311, 0}";
}
);
background = {
paths = (
{
closed = 1;
nodes = (
"568 567 LINE",
"387 567 LINE",
"387 358 LINE",
"232 358 LINE",
"232 567 LINE",
"51 567 LINE",
"51 4 LINE",
"232 4 LINE",
"232 249 LINE",
"387 249 LINE",
"387 4 LINE",
"568 4 LINE"
);
}
);
};
guideLines = (
{
position = "{323, 809}";
}
);
layerId = "5483B82D-F897-45AA-9987-2D1C58E320E8";
paths = (
{
closed = 1;
nodes = (
"232 0 LINE",
"232 246 LINE",
"387 246 LINE",
"387 0 LINE",
"568 0 LINE",
"568 570 LINE",
"387 570 LINE",
"387 361 LINE",
"232 361 LINE",
"232 570 LINE",
"51 570 LINE",
"51 0 LINE"
);
}
);
width = 619;
},
{
associatedMasterId = "5483B82D-F897-45AA-9987-2D1C58E320E8";
background = {
paths = (
{
closed = 1;
nodes = (
"568 567 LINE",
"387 567 LINE",
"387 358 LINE",
"232 358 LINE",
"232 567 LINE",
"51 567 LINE",
"51 4 LINE",
"232 4 LINE",
"232 249 LINE",
"387 249 LINE",
"387 4 LINE",
"568 4 LINE"
);
}
);
};
layerId = "80784D4E-9EDA-470D-BC01-FC35B0DC50E9";
name = bubble;
paths = (
{
closed = 1;
nodes = (
"0 290 LINE",
"0 0 LINE",
"619 0 LINE",
"619 277 LINE",
"619 570 LINE",
"0 570 LINE"
);
}
);
width = 619;
}
);
unicode = 0048;
},
{
color = 1;
glyphname = Hbar;
layers = (
{
components = (
{
name = H;
}
);
layerId = "5483B82D-F897-45AA-9987-2D1C58E320E8";
paths = (
{
closed = 1;
nodes = (
"10 421 LINE",
"612 421 LINE",
"612 490 LINE",
"10 490 LINE"
);
}
);
width = 623;
}
);
unicode = 0126;
},
{
color = 7;
glyphname = I;
layers = (
{
anchors = (
{
name = bottom;
position = "{141, 0}";
},
{
name = ogonek;
position = "{197, 0}";
},
{
name = top;
position = "{141, 578}";
}
);
layerId = "5483B82D-F897-45AA-9987-2D1C58E320E8";
paths = (
{
closed = 1;
nodes = (
"231 0 LINE",
"231 570 LINE",
"51 570 LINE",
"51 0 LINE"
);
}
);
width = 282;
},
{
associatedMasterId = "5483B82D-F897-45AA-9987-2D1C58E320E8";
layerId = "D63FD0D6-D1AB-411E-B92E-9F2A763A98E6";
name = bubble;
paths = (
{
closed = 1;
nodes = (
"0 290 LINE",
"0 0 LINE",
"282 0 LINE",
"282 277 LINE",
"282 570 LINE",
"0 570 LINE"
);
}
);
width = 282;
}
);
unicode = 0049;
},
{
color = 7;
glyphname = J;
layers = (
{
background = {
paths = (
{
closed = 1;
nodes = (
"134 215 LINE SMOOTH",
"134 189 OFFCURVE",
"135 157 OFFCURVE",
"133 124 CURVE",
"90 121 OFFCURVE",
"51 122 OFFCURVE",
"23 122 CURVE",
"8 25 LINE",
"33 9 OFFCURVE",
"90 -7 OFFCURVE",
"151 -7 CURVE SMOOTH",
"297 -7 OFFCURVE",
"314 65 OFFCURVE",
"314 174 CURVE SMOOTH",
"314 570 LINE",
"134 570 LINE"
);
}
);
};
layerId = "5483B82D-F897-45AA-9987-2D1C58E320E8";
paths = (
{
closed = 1;
nodes = (
"134 215 LINE SMOOTH",
"134 187 OFFCURVE",
"135 135 OFFCURVE",
"128 124 CURVE SMOOTH",
"121 115 OFFCURVE",
"50 114 OFFCURVE",
"23 115 CURVE",
"8 0 LINE",
"37 -5 OFFCURVE",
"90 -13 OFFCURVE",
"151 -13 CURVE SMOOTH",
"281 -13 OFFCURVE",
"314 61 OFFCURVE",
"314 205 CURVE SMOOTH",
"314 570 LINE",
"134 570 LINE"
);
}
);
width = 362;
},
{
associatedMasterId = "5483B82D-F897-45AA-9987-2D1C58E320E8";
layerId = "EFD11CC0-387A-4768-88DD-37A8EAA66DEA";
name = bubble;
paths = (
{
closed = 1;
nodes = (
"101 174 LINE",
"0 156 LINE",
"0 0 LINE",
"362 0 LINE",
"362 277 LINE",
"362 570 LINE",
"101 570 LINE"
);
}
);
width = 362;
}
);
unicode = 004A;
},
{
color = 7;
glyphname = K;
layers = (
{
anchors = (
{
name = bottom;
position = "{300, 0}";
},
{
name = ogonek;
position = "{479, 0}";
},
{
name = top;
position = "{302, 570}";
}
);
layerId = "5483B82D-F897-45AA-9987-2D1C58E320E8";
paths = (
{
closed = 1;
nodes = (
"582 0 LINE",
"455 223 LINE SMOOTH",
"440 249 OFFCURVE",
"426 274 OFFCURVE",
"399 300 CURVE",
"427 326 OFFCURVE",
"442 353 OFFCURVE",
"458 379 CURVE SMOOTH",
"572 570 LINE",
"382 570 LINE",
"275 379 LINE SMOOTH",
"260 352 OFFCURVE",
"245 325 OFFCURVE",
"220 298 CURVE",
"245 270 OFFCURVE",
"259 241 OFFCURVE",
"274 213 CURVE SMOOTH",
"385 0 LINE"
);
},
{
closed = 1;
nodes = (
"231 0 LINE",
"231 570 LINE",
"51 570 LINE",
"51 0 LINE"
);
}
);
width = 576;
},
{
associatedMasterId = "5483B82D-F897-45AA-9987-2D1C58E320E8";
layerId = "A199D560-4E47-4842-8B74-9B91254049A1";
name = bubble;
paths = (
{
closed = 1;
nodes = (
"0 0 LINE",
"576 0 LINE",
"576 89 LINE",
"466 307 LINE",
"576 473 LINE",
"576 570 LINE",
"0 570 LINE"
);
}
);
width = 576;
}
);
unicode = 004B;
},
{
color = 7;
glyphname = L;
layers = (
{
anchors = (
{
name = bottom;
position = "{255, 0}";
},
{
name = ogonek;
position = "{317, 0}";
},
{
name = top;
position = "{142, 570}";
}
);
layerId = "5483B82D-F897-45AA-9987-2D1C58E320E8";
paths = (
{
closed = 1;
nodes = (
"461 0 LINE",
"461 132 LINE",
"228 132 LINE",
"228 570 LINE",
"48 570 LINE",
"48 0 LINE"
);
}
);
width = 476;
},
{
associatedMasterId = "5483B82D-F897-45AA-9987-2D1C58E320E8";
layerId = "C0F2C1AD-349F-43F5-88EE-A50BE98DE566";
name = bubble;
paths = (
{
closed = 1;
nodes = (
"0 570 LINE",
"0 0 LINE",
"476 0 LINE",
"476 186 LINE",
"320 296 LINE",
"310 570 LINE"
);
}
);
width = 476;
}
);
unicode = 004C;
},
{
color = 1;
glyphname = Lcaron;
layers = (
{
components = (
{
name = L;
}
);
layerId = "5483B82D-F897-45AA-9987-2D1C58E320E8";
paths = (
{
closed = 1;
nodes = (
"295 560 LINE",
"303 536 OFFCURVE",
"306 513 OFFCURVE",
"306 492 CURVE SMOOTH",
"306 453 OFFCURVE",
"295 417 OFFCURVE",
"280 384 CURVE",
"299 376 OFFCURVE",
"330 369 OFFCURVE",
"352 366 CURVE",
"387 404 OFFCURVE",
"407 469 OFFCURVE",
"407 520 CURVE SMOOTH",
"407 538 OFFCURVE",
"404 554 OFFCURVE",
"399 567 CURVE",
"391 572 OFFCURVE",
"344 573 OFFCURVE",
"302 571 CURVE"
);
}
);
width = 473;
}
);
unicode = 013D;
},
{
color = 1;
glyphname = Lslash;
layers = (
{
background = {
paths = (
{
closed = 1;
nodes = (
"470 121 LINE",
"270 121 LINE SMOOTH",
"246 121 OFFCURVE",
"231 137 OFFCURVE",
"231 161 CURVE SMOOTH",
"231 309 LINE",
"322 343 LINE",
"322 415 LINE",
"231 380 LINE",
"231 568 LINE",
"48 568 LINE",
"48 311 LINE",
"10 296 LINE",
"10 225 LINE",
"48 239 LINE",
"48 114 LINE SMOOTH",
"48 38 OFFCURVE",
"103 -12 OFFCURVE",
"188 -12 CURVE SMOOTH",
"285 -12 OFFCURVE",
"390 -12 OFFCURVE",
"478 -1 CURVE"
);
}
);
};
components = (
{
name = L;
}
);
layerId = "5483B82D-F897-45AA-9987-2D1C58E320E8";
paths = (
{
closed = 1;
nodes = (
"321 343 LINE",
"321 415 LINE",
"163 353 LINE",
"147 350 LINE",
"8 295 LINE",
"8 224 LINE"
);
},
{
closed = 1;
nodes = (
"321 343 LINE",
"321 415 LINE",
"163 353 LINE",
"147 350 LINE",
"8 295 LINE",
"8 224 LINE"
);
}
);
width = 473;
}
);
unicode = 0141;
},
{
color = 7;
glyphname = M;
layers = (
{
anchors = (
{
name = top;
position = "{408, 570}";
}
);
layerId = "5483B82D-F897-45AA-9987-2D1C58E320E8";
paths = (
{
closed = 1;
nodes = (
"597 455 LINE",
"602 401 OFFCURVE",
"603 350 OFFCURVE",
"604 314 CURVE SMOOTH",
"617 0 LINE",
"785 0 LINE",
"762 570 LINE",
"470 570 LINE",
"424 327 LINE SMOOTH",
"415 280 OFFCURVE",
"402 215 OFFCURVE",
"380 170 CURVE",
"436 170 LINE",
"416 210 OFFCURVE",
"402 295 OFFCURVE",
"397 324 CURVE SMOOTH",
"348 570 LINE",
"62 570 LINE",
"38 0 LINE",
"207 0 LINE",
"216 270 LINE SMOOTH",
"219 364 OFFCURVE",
"220 402 OFFCURVE",
"224 455 CURVE",
"227 455 LINE",
"242 400 OFFCURVE",
"251 351 OFFCURVE",
"266 281 CURVE SMOOTH",
"324 0 LINE",
"492 0 LINE",
"561 312 LINE SMOOTH",
"569 350 OFFCURVE",
"578 401 OFFCURVE",
"594 455 CURVE"
);
}
);
width = 823;
},
{
associatedMasterId = "5483B82D-F897-45AA-9987-2D1C58E320E8";
layerId = "F20AD8E7-53E2-46EA-AB05-ED611B95E763";
name = bubble;
paths = (
{
closed = 1;
nodes = (
"0 0 LINE",
"823 0 LINE",
"803 570 LINE",
"20 570 LINE"
);
}
);
width = 823;
}
);
unicode = 004D;
},
{
color = 7;
glyphname = N;
layers = (
{
anchors = (
{
name = bottom;
position = "{323, 0}";
},
{
name = ogonek;
position = "{505, 0}";
},
{
name = top;
position = "{322, 570}";
}
);
layerId = "5483B82D-F897-45AA-9987-2D1C58E320E8";
paths = (
{
closed = 1;
nodes = (
"221 308 LINE",
"239 281 OFFCURVE",
"253 260 OFFCURVE",
"266 240 CURVE SMOOTH",
"421 0 LINE",
"591 0 LINE",
"591 570 LINE",
"425 570 LINE",
"425 350 LINE SMOOTH",
"425 326 OFFCURVE",
"425 302 OFFCURVE",
"425 254 CURVE",
"422 254 LINE",
"404 289 OFFCURVE",
"388 313 OFFCURVE",
"370 340 CURVE SMOOTH",
"219 570 LINE",
"50 570 LINE",
"50 0 LINE",
"217 0 LINE",
"217 230 LINE SMOOTH",
"217 250 OFFCURVE",
"217 269 OFFCURVE",
"218 308 CURVE"
);
}
);
width = 640;
},
{
associatedMasterId = "5483B82D-F897-45AA-9987-2D1C58E320E8";
layerId = "F24226B5-5CFA-4A5E-BDE5-15F1BF7201F6";
name = bubble;
paths = (
{
closed = 1;
nodes = (
"0 290 LINE",
"0 0 LINE",
"640 0 LINE",
"640 276.991 LINE",
"620 570 LINE",
"20 570 LINE"
);
}
);
width = 640;
}
);
unicode = 004E;
},
{
color = 1;
glyphname = Eng;
layers = (
{
components = (
{
name = N;
}
);
layerId = "5483B82D-F897-45AA-9987-2D1C58E320E8";
paths = (
{
closed = 1;
nodes = (
"423 -8 LINE SMOOTH",
"423 -55 OFFCURVE",
"424 -79 OFFCURVE",
"416 -91 CURVE SMOOTH",
"407 -105 OFFCURVE",
"384 -102 OFFCURVE",
"332 -102 CURVE",
"317 -199 LINE",
"517 -246 OFFCURVE",
"593 -189 OFFCURVE",
"593 0 CURVE SMOOTH",
"593 107 LINE",
"423 107 LINE"
);
}
);
width = 644;
}
);
unicode = 014A;
},
{
color = 10;
glyphname = O;
layers = (
{
anchors = (
{
name = bottom;
position = "{326, 0}";
},
{
name = horn;
position = "{480, 517}";
},
{
name = ogonek;
position = "{419, 0}";
},
{
name = top;
position = "{326, 570}";
}
);
background = {
paths = (
{
closed = 1;
nodes = (
"290 105 OFFCURVE",
"264 115 OFFCURVE",
"248 148 CURVE SMOOTH",
"234 175 OFFCURVE",
"227 217 OFFCURVE",
"227 282 CURVE SMOOTH",
"227 342 OFFCURVE",
"233 385 OFFCURVE",
"248 414 CURVE SMOOTH",
"263 444 OFFCURVE",
"288 457 OFFCURVE",
"325 458 CURVE SMOOTH",
"349 458 OFFCURVE",
"388 452 OFFCURVE",
"397 441 CURVE SMOOTH",
"413 422 OFFCURVE",
"422 351 OFFCURVE",
"422 282 CURVE SMOOTH",
"422 222 OFFCURVE",
"417 182 OFFCURVE",
"406 155 CURVE SMOOTH",
"391 115 OFFCURVE",
"363 105 OFFCURVE",
"325 105 CURVE SMOOTH"
);
}
);
};
layerId = "5483B82D-F897-45AA-9987-2D1C58E320E8";
paths = (
{
closed = 1;
nodes = (
"531 -13 OFFCURVE",
"613 113 OFFCURVE",
"613 294 CURVE SMOOTH",
"613 497 OFFCURVE",
"502 577 OFFCURVE",
"329 577 CURVE SMOOTH",
"164 577 OFFCURVE",
"30 501 OFFCURVE",
"30 284 CURVE SMOOTH",
"30 70 OFFCURVE",
"135 -13 OFFCURVE",
"328 -13 CURVE SMOOTH"
);
},
{
closed = 1;
nodes = (
"286 105 OFFCURVE",
"258 119 OFFCURVE",
"243 159 CURVE SMOOTH",
"232 186 OFFCURVE",
"227 222 OFFCURVE",
"227 282 CURVE SMOOTH",
"227 351 OFFCURVE",
"236 422 OFFCURVE",
"252 441 CURVE SMOOTH",
"261 452 OFFCURVE",
"300 458 OFFCURVE",
"324 458 CURVE SMOOTH",
"361 457 OFFCURVE",
"386 444 OFFCURVE",
"401 414 CURVE SMOOTH",
"416 385 OFFCURVE",
"422 342 OFFCURVE",
"422 282 CURVE SMOOTH",
"422 217 OFFCURVE",
"415 175 OFFCURVE",
"401 148 CURVE SMOOTH",
"385 115 OFFCURVE",
"359 105 OFFCURVE",
"324 105 CURVE SMOOTH"
);
}
);
width = 643;
},
{
associatedMasterId = "5483B82D-F897-45AA-9987-2D1C58E320E8";
background = {
paths = (
{
closed = 1;
nodes = (
"615 387 OFFCURVE",
"592 458 OFFCURVE",
"545 505 CURVE SMOOTH",
"498 552 OFFCURVE",
"426 577 OFFCURVE",
"331 577 CURVE SMOOTH",
"237 577 OFFCURVE",
"164 552 OFFCURVE",
"111 503 CURVE SMOOTH",
"59 454 OFFCURVE",
"32 381 OFFCURVE",
"32 282 CURVE SMOOTH",
"32 86 OFFCURVE",
"126 -13 OFFCURVE",
"315 -13 CURVE SMOOTH",
"515 -13 OFFCURVE",
"615 88 OFFCURVE",
"615 291 CURVE SMOOTH"
);
},
{
closed = 1;
nodes = (
"424 217 OFFCURVE",
"415 172 OFFCURVE",
"401 147 CURVE SMOOTH",
"386 124 OFFCURVE",
"359 112 OFFCURVE",
"323 112 CURVE SMOOTH",
"302 112 OFFCURVE",
"284 116 OFFCURVE",
"271 125 CURVE SMOOTH",
"258 134 OFFCURVE",
"247 150 OFFCURVE",
"239 175 CURVE SMOOTH",
"232 200 OFFCURVE",
"229 237 OFFCURVE",
"229 283 CURVE SMOOTH",
"229 346 OFFCURVE",
"236 391 OFFCURVE",
"251 416 CURVE SMOOTH",
"266 439 OFFCURVE",
"291 452 OFFCURVE",
"327 452 CURVE SMOOTH",
"363 452 OFFCURVE",
"388 439 OFFCURVE",
"402 416 CURVE SMOOTH",
"415 391 OFFCURVE",
"424 347 OFFCURVE",
"424 283 CURVE SMOOTH"
);
}
);
};
layerId = "26121967-DAF3-40A9-AFF7-8EB606E5F3EA";
name = bubble;
paths = (
{
closed = 1;
nodes = (
"17 475 OFFCURVE",
"0 380 OFFCURVE",
"0 285 CURVE",
"0 186 OFFCURVE",
"17 95 OFFCURVE",
"61 0 CURVE",
"597 0 LINE",
"647 96 OFFCURVE",
"647 186 OFFCURVE",
"647 287 CURVE",
"647 381 OFFCURVE",
"647 476 OFFCURVE",
"583 570 CURVE",
"56 570 LINE"
);
}
);
width = 647;
}
);
unicode = 004F;
},
{
color = 1;
glyphname = Oslash;
layers = (
{
background = {
paths = (
{
closed = 1;
nodes = (
"571 604 LINE",
"431 664 LINE",
"388 576 LINE",
"368 577 OFFCURVE",
"347 578 OFFCURVE",
"324 578 CURVE SMOOTH",
"102 578 OFFCURVE",
"35 510 OFFCURVE",
"35 285 CURVE SMOOTH",
"35 151 OFFCURVE",
"58 81 OFFCURVE",
"115 39 CURVE",
"77 -35 LINE",
"215 -96 LINE",
"260 -6 LINE",
"280 -8 OFFCURVE",
"301 -8 OFFCURVE",
"324 -8 CURVE SMOOTH",
"547 -8 OFFCURVE",
"614 60 OFFCURVE",
"614 285 CURVE SMOOTH",
"614 417 OFFCURVE",
"591 488 OFFCURVE",
"535 531 CURVE"
);
},
{
closed = 1;
nodes = (
"256 109 OFFCURVE",
"237 148 OFFCURVE",
"237 285 CURVE SMOOTH",
"237 422 OFFCURVE",
"256 461 OFFCURVE",
"324 461 CURVE SMOOTH",
"393 461 OFFCURVE",
"412 421 OFFCURVE",
"412 285 CURVE SMOOTH",
"412 149 OFFCURVE",
"393 109 OFFCURVE",
"324 109 CURVE SMOOTH"
);
}
);
};
components = (
{
name = O;
}
);
layerId = "5483B82D-F897-45AA-9987-2D1C58E320E8";
paths = (
{
closed = 1;
nodes = (
"150 126 LINE",
"78 -36 LINE",
"217 -97 LINE",
"286 57 LINE"
);
},
{
closed = 1;
nodes = (
"504 460 LINE",
"568 603 LINE",
"429 664 LINE",
"363 515 LINE"
);
}
);
width = 647;
}
);
unicode = 00D8;
},
{
color = 1;
glyphname = OE;
layers = (
{
components = (
{
name = C;
},
{
name = E;
transform = "{1, 0, 0, 1, 377, 0}";
}
);
layerId = "5483B82D-F897-45AA-9987-2D1C58E320E8";
paths = (
{
closed = 0;
nodes = (
"275 529 LINE"
);
}
);
width = 863;
}
);
leftMetricsKey = C;
rightMetricsKey = E;
unicode = 0152;
},
{
color = 7;
glyphname = P;
layers = (
{
background = {
paths = (
{
closed = 1;
nodes = (
"212 573 OFFCURVE",
"120 572 OFFCURVE",
"50 570 CURVE",
"50 0 LINE",
"230 0 LINE",
"230 191 LINE",
"331 183 OFFCURVE",
"451 192 OFFCURVE",
"476 209 CURVE SMOOTH",
"499 225 OFFCURVE",
"540 303 OFFCURVE",
"540 379 CURVE SMOOTH",
"540 545 OFFCURVE",
"423 573 OFFCURVE",
"280 573 CURVE SMOOTH"
);
},
{
closed = 1;
nodes = (
"230 458 LINE",
"244 460 OFFCURVE",
"257 461 OFFCURVE",
"269 461 CURVE SMOOTH",
"340 461 OFFCURVE",
"365 435 OFFCURVE",
"365 368 CURVE SMOOTH",
"365 351 OFFCURVE",
"363 332 OFFCURVE",
"358 312 CURVE",
"319 305 OFFCURVE",
"265 304 OFFCURVE",
"230 306 CURVE"
);
}
);
};
layerId = "5483B82D-F897-45AA-9987-2D1C58E320E8";
paths = (
{
closed = 1;
nodes = (
"230 458 LINE",
"244 460 OFFCURVE",
"257 461 OFFCURVE",
"269 461 CURVE SMOOTH",
"340 461 OFFCURVE",
"365 435 OFFCURVE",
"365 368 CURVE SMOOTH",
"365 351 OFFCURVE",
"363 326 OFFCURVE",
"355 316 CURVE SMOOTH",
"344 303 OFFCURVE",
"244 304 OFFCURVE",
"219 307 CURVE",
"186 193 LINE",
"315 182 OFFCURVE",
"449 191 OFFCURVE",
"476 209 CURVE SMOOTH",
"499 225 OFFCURVE",
"540 303 OFFCURVE",
"540 379 CURVE SMOOTH",
"540 545 OFFCURVE",
"423 573 OFFCURVE",
"280 573 CURVE SMOOTH",
"212 573 OFFCURVE",
"120 572 OFFCURVE",
"50 570 CURVE",
"50 0 LINE",
"230 0 LINE"
);
}
);
width = 554;
},
{
associatedMasterId = "5483B82D-F897-45AA-9987-2D1C58E320E8";
layerId = "B058D08C-315B-4236-BD7E-0064AEAA3F01";
name = bubble;
paths = (
{
closed = 1;
nodes = (
"0 296 LINE",
"0 0 LINE",
"334 0 LINE",
"364 113 LINE",
"554 193 LINE",
"554 570 LINE",
"0 570 LINE"
);
}
);
width = 554;
}
);
unicode = 0050;
},
{
color = 1;
glyphname = Thorn;
layers = (
{
layerId = "5483B82D-F897-45AA-9987-2D1C58E320E8";
paths = (
{
closed = 1;
nodes = (
"404 222 LINE",
"371 200 OFFCURVE",
"242 199 OFFCURVE",
"206 205 CURVE",
"195 92 LINE",
"302 78 OFFCURVE",
"437 87 OFFCURVE",
"481 102 CURVE",
"504 134 OFFCURVE",
"542 200 OFFCURVE",
"542 276 CURVE SMOOTH",
"542 442 OFFCURVE",
"425 470 OFFCURVE",
"282 470 CURVE SMOOTH",
"214 470 OFFCURVE",
"122 469 OFFCURVE",
"52 467 CURVE",
"52 0 LINE",
"232 0 LINE",
"232 355 LINE",
"316 367 OFFCURVE",
"367 345 OFFCURVE",
"367 265 CURVE SMOOTH",
"367 232 OFFCURVE",
"358 191 OFFCURVE",
"342 146 CURVE"
);
},
{
closed = 1;
nodes = (
"52 342 LINE",
"232 342 LINE",
"232 570 LINE",
"52 570 LINE"
);
}
);
width = 558;
}
);
unicode = 00DE;
},
{
color = 7;
glyphname = Q;
layers = (
{
components = (
{
name = O;
}
);
layerId = "5483B82D-F897-45AA-9987-2D1C58E320E8";
paths = (
{
closed = 1;
nodes = (
"646 -17 LINE",
"484 96 LINE",
"448 91 LINE",
"368 29 LINE",
"559 -138 LINE"
);
}
);
width = 647;
},
{
associatedMasterId = "5483B82D-F897-45AA-9987-2D1C58E320E8";
components = (
{
name = O;
}
);
layerId = "6C592642-9330-45C9-AFEB-FF0D799E020B";
name = bubble;
paths = (
{
closed = 1;
nodes = (
"332 25 LINE",
"550 -196 LINE",
"686 -44 LINE",
"667 21 LINE",
"451 141 LINE"
);
}
);
width = 643;
}
);
unicode = 0051;
},
{
color = 7;
glyphname = R;
layers = (
{
anchors = (
{
name = bottom;
position = "{298, 0}";
},
{
name = ogonek;
position = "{477, 0}";
},
{
name = top;
position = "{263, 570}";
}
);
background = {
paths = (
{
closed = 1;
nodes = (
"334 215 OFFCURVE",
"336 188 OFFCURVE",
"346 144 CURVE SMOOTH",
"380 0 LINE",
"569 0 LINE",
"520 188 LINE SMOOTH",
"508 232 OFFCURVE",
"468 264 OFFCURVE",
"408 261 CURVE",
"298 214 LINE"
);
},
{
closed = 1;
nodes = (
"545 536 OFFCURVE",
"456 574 OFFCURVE",
"276 574 CURVE SMOOTH",
"206 574 OFFCURVE",
"117 570 OFFCURVE",
"50 565 CURVE",
"50 0 LINE",
"230 0 LINE",
"230 212 LINE",
"292 213 OFFCURVE",
"355 212 OFFCURVE",
"430 216 CURVE",
"430 266 LINE",
"517 275 OFFCURVE",
"550 327 OFFCURVE",
"548 410 CURVE SMOOTH"
);
},
{
closed = 1;
nodes = (
"230 462 LINE",
"247 463 OFFCURVE",
"262 464 OFFCURVE",
"275 464 CURVE SMOOTH",
"336 464 OFFCURVE",
"367 451 OFFCURVE",
"367 393 CURVE SMOOTH",
"367 369 OFFCURVE",
"365 350 OFFCURVE",
"361 332 CURVE",
"321 324 OFFCURVE",
"263 323 OFFCURVE",
"230 325 CURVE"
);
}
);
};
layerId = "5483B82D-F897-45AA-9987-2D1C58E320E8";
paths = (
{
closed = 1;
nodes = (
"334 215 OFFCURVE",
"336 188 OFFCURVE",
"346 144 CURVE SMOOTH",
"380 0 LINE",
"569 0 LINE",
"520 188 LINE SMOOTH",
"508 232 OFFCURVE",
"468 264 OFFCURVE",
"408 261 CURVE",
"298 214 LINE"
);
},
{
closed = 1;
nodes = (
"545 536 OFFCURVE",
"456 574 OFFCURVE",
"276 574 CURVE SMOOTH",
"206 574 OFFCURVE",
"117 570 OFFCURVE",
"50 565 CURVE",
"50 0 LINE",
"230 0 LINE",
"230 212 LINE",
"292 213 OFFCURVE",
"355 212 OFFCURVE",
"430 216 CURVE",
"430 266 LINE",
"517 275 OFFCURVE",
"550 327 OFFCURVE",
"548 410 CURVE SMOOTH"
);
},
{
closed = 1;
nodes = (
"230 462 LINE",
"247 463 OFFCURVE",
"262 464 OFFCURVE",
"275 464 CURVE SMOOTH",
"336 464 OFFCURVE",
"367 451 OFFCURVE",
"367 393 CURVE SMOOTH",
"367 369 OFFCURVE",
"365 347 OFFCURVE",
"355 337 CURVE SMOOTH",
"341 323 OFFCURVE",
"263 323 OFFCURVE",
"230 325 CURVE"
);
}
);
width = 580;
},
{
associatedMasterId = "5483B82D-F897-45AA-9987-2D1C58E320E8";
layerId = "7A9012C2-834A-4A37-8888-092A10548CD0";
name = bubble;
paths = (
{
closed = 1;
nodes = (
"0 301 LINE",
"0 0 LINE",
"580 0 LINE",
"580 176 LINE",
"540 256 LINE",
"580 321 LINE",
"580 490 LINE",
"530 570 LINE",
"0 570 LINE"
);
}
);
width = 580;
}
);
unicode = 0052;
},
{
color = 7;
glyphname = S;
layers = (
{
anchors = (
{
name = bottom;
position = "{255, 0}";
},
{
name = ogonek;
position = "{317, 0}";
},
{
name = top;
position = "{263, 570}";
}
);
background = {
paths = (
{
closed = 1;
nodes = (
"242 376 OFFCURVE",
"190 391 OFFCURVE",
"216 449 CURVE",
"288 448 OFFCURVE",
"378 441 OFFCURVE",
"437 434 CURVE",
"447 467 OFFCURVE",
"457 525 OFFCURVE",
"461 551 CURVE",
"415 566 OFFCURVE",
"339 576 OFFCURVE",
"263 576 CURVE SMOOTH",
"193 576 OFFCURVE",
"112 558 OFFCURVE",
"89 536 CURVE SMOOTH",
"65 514 OFFCURVE",
"38 458 OFFCURVE",
"38 392 CURVE SMOOTH",
"38 262 OFFCURVE",
"142 231 OFFCURVE",
"223 207 CURVE SMOOTH",
"289 188 OFFCURVE",
"338 174 OFFCURVE",
"305 114 CURVE",
"197 110 OFFCURVE",
"67 133 OFFCURVE",
"64 133 CURVE",
"54 114 OFFCURVE",
"33 43 OFFCURVE",
"28 14 CURVE",
"95 -1 OFFCURVE",
"168 -13 OFFCURVE",
"237 -13 CURVE SMOOTH",
"375 -13 OFFCURVE",
"492 33 OFFCURVE",
"492 177 CURVE SMOOTH",
"492 303 OFFCURVE",
"389 333 OFFCURVE",
"308 357 CURVE SMOOTH"
);
}
);
};
layerId = "5483B82D-F897-45AA-9987-2D1C58E320E8";
paths = (
{
closed = 1;
nodes = (
"482 380 OFFCURVE",
"214 335 OFFCURVE",
"214 416 CURVE SMOOTH",
"214 428 OFFCURVE",
"219 438 OFFCURVE",
"224 441 CURVE SMOOTH",
"235 445 OFFCURVE",
"330 438 OFFCURVE",
"430 432 CURVE",
"437 466 OFFCURVE",
"446 524 OFFCURVE",
"448 551 CURVE",
"404 564 OFFCURVE",
"345 572 OFFCURVE",
"265 572 CURVE SMOOTH",
"205 572 OFFCURVE",
"125 555 OFFCURVE",
"105 541 CURVE SMOOTH",
"81 524 OFFCURVE",
"44 461 OFFCURVE",
"44 397 CURVE SMOOTH",
"44 180 OFFCURVE",
"309 229 OFFCURVE",
"309 150 CURVE SMOOTH",
"309 142 OFFCURVE",
"305 126 OFFCURVE",
"296 120 CURVE SMOOTH",
"281 110 OFFCURVE",
"101 130 OFFCURVE",
"59 136 CURVE",
"51 108 OFFCURVE",
"40 40 OFFCURVE",
"38 14 CURVE",
"104 -2 OFFCURVE",
"190 -11 OFFCURVE",
"240 -11 CURVE SMOOTH",
"377 -11 OFFCURVE",
"482 33 OFFCURVE",
"482 175 CURVE SMOOTH"
);
},
{
closed = 1;
nodes = (
"482 380 OFFCURVE",
"214 335 OFFCURVE",
"214 416 CURVE SMOOTH",
"214 428 OFFCURVE",
"219 438 OFFCURVE",
"224 441 CURVE SMOOTH",
"235 445 OFFCURVE",
"330 438 OFFCURVE",
"430 432 CURVE",
"437 466 OFFCURVE",
"446 524 OFFCURVE",
"448 551 CURVE",
"404 564 OFFCURVE",
"345 572 OFFCURVE",
"265 572 CURVE SMOOTH",
"205 572 OFFCURVE",
"125 555 OFFCURVE",
"105 541 CURVE SMOOTH",
"81 524 OFFCURVE",
"44 461 OFFCURVE",
"44 397 CURVE SMOOTH",
"44 180 OFFCURVE",
"309 229 OFFCURVE",
"309 150 CURVE SMOOTH",
"309 142 OFFCURVE",
"305 126 OFFCURVE",
"296 120 CURVE SMOOTH",
"281 110 OFFCURVE",
"101 130 OFFCURVE",
"59 136 CURVE",
"51 108 OFFCURVE",
"40 40 OFFCURVE",
"38 14 CURVE",
"104 -2 OFFCURVE",
"190 -11 OFFCURVE",
"240 -11 CURVE SMOOTH",
"377 -11 OFFCURVE",
"482 33 OFFCURVE",
"482 175 CURVE SMOOTH"
);
},
{
closed = 1;
nodes = (
"482 380 OFFCURVE",
"214 335 OFFCURVE",
"214 416 CURVE SMOOTH",
"214 428 OFFCURVE",
"219 438 OFFCURVE",
"224 441 CURVE SMOOTH",
"235 445 OFFCURVE",
"330 438 OFFCURVE",
"430 432 CURVE",
"437 466 OFFCURVE",
"446 524 OFFCURVE",
"448 551 CURVE",
"404 564 OFFCURVE",
"345 572 OFFCURVE",
"265 572 CURVE SMOOTH",
"205 572 OFFCURVE",
"125 555 OFFCURVE",
"105 541 CURVE SMOOTH",
"81 524 OFFCURVE",
"44 461 OFFCURVE",
"44 397 CURVE SMOOTH",
"44 180 OFFCURVE",
"309 229 OFFCURVE",
"309 150 CURVE SMOOTH",
"309 142 OFFCURVE",
"305 126 OFFCURVE",
"296 120 CURVE SMOOTH",
"281 110 OFFCURVE",
"101 130 OFFCURVE",
"59 136 CURVE",
"51 108 OFFCURVE",
"40 40 OFFCURVE",
"38 14 CURVE",
"104 -2 OFFCURVE",
"190 -11 OFFCURVE",
"240 -11 CURVE SMOOTH",
"377 -11 OFFCURVE",
"482 33 OFFCURVE",
"482 175 CURVE SMOOTH"
);
}
);
width = 515;
},
{
associatedMasterId = "5483B82D-F897-45AA-9987-2D1C58E320E8";
layerId = "B6246006-39FA-43F7-81A2-8B9FEA948634";
name = bubble;
paths = (
{
closed = 1;
nodes = (
"0 448 LINE",
"0 369 LINE",
"0 304 LINE",
"58 228 LINE",
"0 132 LINE",
"0 0 LINE",
"459 0 LINE",
"515 80 LINE",
"515 247 LINE",
"504 292 LINE",
"457 351 LINE",
"505 570 LINE",
"50 570 LINE"
);
}
);
width = 515;
}
);
unicode = 0053;
},
{
color = 7;
glyphname = T;
layers = (
{
anchors = (
{
name = bottom;
position = "{259, 0}";
},
{
name = ogonek;
position = "{314, 0}";
},
{
name = top;
position = "{259, 570}";
}
);
layerId = "5483B82D-F897-45AA-9987-2D1C58E320E8";
paths = (
{
closed = 1;
nodes = (
"510 445 LINE",
"510 570 LINE",
"8 570 LINE",
"8 445 LINE",
"169 445 LINE",
"169 0 LINE",
"349 0 LINE",
"349 445 LINE"
);
}
);
width = 518;
},
{
associatedMasterId = "5483B82D-F897-45AA-9987-2D1C58E320E8";
layerId = "87F44D83-809A-4F2C-A6EE-9C11D449673D";
name = bubble;
paths = (
{
closed = 1;
nodes = (
"0 417 LINE",
"114 363 LINE",
"114 0 LINE",
"408 0 LINE",
"408 337 LINE",
"518 405 LINE",
"518 570 LINE",
"0 570 LINE"
);
}
);
width = 518;
}
);
unicode = 0054;
},
{
color = 1;
glyphname = Tbar;
layers = (
{
components = (
{
name = T;
}
);
layerId = "5483B82D-F897-45AA-9987-2D1C58E320E8";
paths = (
{
closed = 1;
nodes = (
"35 263 LINE",
"487 263 LINE",
"487 332 LINE",
"35 332 LINE"
);
}
);
width = 522;
}
);
unicode = 0166;
},
{
color = 10;
glyphname = U;
layers = (
{
anchors = (
{
name = bottom;
position = "{315, 0}";
},
{
name = horn;
position = "{555, 516}";
},
{
name = ogonek;
position = "{387, 0}";
},
{
name = top;
position = "{314, 570}";
}
);
background = {
paths = (
{
closed = 1;
nodes = (
"403 219 LINE SMOOTH",
"403 194 OFFCURVE",
"401 125 OFFCURVE",
"395 75 CURVE",
"432 156 LINE",
"407 124 OFFCURVE",
"363 112 OFFCURVE",
"317 112 CURVE SMOOTH",
"232 112 OFFCURVE",
"225 156 OFFCURVE",
"225 249 CURVE SMOOTH",
"225 570 LINE",
"45 570 LINE",
"45 211 LINE SMOOTH",
"45 24 OFFCURVE",
"160 -11 OFFCURVE",
"309 -11 CURVE SMOOTH",
"537 -11 OFFCURVE",
"583 64 OFFCURVE",
"583 251 CURVE SMOOTH",
"583 570 LINE",
"403 570 LINE"
);
}
);
};
layerId = "5483B82D-F897-45AA-9987-2D1C58E320E8";
paths = (
{
closed = 1;
nodes = (
"403 219 LINE SMOOTH",
"403 202 OFFCURVE",
"403 144 OFFCURVE",
"394 132 CURVE SMOOTH",
"383 118 OFFCURVE",
"347 112 OFFCURVE",
"317 112 CURVE SMOOTH",
"232 112 OFFCURVE",
"225 156 OFFCURVE",
"225 249 CURVE SMOOTH",
"225 570 LINE",
"45 570 LINE",
"45 211 LINE SMOOTH",
"45 24 OFFCURVE",
"160 -11 OFFCURVE",
"309 -11 CURVE SMOOTH",
"537 -11 OFFCURVE",
"583 64 OFFCURVE",
"583 251 CURVE SMOOTH",
"583 570 LINE",
"403 570 LINE"
);
}
);
width = 628;
},
{
associatedMasterId = "5483B82D-F897-45AA-9987-2D1C58E320E8";
layerId = "4DDE7F4D-3C31-4EE9-BE9E-CC4767B364CC";
name = bubble;
paths = (
{
closed = 1;
nodes = (
"0 127 LINE",
"60 0 LINE",
"568 0 LINE",
"628 140 LINE",
"628 570 LINE",
"0 570 LINE"
);
}
);
width = 628;
}
);
unicode = 0055;
},
{
color = 3;
glyphname = Ubar;
layers = (
{
components = (
{
name = U;
}
);
layerId = "5483B82D-F897-45AA-9987-2D1C58E320E8";
paths = (
{
closed = 1;
nodes = (
"13 331 LINE",
"615 331 LINE",
"615 400 LINE",
"13 400 LINE"
);
}
);
width = 628;
}
);
unicode = 0244;
},
{
color = 7;
glyphname = V;
layers = (
{
layerId = "5483B82D-F897-45AA-9987-2D1C58E320E8";
paths = (
{
closed = 1;
nodes = (
"283 124 LINE",
"191 570 LINE",
"0 570 LINE",
"155 0 LINE",
"416 0 LINE",
"570 570 LINE",
"380 570 LINE",
"288 124 LINE"
);
}
);
width = 570;
},
{
associatedMasterId = "5483B82D-F897-45AA-9987-2D1C58E320E8";
background = {
paths = (
{
closed = 1;
nodes = (
"568 570 LINE",
"383 570 LINE",
"308 199 LINE SMOOTH",
"303 177 OFFCURVE",
"299 153 OFFCURVE",
"295 125 CURVE",
"271 125 LINE",
"267 153 OFFCURVE",
"263 177 OFFCURVE",
"258 199 CURVE SMOOTH",
"183 570 LINE",
"-2 570 LINE",
"139 49 LINE SMOOTH",
"146 24 OFFCURVE",
"171 7 OFFCURVE",
"201 7 CURVE SMOOTH",
"365 7 LINE SMOOTH",
"395 7 OFFCURVE",
"420 24 OFFCURVE",
"427 49 CURVE SMOOTH"
);
}
);
};
layerId = "38CC91A9-AA86-4C08-A5C9-EB41F0E594AF";
name = bubble;
paths = (
{
closed = 1;
nodes = (
"189 570 LINE",
"0 570 LINE",
"0 306 LINE",
"82 0 LINE",
"486 0 LINE",
"566 306 LINE",
"566 570 LINE",
"378 570 LINE"
);
}
);
width = 566;
}
);
unicode = 0056;
},
{
color = 7;
glyphname = W;
layers = (
{
anchors = (
{
name = bottom;
position = "{461, 0}";
},
{
name = ogonek;
position = "{664, 0}";
},
{
name = top;
position = "{464, 570}";
}
);
layerId = "5483B82D-F897-45AA-9987-2D1C58E320E8";
paths = (
{
closed = 1;
nodes = (
"464 364 LINE",
"532 0 LINE",
"756 0 LINE",
"903 570 LINE",
"719 570 LINE",
"642 151 LINE",
"639 151 LINE",
"556 570 LINE",
"368 570 LINE",
"287 151 LINE",
"282 151 LINE",
"206 570 LINE",
"14 570 LINE",
"161 0 LINE",
"386 0 LINE",
"458 364 LINE"
);
}
);
width = 917;
},
{
associatedMasterId = "5483B82D-F897-45AA-9987-2D1C58E320E8";
background = {
paths = (
{
closed = 1;
nodes = (
"366 0 LINE",
"417 195 OFFCURVE",
"449 321 OFFCURVE",
"463 377 CURVE",
"500 218 OFFCURVE",
"530 92 OFFCURVE",
"553 0 CURVE",
"742 0 LINE",
"909 570 LINE",
"720 570 LINE",
"679 399 OFFCURVE",
"652 279 OFFCURVE",
"641 210 CURVE",
"628 279 OFFCURVE",
"600 399 OFFCURVE",
"556 570 CURVE",
"369 570 LINE",
"329 410 OFFCURVE",
"301 290 OFFCURVE",
"286 210 CURVE",
"271 289 OFFCURVE",
"244 408 OFFCURVE",
"207 570 CURVE",
"10 570 LINE",
"177 0 LINE"
);
}
);
};
layerId = "865FD171-8618-4BD1-83A2-1130B5C1C58F";
name = bubble;
paths = (
{
closed = 1;
nodes = (
"189 570 LINE",
"0 570 LINE",
"0 306 LINE",
"110 0 LINE",
"808 0 LINE",
"914 306 LINE",
"914 570 LINE",
"378 570 LINE"
);
}
);
width = 914;
}
);
unicode = 0057;
},
{
color = 7;
glyphname = X;
layers = (
{
layerId = "5483B82D-F897-45AA-9987-2D1C58E320E8";
paths = (
{
closed = 1;
nodes = (
"183 -1 LINE",
"285 241 LINE",
"384 -1 LINE",
"568 -1 LINE",
"427 292 LINE",
"559 570 LINE",
"380 570 LINE",
"285 346 LINE",
"193 570 LINE",
"9 570 LINE",
"143 292 LINE",
"-2 -1 LINE"
);
}
);
width = 566;
},
{
associatedMasterId = "5483B82D-F897-45AA-9987-2D1C58E320E8";
layerId = "A55A71AD-1E30-4716-9699-CFD1447CB147";
name = bubble;
paths = (
{
closed = 1;
nodes = (
"80 311 LINE",
"0 0 LINE",
"564 0 LINE",
"484 311 LINE",
"564 570 LINE",
"0 570 LINE"
);
}
);
width = 566;
}
);
unicode = 0058;
},
{
color = 7;
glyphname = Y;
layers = (
{
anchors = (
{
name = bottom;
position = "{272, 0}";
},
{
name = ogonek;
position = "{319, 0}";
},
{
name = top;
position = "{273, 570}";
}
);
layerId = "5483B82D-F897-45AA-9987-2D1C58E320E8";
paths = (
{
closed = 1;
nodes = (
"274 326 LINE",
"268 344 OFFCURVE",
"257 373 OFFCURVE",
"252 385 CURVE SMOOTH",
"176 570 LINE",
"-7 570 LINE",
"193 164 LINE",
"185 240 LINE",
"185 0 LINE",
"365 0 LINE",
"365 240 LINE",
"358 168 LINE",
"555 570 LINE",
"373 570 LINE",
"298 387 LINE SMOOTH",
"293 375 OFFCURVE",
"282 345 OFFCURVE",
"276 326 CURVE"
);
}
);
width = 548;
},
{
associatedMasterId = "5483B82D-F897-45AA-9987-2D1C58E320E8";
background = {
paths = (
{
closed = 1;
nodes = (
"365 182 LINE",
"555 571 LINE",
"373 571 LINE",
"301 394 LINE SMOOTH",
"291 366 OFFCURVE",
"286 332 OFFCURVE",
"281 306 CURVE",
"268 306 LINE",
"263 333 OFFCURVE",
"259 365 OFFCURVE",
"249 394 CURVE SMOOTH",
"175 571 LINE",
"-7 571 LINE",
"184 181 LINE",
"184 7 LINE",
"365 7 LINE"
);
}
);
};
layerId = "601058B5-2097-4E65-A564-05E25ACC36E6";
name = bubble;
paths = (
{
closed = 1;
nodes = (
"176 570 LINE",
"0 570 LINE",
"58 275 LINE",
"185 0 LINE",
"365 0 LINE",
"495 275 LINE",
"548 570 LINE",
"373 570 LINE"
);
}
);
width = 548;
}
);
unicode = 0059;
},
{
color = 7;
glyphname = Z;
layers = (
{
anchors = (
{
name = bottom;
position = "{256, 0}";
},
{
name = ogonek;
position = "{317, 0}";
},
{
name = top;
position = "{256, 570}";
}
);
layerId = "5483B82D-F897-45AA-9987-2D1C58E320E8";
paths = (
{
closed = 1;
nodes = (
"489 109 LINE",
"170 109 LINE",
"187 74 LINE",
"481 455 LINE",
"481 570 LINE",
"35 570 LINE",
"35 460 LINE",
"338 460 LINE",
"321 489 LINE",
"27 114 LINE",
"27 0 LINE",
"489 0 LINE"
);
}
);
width = 515;
},
{
associatedMasterId = "5483B82D-F897-45AA-9987-2D1C58E320E8";
layerId = "CEDEB1C6-C8F7-4AAE-AF7E-FBF43991A611";
name = bubble;
paths = (
{
closed = 1;
nodes = (
"0 424 LINE",
"168 392 LINE",
"0 171 LINE",
"0 0 LINE",
"515 0 LINE",
"515 144 LINE",
"382 198 LINE",
"515 420 LINE",
"515 570 LINE",
"0 570 LINE"
);
}
);
width = 515;
}
);
unicode = 005A;
},
{
color = 7;
glyphname = a;
layers = (
{
anchors = (
{
name = bottom;
position = "{256, 0}";
},
{
name = ogonek;
position = "{437, 0}";
},
{
name = top;
position = "{253, 470}";
}
);
background = {
paths = (
{
closed = 1;
nodes = (
"19 36 OFFCURVE",
"86 -13 OFFCURVE",
"171 -13 CURVE SMOOTH",
"248 -13 OFFCURVE",
"290 27 OFFCURVE",
"321 106 CURVE",
"328 136 LINE",
"295 109 OFFCURVE",
"257 100 OFFCURVE",
"229 100 CURVE SMOOTH",
"201 100 OFFCURVE",
"184 109 OFFCURVE",
"184 142 CURVE SMOOTH",
"184 153 OFFCURVE",
"187 169 OFFCURVE",
"194 176 CURVE SMOOTH",
"200 182 OFFCURVE",
"242 184 OFFCURVE",
"276 184 CURVE SMOOTH",
"289 184 OFFCURVE",
"302 184 OFFCURVE",
"314 184 CURVE",
"309 267 LINE",
"249 267 OFFCURVE",
"192 265 OFFCURVE",
"145 257 CURVE SMOOTH",
"71 244 OFFCURVE",
"19 214 OFFCURVE",
"19 131 CURVE SMOOTH"
);
},
{
closed = 1;
nodes = (
"207 470 OFFCURVE",
"123 458 OFFCURVE",
"57 444 CURVE",
"59 412 OFFCURVE",
"63 368 OFFCURVE",
"69 328 CURVE",
"117 333 OFFCURVE",
"160 337 OFFCURVE",
"199 339 CURVE SMOOTH",
"228 341 OFFCURVE",
"270 343 OFFCURVE",
"278 337 CURVE SMOOTH",
"284 333 OFFCURVE",
"284 284 OFFCURVE",
"284 261 CURVE SMOOTH",
"284 94 LINE",
"295 79 LINE",
"315 0 LINE",
"455 0 LINE",
"455 265 LINE SMOOTH",
"455 376 OFFCURVE",
"441 470 OFFCURVE",
"272 470 CURVE SMOOTH"
);
}
);
};
layerId = "5483B82D-F897-45AA-9987-2D1C58E320E8";
paths = (
{
closed = 1;
nodes = (
"303 119 LINE",
"277 105 OFFCURVE",
"250 100 OFFCURVE",
"229 100 CURVE SMOOTH",
"201 100 OFFCURVE",
"184 109 OFFCURVE",
"184 142 CURVE SMOOTH",
"184 153 OFFCURVE",
"187 169 OFFCURVE",
"194 176 CURVE SMOOTH",
"200 182 OFFCURVE",
"242 184 OFFCURVE",
"276 184 CURVE SMOOTH",
"289 184 OFFCURVE",
"302 184 OFFCURVE",
"309 184 CURVE",
"309 267 LINE",
"229 267 OFFCURVE",
"161 264 OFFCURVE",
"111 249 CURVE SMOOTH",
"53 232 OFFCURVE",
"19 186 OFFCURVE",
"19 131 CURVE SMOOTH",
"19 37 OFFCURVE",
"86 -12 OFFCURVE",
"171 -12 CURVE SMOOTH",
"236 -12 OFFCURVE",
"285 24 OFFCURVE",
"316 95 CURVE"
);
},
{
closed = 1;
nodes = (
"207 470 OFFCURVE",
"123 458 OFFCURVE",
"57 444 CURVE",
"59 412 OFFCURVE",
"63 368 OFFCURVE",
"69 328 CURVE",
"117 333 OFFCURVE",
"160 337 OFFCURVE",
"199 339 CURVE SMOOTH",
"228 341 OFFCURVE",
"270 343 OFFCURVE",
"278 337 CURVE SMOOTH",
"284 333 OFFCURVE",
"284 284 OFFCURVE",
"284 261 CURVE SMOOTH",
"284 94 LINE",
"295 79 LINE",
"315 0 LINE",
"457 0 LINE",
"454 118 LINE",
"455 265 LINE SMOOTH",
"456 376 OFFCURVE",
"441 470 OFFCURVE",
"272 470 CURVE SMOOTH"
);
}
);
width = 491;
},
{
associatedMasterId = "5483B82D-F897-45AA-9987-2D1C58E320E8";
background = {
paths = (
{
closed = 1;
nodes = (
"502 111 LINE",
"484 112 OFFCURVE",
"471 119 OFFCURVE",
"462 131 CURVE SMOOTH",
"455 141 OFFCURVE",
"451 159 OFFCURVE",
"451 185 CURVE SMOOTH",
"451 197 OFFCURVE",
"451 217 OFFCURVE",
"452 244 CURVE SMOOTH",
"452 272 OFFCURVE",
"453 290 OFFCURVE",
"453 300 CURVE SMOOTH",
"453 335 OFFCURVE",
"450 362 OFFCURVE",
"445 380 CURVE SMOOTH",
"439 398 OFFCURVE",
"429 415 OFFCURVE",
"416 430 CURVE SMOOTH",
"391 456 OFFCURVE",
"342 469 OFFCURVE",
"267 469 CURVE SMOOTH",
"242 469 OFFCURVE",
"208 467 OFFCURVE",
"163 461 CURVE SMOOTH",
"119 456 OFFCURVE",
"84 450 OFFCURVE",
"59 444 CURVE",
"71 328 LINE",
"115 332 OFFCURVE",
"162 334 OFFCURVE",
"212 334 CURVE SMOOTH",
"243 334 OFFCURVE",
"262 328 OFFCURVE",
"269 318 CURVE SMOOTH",
"274 312 OFFCURVE",
"276 299 OFFCURVE",
"276 282 CURVE SMOOTH",
"276 267 LINE",
"190 266 OFFCURVE",
"127 257 OFFCURVE",
"89 241 CURVE SMOOTH",
"44 221 OFFCURVE",
"21 184 OFFCURVE",
"21 131 CURVE SMOOTH",
"21 91 OFFCURVE",
"34 57 OFFCURVE",
"61 30 CURVE SMOOTH",
"88 3 OFFCURVE",
"126 -10 OFFCURVE",
"176 -10 CURVE SMOOTH",
"230 -10 OFFCURVE",
"270 10 OFFCURVE",
"295 51 CURVE",
"307 30 OFFCURVE",
"327 15 OFFCURVE",
"353 6 CURVE SMOOTH",
"380 -3 OFFCURVE",
"426 -8 OFFCURVE",
"494 -8 CURVE"
);
},
{
closed = 1;
nodes = (
"266 102 OFFCURVE",
"251 100 OFFCURVE",
"236 100 CURVE SMOOTH",
"222 100 OFFCURVE",
"211 103 OFFCURVE",
"204 109 CURVE SMOOTH",
"196 115 OFFCURVE",
"193 126 OFFCURVE",
"193 142 CURVE SMOOTH",
"193 162 OFFCURVE",
"203 175 OFFCURVE",
"223 179 CURVE SMOOTH",
"234 182 OFFCURVE",
"252 183 OFFCURVE",
"276 183 CURVE",
"276 141 OFFCURVE",
"278 115 OFFCURVE",
"280 105 CURVE"
);
}
);
};
layerId = "892BC203-2966-4A6F-B7CD-DBED6AB211B6";
name = bubble;
paths = (
{
closed = 1;
nodes = (
"49 266 LINE",
"0 205 LINE",
"0 79 LINE",
"0 0 LINE",
"491 0 LINE",
"491 258 LINE",
"491 461 LINE",
"30 461 LINE"
);
}
);
width = 491;
}
);
unicode = 0061;
},
{
color = 1;
glyphname = ae;
layers = (
{
anchors = (
{
name = bottom;
position = "{408, 0}";
},
{
name = ogonek;
position = "{437, 0}";
},
{
name = top;
position = "{253, 470}";
}
);
layerId = "5483B82D-F897-45AA-9987-2D1C58E320E8";
paths = (
{
closed = 1;
nodes = (
"19 36 OFFCURVE",
"86 -13 OFFCURVE",
"171 -13 CURVE SMOOTH",
"248 -13 OFFCURVE",
"290 27 OFFCURVE",
"321 106 CURVE",
"328 136 LINE",
"295 109 OFFCURVE",
"257 100 OFFCURVE",
"229 100 CURVE SMOOTH",
"201 100 OFFCURVE",
"184 109 OFFCURVE",
"184 142 CURVE SMOOTH",
"184 153 OFFCURVE",
"186 165 OFFCURVE",
"192 178 CURVE",
"214 183 OFFCURVE",
"270 186 OFFCURVE",
"314 183 CURVE",
"309 267 LINE",
"249 267 OFFCURVE",
"192 265 OFFCURVE",
"145 257 CURVE SMOOTH",
"71 244 OFFCURVE",
"19 214 OFFCURVE",
"19 131 CURVE SMOOTH"
);
},
{
closed = 1;
nodes = (
"312 365 LINE",
"267 397 LINE",
"283 353 OFFCURVE",
"284 299 OFFCURVE",
"284 261 CURVE",
"284 237 LINE",
"345 169 LINE",
"348 111 LINE",
"363 60 LINE",
"455 0 LINE",
"455 265 LINE SMOOTH",
"455 311 OFFCURVE",
"441 470 OFFCURVE",
"272 470 CURVE SMOOTH",
"207 470 OFFCURVE",
"123 458 OFFCURVE",
"57 444 CURVE",
"57 413 OFFCURVE",
"61 369 OFFCURVE",
"69 328 CURVE",
"167 339 OFFCURVE",
"243 343 OFFCURVE",
"309 340 CURVE"
);
},
{
closed = 1;
nodes = (
"444 347 LINE",
"468 355 OFFCURVE",
"495 361 OFFCURVE",
"513 361 CURVE SMOOTH",
"558 361 OFFCURVE",
"577 334 OFFCURVE",
"566 221 CURVE",
"595 278 LINE",
"577 272 OFFCURVE",
"535 272 OFFCURVE",
"499 272 CURVE SMOOTH",
"444 272 LINE",
"446 193 LINE",
"470 193 OFFCURVE",
"492 193 OFFCURVE",
"592 193 CURVE SMOOTH",
"611 193 OFFCURVE",
"674 194 OFFCURVE",
"725 197 CURVE",
"725 364 OFFCURVE",
"705 469 OFFCURVE",
"517 469 CURVE SMOOTH",
"444 469 OFFCURVE",
"360 439 OFFCURVE",
"344 395 CURVE",
"284 373 OFFCURVE",
"292 293 OFFCURVE",
"292 221 CURVE SMOOTH",
"292 215 OFFCURVE",
"275 209 OFFCURVE",
"275 203 CURVE SMOOTH",
"282 56 OFFCURVE",
"369 -12 OFFCURVE",
"513 -12 CURVE SMOOTH",
"568 -12 OFFCURVE",
"647 -7 OFFCURVE",
"717 24 CURVE",
"696 127 LINE",
"638 123 OFFCURVE",
"602 120 OFFCURVE",
"572 120 CURVE SMOOTH",
"494 120 OFFCURVE",
"454 127 OFFCURVE",
"457 202 CURVE",
"457 237 LINE",
"452 258 OFFCURVE",
"455 296 OFFCURVE",
"458 312 CURVE SMOOTH",
"467 365 OFFCURVE",
"484 381 OFFCURVE",
"493 395 CURVE",
"467 395 LINE"
);
}
);
width = 744;
}
);
leftMetricsKey = a;
rightMetricsKey = e;
unicode = 00E6;
},
{
color = 7;
glyphname = b;
layers = (
{
anchors = (
{
name = bottom;
position = "{262, 0}";
}
);
background = {
paths = (
{
closed = 1;
nodes = (
"74 14 OFFCURVE",
"187 55 OFFCURVE",
"211 81 CURVE",
"211 390 LINE",
"204 398 LINE",
"212 419 OFFCURVE",
"212 467 OFFCURVE",
"213 513 CURVE SMOOTH",
"213 607 LINE",
"40 600 LINE",
"40 20 LINE"
);
},
{
closed = 1;
nodes = (
"204 332 LINE",
"231 338 OFFCURVE",
"262 341 OFFCURVE",
"283 340 CURVE SMOOTH",
"334 337 OFFCURVE",
"337 291 OFFCURVE",
"337 227 CURVE SMOOTH",
"337 154 OFFCURVE",
"324 79 OFFCURVE",
"292 43 CURVE",
"354 50 LINE",
"395 122 LINE",
"368 107 OFFCURVE",
"329 101 OFFCURVE",
"288 101 CURVE SMOOTH",
"235 101 OFFCURVE",
"178 111 OFFCURVE",
"141 118 CURVE",
"40 20 LINE",
"111 -3 OFFCURVE",
"207 -11 OFFCURVE",
"263 -11 CURVE SMOOTH",
"343 -11 OFFCURVE",
"404 -1 OFFCURVE",
"456 24 CURVE",
"484 60 OFFCURVE",
"513 131 OFFCURVE",
"513 257 CURVE SMOOTH",
"513 426 OFFCURVE",
"444 470 OFFCURVE",
"350 470 CURVE SMOOTH",
"270 470 OFFCURVE",
"222 419 OFFCURVE",
"197 369 CURVE"
);
}
);
};
layerId = "5483B82D-F897-45AA-9987-2D1C58E320E8";
paths = (
{
closed = 1;
nodes = (
"74 14 OFFCURVE",
"187 55 OFFCURVE",
"211 81 CURVE",
"211 390 LINE",
"204 398 LINE",
"212 419 OFFCURVE",
"212 467 OFFCURVE",
"213 513 CURVE SMOOTH",
"213 607 LINE",
"40 600 LINE",
"40 20 LINE"
);
},
{
closed = 1;
nodes = (
"270 470 OFFCURVE",
"222 419 OFFCURVE",
"197 369 CURVE",
"204 332 LINE",
"231 338 OFFCURVE",
"262 341 OFFCURVE",
"283 340 CURVE SMOOTH",
"334 337 OFFCURVE",
"337 291 OFFCURVE",
"337 227 CURVE SMOOTH",
"337 183 OFFCURVE",
"330 123 OFFCURVE",
"322 109 CURVE SMOOTH",
"317 101 OFFCURVE",
"299 101 OFFCURVE",
"288 101 CURVE SMOOTH",
"235 101 OFFCURVE",
"178 111 OFFCURVE",
"141 118 CURVE",
"40 20 LINE",
"111 -3 OFFCURVE",
"207 -11 OFFCURVE",
"263 -11 CURVE SMOOTH",
"343 -11 OFFCURVE",
"419 0 OFFCURVE",
"456 30 CURVE SMOOTH",
"481 50 OFFCURVE",
"513 131 OFFCURVE",
"513 257 CURVE SMOOTH",
"513 426 OFFCURVE",
"444 470 OFFCURVE",
"350 470 CURVE SMOOTH"
);
}
);
width = 538;
},
{
associatedMasterId = "5483B82D-F897-45AA-9987-2D1C58E320E8";
layerId = "1F98FC67-1CCA-4169-900C-D808409C28A8";
name = bubble;
paths = (
{
closed = 1;
nodes = (
"0 290 LINE",
"0 0 LINE",
"518 0 LINE",
"538 107 LINE",
"538 338 LINE",
"502 452 LINE",
"344 530 LINE",
"0 570 LINE"
);
}
);
width = 538;
}
);
unicode = 0062;
},
{
color = 7;
glyphname = c;
layers = (
{
anchors = (
{
name = bottom;
position = "{248, 0}";
},
{
name = ogonek;
position = "{266, 0}";
},
{
name = top;
position = "{253, 470}";
}
);
background = {
paths = (
{
closed = 1;
nodes = (
"170 237 OFFCURVE",
"169 244 OFFCURVE",
"169 255 CURVE SMOOTH",
"169 289 OFFCURVE",
"176 336 OFFCURVE",
"186 346 CURVE SMOOTH",
"189 349 OFFCURVE",
"208 354 OFFCURVE",
"228 354 CURVE SMOOTH",
"273 354 OFFCURVE",
"292 327 OFFCURVE",
"281 214 CURVE",
"313 268 LINE",
"292 265 OFFCURVE",
"250 265 OFFCURVE",
"214 265 CURVE SMOOTH",
"159 265 LINE",
"161 186 LINE",
"185 186 OFFCURVE",
"207 186 OFFCURVE",
"307 186 CURVE SMOOTH",
"326 186 OFFCURVE",
"389 187 OFFCURVE",
"440 190 CURVE",
"440 357 OFFCURVE",
"420 462 OFFCURVE",
"232 462 CURVE SMOOTH",
"159 462 OFFCURVE",
"69 438 OFFCURVE",
"41 408 CURVE SMOOTH",
"15 380 OFFCURVE",
"-10 296 OFFCURVE",
"-10 214 CURVE SMOOTH",
"-10 55 OFFCURVE",
"78 -19 OFFCURVE",
"228 -19 CURVE SMOOTH",
"283 -19 OFFCURVE",
"362 -14 OFFCURVE",
"428 17 CURVE",
"413 120 LINE",
"353 116 OFFCURVE",
"317 113 OFFCURVE",
"287 113 CURVE SMOOTH",
"209 113 OFFCURVE",
"169 120 OFFCURVE",
"172 195 CURVE",
"172 230 LINE"
);
}
);
};
guideLines = (
{
angle = 90;
position = "{640, 518}";
}
);
layerId = "5483B82D-F897-45AA-9987-2D1C58E320E8";
paths = (
{
closed = 1;
nodes = (
"262 109 OFFCURVE",
"200 112 OFFCURVE",
"200 225 CURVE SMOOTH",
"200 264 OFFCURVE",
"209 332 OFFCURVE",
"221 337 CURVE SMOOTH",
"233 342 OFFCURVE",
"269 344 OFFCURVE",
"310 343 CURVE SMOOTH",
"344 343 OFFCURVE",
"381 341 OFFCURVE",
"407 339 CURVE",
"412 364 OFFCURVE",
"421 433 OFFCURVE",
"423 457 CURVE",
"376 465 OFFCURVE",
"329 469 OFFCURVE",
"284 469 CURVE SMOOTH",
"197 469 OFFCURVE",
"102 445 OFFCURVE",
"74 414 CURVE SMOOTH",
"52 390 OFFCURVE",
"24 304 OFFCURVE",
"24 220 CURVE SMOOTH",
"24 58 OFFCURVE",
"99 -13 OFFCURVE",
"247 -13 CURVE SMOOTH",
"299 -13 OFFCURVE",
"362 -8 OFFCURVE",
"428 14 CURVE",
"413 120 LINE"
);
}
);
width = 444;
},
{
associatedMasterId = "5483B82D-F897-45AA-9987-2D1C58E320E8";
guideLines = (
{
angle = 90;
position = "{640, 518}";
}
);
layerId = "9BFF773B-3B2A-4648-9C70-7CF823EA9F0A";
name = bubble;
paths = (
{
closed = 1;
nodes = (
"0 222 LINE",
"0 0 LINE",
"444 0 LINE",
"444 147 LINE",
"323 222 LINE",
"444 330 LINE",
"444 469 LINE",
"0 469 LINE"
);
}
);
width = 444;
}
);
unicode = 0063;
},
{
color = 7;
glyphname = d;
layers = (
{
anchors = (
{
name = bottom;
position = "{295, 0}";
}
);
background = {
paths = (
{
closed = 1;
nodes = (
"342 140 LINE",
"323 133 OFFCURVE",
"300 126 OFFCURVE",
"272 126 CURVE SMOOTH",
"237 126 OFFCURVE",
"202 136 OFFCURVE",
"202 227 CURVE SMOOTH",
"202 293 OFFCURVE",
"214 361 OFFCURVE",
"243 406 CURVE",
"177 378 LINE",
"140 342 LINE",
"227 366 OFFCURVE",
"358 359 OFFCURVE",
"414 326 CURVE",
"402 436 LINE",
"373 455 OFFCURVE",
"317 470 OFFCURVE",
"256 470 CURVE SMOOTH",
"207 470 OFFCURVE",
"140 460 OFFCURVE",
"89 437 CURVE",
"61 400 OFFCURVE",
"26 341 OFFCURVE",
"26 216 CURVE SMOOTH",
"26 60 OFFCURVE",
"98 -8 OFFCURVE",
"197 -8 CURVE SMOOTH",
"279 -8 OFFCURVE",
"342 45 OFFCURVE",
"357 113 CURVE"
);
},
{
closed = 1;
nodes = (
"499 0 LINE",
"499 607 LINE",
"327 600 LINE",
"327 516 LINE SMOOTH",
"327 482 OFFCURVE",
"332 454 OFFCURVE",
"333 427 CURVE SMOOTH",
"333 407 OFFCURVE",
"328 388 OFFCURVE",
"328 368 CURVE",
"328 128 LINE",
"340 97 LINE",
"358 0 LINE"
);
}
);
};
layerId = "5483B82D-F897-45AA-9987-2D1C58E320E8";
paths = (
{
closed = 1;
nodes = (
"499 0 LINE",
"499 607 LINE",
"327 600 LINE",
"327 516 LINE SMOOTH",
"327 482 OFFCURVE",
"332 454 OFFCURVE",
"333 427 CURVE SMOOTH",
"333 407 OFFCURVE",
"328 388 OFFCURVE",
"328 368 CURVE",
"328 128 LINE",
"340 97 LINE",
"358 0 LINE"
);
},
{
closed = 1;
nodes = (
"237 126 OFFCURVE",
"202 136 OFFCURVE",
"202 227 CURVE SMOOTH",
"202 276 OFFCURVE",
"210 340 OFFCURVE",
"226 351 CURVE SMOOTH",
"241 361 OFFCURVE",
"311 355 OFFCURVE",
"356 348 CURVE",
"402 436 LINE",
"373 455 OFFCURVE",
"317 470 OFFCURVE",
"256 470 CURVE SMOOTH",
"207 470 OFFCURVE",
"117 456 OFFCURVE",
"93 435 CURVE SMOOTH",
"64 409 OFFCURVE",
"26 341 OFFCURVE",
"26 216 CURVE SMOOTH",
"26 60 OFFCURVE",
"98 -8 OFFCURVE",
"197 -8 CURVE SMOOTH",
"279 -8 OFFCURVE",
"342 45 OFFCURVE",
"357 113 CURVE",
"342 140 LINE",
"323 133 OFFCURVE",
"300 126 OFFCURVE",
"272 126 CURVE SMOOTH"
);
}
);
width = 540;
},
{
associatedMasterId = "5483B82D-F897-45AA-9987-2D1C58E320E8";
layerId = "D87077F1-76E9-4651-B3B6-F7620C21B39C";
name = bubble;
paths = (
{
closed = 1;
nodes = (
"29 420 LINE",
"0 290 LINE",
"11 91 LINE",
"68 0 LINE",
"520 0 LINE",
"540 277 LINE",
"520 570 LINE",
"162 527 LINE"
);
}
);
width = 540;
}
);
unicode = 0064;
},
{
color = 1;
glyphname = eth;
layers = (
{
layerId = "5483B82D-F897-45AA-9987-2D1C58E320E8";
paths = (
{
closed = 1;
nodes = (
"197 477 LINE",
"303 474 OFFCURVE",
"350 433 OFFCURVE",
"344 286 CURVE",
"397 291 LINE",
"351 348 OFFCURVE",
"265 370 OFFCURVE",
"218 370 CURVE SMOOTH",
"52 370 OFFCURVE",
"35 246 OFFCURVE",
"35 188 CURVE SMOOTH",
"35 71 OFFCURVE",
"104 -13 OFFCURVE",
"269 -13 CURVE SMOOTH",
"444 -13 OFFCURVE",
"515 84 OFFCURVE",
"515 269 CURVE SMOOTH",
"515 498 OFFCURVE",
"422 600 OFFCURVE",
"243 600 CURVE SMOOTH",
"240 600 OFFCURVE",
"237 600 OFFCURVE",
"234 600 CURVE"
);
},
{
closed = 1;
nodes = (
"205 104 OFFCURVE",
"195 167 OFFCURVE",
"212 246 CURVE",
"252 252 OFFCURVE",
"297 252 OFFCURVE",
"336 242 CURVE",
"345 173 OFFCURVE",
"332 114 OFFCURVE",
"273 110 CURVE SMOOTH"
);
},
{
closed = 1;
nodes = (
"424 470 LINE",
"488 613 LINE",
"369 664 LINE",
"303 515 LINE"
);
}
);
width = 540;
}
);
unicode = 00F0;
},
{
color = 1;
glyphname = dcaron;
layers = (
{
components = (
{
name = d;
}
);
layerId = "5483B82D-F897-45AA-9987-2D1C58E320E8";
paths = (
{
closed = 1;
nodes = (
"565 589 LINE",
"573 565 OFFCURVE",
"576 542 OFFCURVE",
"576 521 CURVE SMOOTH",
"576 482 OFFCURVE",
"565 446 OFFCURVE",
"550 413 CURVE",
"569 405 OFFCURVE",
"600 398 OFFCURVE",
"622 395 CURVE",
"657 433 OFFCURVE",
"677 498 OFFCURVE",
"677 549 CURVE SMOOTH",
"677 567 OFFCURVE",
"674 583 OFFCURVE",
"669 596 CURVE",
"661 601 OFFCURVE",
"614 602 OFFCURVE",
"572 600 CURVE"
);
}
);
width = 687;
}
);
unicode = 010F;
},
{
color = 7;
glyphname = e;
layers = (
{
anchors = (
{
name = bottom;
position = "{262, 0}";
},
{
name = ogonek;
position = "{337, 0}";
},
{
name = top;
position = "{253, 470}";
}
);
background = {
paths = (
{
closed = 1;
nodes = (
"316 170 LINE SMOOTH",
"436 170 OFFCURVE",
"475 202 OFFCURVE",
"474 283 CURVE SMOOTH",
"473 383 OFFCURVE",
"415 436 OFFCURVE",
"262 436 CURVE SMOOTH",
"92 436 OFFCURVE",
"30 375 OFFCURVE",
"30 205 CURVE SMOOTH",
"30 59 OFFCURVE",
"91 -15 OFFCURVE",
"263 -15 CURVE SMOOTH",
"336 -15 OFFCURVE",
"405 -7 OFFCURVE",
"463 24 CURVE",
"447 132 LINE",
"377 125 OFFCURVE",
"314 123 OFFCURVE",
"282 123 CURVE SMOOTH",
"239 123 OFFCURVE",
"220 135 OFFCURVE",
"214 170 CURVE"
);
}
);
};
layerId = "5483B82D-F897-45AA-9987-2D1C58E320E8";
paths = (
{
closed = 1;
nodes = (
"196 244 OFFCURVE",
"195 251 OFFCURVE",
"195 262 CURVE SMOOTH",
"195 296 OFFCURVE",
"199 345 OFFCURVE",
"208 350 CURVE SMOOTH",
"222 358 OFFCURVE",
"241 362 OFFCURVE",
"261 361 CURVE SMOOTH",
"311 358 OFFCURVE",
"320 318 OFFCURVE",
"312 221 CURVE",
"346 275 LINE",
"325 272 OFFCURVE",
"283 272 OFFCURVE",
"247 272 CURVE SMOOTH",
"192 272 LINE",
"194 193 LINE",
"218 193 OFFCURVE",
"240 193 OFFCURVE",
"340 193 CURVE SMOOTH",
"359 193 OFFCURVE",
"422 194 OFFCURVE",
"473 197 CURVE",
"473 364 OFFCURVE",
"453 469 OFFCURVE",
"265 469 CURVE SMOOTH",
"192 469 OFFCURVE",
"102 445 OFFCURVE",
"74 415 CURVE SMOOTH",
"48 387 OFFCURVE",
"23 303 OFFCURVE",
"23 221 CURVE SMOOTH",
"23 62 OFFCURVE",
"111 -12 OFFCURVE",
"261 -12 CURVE SMOOTH",
"316 -12 OFFCURVE",
"395 -7 OFFCURVE",
"461 24 CURVE",
"446 127 LINE",
"386 123 OFFCURVE",
"350 120 OFFCURVE",
"320 120 CURVE SMOOTH",
"237 120 OFFCURVE",
"195 127 OFFCURVE",
"198 202 CURVE",
"198 237 LINE"
);
}
);
width = 492;
},
{
associatedMasterId = "5483B82D-F897-45AA-9987-2D1C58E320E8";
layerId = "661C7F49-B48C-4C1B-8846-A8B44F45D1B4";
name = bubble;
paths = (
{
closed = 1;
nodes = (
"0 285 LINE",
"0 175 LINE",
"0 0 LINE",
"492 0 LINE",
"480 125 LINE",
"492 173 LINE",
"492 392 LINE",
"442 469 LINE",
"0 469 LINE"
);
}
);
width = 492;
}
);
unicode = 0065;
},
{
color = 7;
glyphname = f;
layers = (
{
background = {
paths = (
{
closed = 1;
nodes = (
"252 0 LINE",
"252 394 LINE",
"81 394 LINE",
"81 0 LINE"
);
},
{
closed = 1;
nodes = (
"358 362 LINE",
"358 460 LINE",
"83 460 LINE",
"6 451 LINE",
"6 362 LINE"
);
},
{
closed = 1;
nodes = (
"222 669 OFFCURVE",
"173 659 OFFCURVE",
"138 633 CURVE SMOOTH",
"102 606 OFFCURVE",
"81 564 OFFCURVE",
"81 501 CURVE SMOOTH",
"81 394 LINE",
"252 394 LINE",
"252 440 OFFCURVE",
"251 475 OFFCURVE",
"252 503 CURVE SMOOTH",
"252 520 OFFCURVE",
"253 540 OFFCURVE",
"259 546 CURVE SMOOTH",
"266 552 OFFCURVE",
"341 551 OFFCURVE",
"374 550 CURVE",
"378 573 OFFCURVE",
"384 641 OFFCURVE",
"384 659 CURVE",
"347 665 OFFCURVE",
"312 669 OFFCURVE",
"278 669 CURVE SMOOTH"
);
}
);
};
layerId = "5483B82D-F897-45AA-9987-2D1C58E320E8";
paths = (
{
closed = 1;
nodes = (
"252 0 LINE",
"252 394 LINE",
"81 394 LINE",
"81 0 LINE"
);
},
{
closed = 1;
nodes = (
"358 362 LINE",
"358 460 LINE",
"83 460 LINE",
"6 451 LINE",
"6 362 LINE"
);
},
{
closed = 1;
nodes = (
"294 635 OFFCURVE",
"158 643 OFFCURVE",
"115 607 CURVE SMOOTH",
"105 599 OFFCURVE",
"81 541 OFFCURVE",
"81 475 CURVE SMOOTH",
"81 394 LINE",
"252 394 LINE",
"252 469 LINE SMOOTH",
"252 486 OFFCURVE",
"253 506 OFFCURVE",
"259 512 CURVE SMOOTH",
"266 518 OFFCURVE",
"331 517 OFFCURVE",
"360 516 CURVE",
"363 540 OFFCURVE",
"370 607 OFFCURVE",
"370 625 CURVE"
);
}
);
width = 360;
},
{
associatedMasterId = "5483B82D-F897-45AA-9987-2D1C58E320E8";
layerId = "B9DFD383-425F-4070-B661-A7C5F4C20962";
name = bubble;
paths = (
{
closed = 1;
nodes = (
"0 489 LINE",
"0 299 LINE",
"41 280 LINE",
"41 0 LINE",
"292 0 LINE",
"292 291 LINE",
"360 317.992 LINE",
"360 570 LINE",
"71 570 LINE"
);
}
);
width = 360;
}
);
unicode = 0066;
},
{
color = 7;
glyphname = g;
layers = (
{
anchors = (
{
name = bottom;
position = "{264, -199}";
},
{
name = ogonek;
position = "{273, -191}";
},
{
name = top;
position = "{283, 470}";
}
);
background = {
paths = (
{
closed = 1;
nodes = (
"176 -216 OFFCURVE",
"372 -202 OFFCURVE",
"403 -176 CURVE SMOOTH",
"457 -131 OFFCURVE",
"498 -60 OFFCURVE",
"498 46 CURVE SMOOTH",
"498 444 LINE",
"431 437 OFFCURVE",
"377 408 OFFCURVE",
"327 364 CURVE",
"327 90 LINE",
"330 71 OFFCURVE",
"330 39 OFFCURVE",
"328 8 CURVE SMOOTH",
"326 -18 OFFCURVE",
"323 -45 OFFCURVE",
"316 -52 CURVE SMOOTH",
"300 -70 OFFCURVE",
"181 -69 OFFCURVE",
"85 -55 CURVE",
"78 -82 OFFCURVE",
"71 -140 OFFCURVE",
"72 -170 CURVE"
);
},
{
closed = 1;
nodes = (
"264 357 OFFCURVE",
"294 355 CURVE SMOOTH",
"318 353 OFFCURVE",
"344 349 OFFCURVE",
"360 344 CURVE",
"498 444 LINE",
"427 456 OFFCURVE",
"351 468 OFFCURVE",
"281 468 CURVE SMOOTH",
"204 468 OFFCURVE",
"129 459 OFFCURVE",
"98 438 CURVE SMOOTH",
"51 405 OFFCURVE",
"25 310 OFFCURVE",
"25 221 CURVE SMOOTH",
"25 80 OFFCURVE",
"83 5 OFFCURVE",
"195 5 CURVE SMOOTH",
"230 5 OFFCURVE",
"299 5 OFFCURVE",
"340 95 CURVE",
"337 150 LINE",
"309 138 OFFCURVE",
"285 130 OFFCURVE",
"260 130 CURVE SMOOTH",
"214 130 OFFCURVE",
"201 158 OFFCURVE",
"201 229 CURVE SMOOTH",
"201 277 OFFCURVE",
"209 339 OFFCURVE",
"225 350 CURVE SMOOTH",
"235 357 OFFCURVE"
);
}
);
};
layerId = "5483B82D-F897-45AA-9987-2D1C58E320E8";
paths = (
{
closed = 1;
nodes = (
"121 -192 OFFCURVE",
"191 -200 OFFCURVE",
"254 -200 CURVE SMOOTH",
"324 -200 OFFCURVE",
"387 -190 OFFCURVE",
"403 -176 CURVE SMOOTH",
"457 -131 OFFCURVE",
"498 -60 OFFCURVE",
"498 46 CURVE SMOOTH",
"498 444 LINE",
"431 437 OFFCURVE",
"377 408 OFFCURVE",
"327 364 CURVE",
"327 90 LINE",
"329 80 OFFCURVE",
"329 65 OFFCURVE",
"329 49 CURVE SMOOTH",
"329 36 OFFCURVE",
"329 22 OFFCURVE",
"328 8 CURVE SMOOTH",
"326 -18 OFFCURVE",
"323 -45 OFFCURVE",
"316 -52 CURVE SMOOTH",
"308 -61 OFFCURVE",
"272 -66 OFFCURVE",
"226 -66 CURVE SMOOTH",
"183 -66 OFFCURVE",
"131 -62 OFFCURVE",
"85 -55 CURVE",
"78 -82 OFFCURVE",
"71 -140 OFFCURVE",
"72 -170 CURVE"
);
},
{
closed = 1;
nodes = (
"232 355 OFFCURVE",
"246 356 OFFCURVE",
"264 356 CURVE SMOOTH",
"273 356 OFFCURVE",
"284 356 OFFCURVE",
"294 355 CURVE SMOOTH",
"318 353 OFFCURVE",
"344 349 OFFCURVE",
"360 344 CURVE",
"498 444 LINE",
"427 456 OFFCURVE",
"351 468 OFFCURVE",
"281 468 CURVE SMOOTH",
"204 468 OFFCURVE",
"129 459 OFFCURVE",
"98 438 CURVE SMOOTH",
"51 405 OFFCURVE",
"25 310 OFFCURVE",
"25 221 CURVE SMOOTH",
"25 80 OFFCURVE",
"83 5 OFFCURVE",
"195 5 CURVE SMOOTH",
"230 5 OFFCURVE",
"307 22 OFFCURVE",
"340 95 CURVE",
"337 146 LINE",
"316 136 OFFCURVE",
"285 130 OFFCURVE",
"260 130 CURVE SMOOTH",
"214 130 OFFCURVE",
"201 158 OFFCURVE",
"201 229 CURVE SMOOTH",
"201 277 OFFCURVE",
"209 339 OFFCURVE",
"225 350 CURVE SMOOTH"
);
}
);
width = 538;
},
{
associatedMasterId = "5483B82D-F897-45AA-9987-2D1C58E320E8";
layerId = "0CEE70F8-1467-45E2-BCD2-E14FBF4CA9F1";
name = bubble;
paths = (
{
closed = 1;
nodes = (
"0 417 LINE",
"0 290 LINE",
"0 95 LINE",
"61 0 LINE",
"33 -270 LINE",
"538 -234 LINE",
"538 277 LINE",
"536 484 LINE",
"254 504 LINE",
"96 504 LINE"
);
}
);
width = 538;
}
);
unicode = 0067;
},
{
color = 7;
glyphname = h;
layers = (
{
anchors = (
{
name = bottom;
position = "{270, 0}";
}
);
layerId = "5483B82D-F897-45AA-9987-2D1C58E320E8";
paths = (
{
closed = 1;
nodes = (
"212 0 LINE",
"212 390 LINE",
"207 394 LINE",
"211 413 OFFCURVE",
"212 454 OFFCURVE",
"212 490 CURVE SMOOTH",
"212 607 LINE",
"41 600 LINE",
"41 0 LINE"
);
},
{
closed = 1;
nodes = (
"464 457 OFFCURVE",
"416 470 OFFCURVE",
"371 470 CURVE SMOOTH",
"292 470 OFFCURVE",
"231 431 OFFCURVE",
"180 358 CURVE",
"192 306 LINE",
"210 319 OFFCURVE",
"243 328 OFFCURVE",
"270 330 CURVE SMOOTH",
"292 332 OFFCURVE",
"323 330 OFFCURVE",
"328 323 CURVE SMOOTH",
"334 314 OFFCURVE",
"333 262 OFFCURVE",
"333 240 CURVE SMOOTH",
"333 0 LINE",
"504 0 LINE",
"504 242 LINE SMOOTH",
"504 365 OFFCURVE",
"498 417 OFFCURVE",
"486 431 CURVE SMOOTH"
);
}
);
width = 542;
},
{
associatedMasterId = "5483B82D-F897-45AA-9987-2D1C58E320E8";
layerId = "BAA3EF04-C09E-4F12-AC8A-47BACE82DAAA";
name = bubble;
paths = (
{
closed = 1;
nodes = (
"0 290 LINE",
"0 0 LINE",
"542 0 LINE",
"542 277 LINE",
"528 447 LINE",
"443 510 LINE",
"269 510 LINE",
"0 570 LINE"
);
}
);
width = 542;
}
);
unicode = 0068;
},
{
color = 7;
glyphname = i;
layers = (
{
anchors = (
{
name = bottom;
position = "{125, 0}";
},
{
name = ogonek;
position = "{186, 0}";
},
{
name = top;
position = "{130, 691}";
}
);
layerId = "5483B82D-F897-45AA-9987-2D1C58E320E8";
paths = (
{
closed = 1;
nodes = (
"215 0 LINE",
"215 460 LINE",
"44 460 LINE",
"44 0 LINE"
);
},
{
closed = 1;
nodes = (
"175 517 OFFCURVE",
"212 552 OFFCURVE",
"212 595 CURVE SMOOTH",
"212 638 OFFCURVE",
"175 673 OFFCURVE",
"130 673 CURVE SMOOTH",
"84 673 OFFCURVE",
"47 638 OFFCURVE",
"47 595 CURVE SMOOTH",
"47 552 OFFCURVE",
"84 517 OFFCURVE",
"130 517 CURVE SMOOTH"
);
}
);
width = 259;
},
{
associatedMasterId = "5483B82D-F897-45AA-9987-2D1C58E320E8";
background = {
paths = (
{
closed = 1;
nodes = (
"218 0 LINE",
"218 456 LINE",
"37 456 LINE",
"37 0 LINE"
);
}
);
};
layerId = "4D65D319-733D-4EC3-BAB2-6871754DA15A";
name = bubble;
paths = (
{
closed = 1;
nodes = (
"0 290 LINE",
"0 0 LINE",
"259 0 LINE",
"259 277 LINE",
"259 570 LINE",
"0 570 LINE"
);
}
);
width = 259;
}
);
unicode = 0069;
},
{
color = 1;
glyphname = idotless;
layers = (
{
anchors = (
{
name = bottom;
position = "{129, 0}";
},
{
name = ogonek;
position = "{190, 0}";
},
{
name = top;
position = "{129, 460}";
}
);
layerId = "5483B82D-F897-45AA-9987-2D1C58E320E8";
paths = (
{
closed = 1;
nodes = (
"215 0 LINE",
"215 460 LINE",
"44 460 LINE",
"44 0 LINE"
);
}
);
width = 259;
}
);
unicode = 0131;
},
{
color = 7;
glyphname = j;
layers = (
{
layerId = "5483B82D-F897-45AA-9987-2D1C58E320E8";
paths = (
{
closed = 1;
nodes = (
"31 -66 OFFCURVE",
"-27 -69 OFFCURVE",
"-61 -70 CURVE",
"-64 -106 OFFCURVE",
"-62 -142 OFFCURVE",
"-57 -176 CURVE",
"18 -194 OFFCURVE",
"126 -190 OFFCURVE",
"159 -149 CURVE SMOOTH",
"195 -104 OFFCURVE",
"214 -28 OFFCURVE",
"214 62 CURVE SMOOTH",
"214 460 LINE",
"43 460 LINE",
"43 4 LINE SMOOTH",
"43 -18 OFFCURVE",
"44 -47 OFFCURVE",
"38 -56 CURVE SMOOTH"
);
},
{
closed = 1;
nodes = (
"175 517 OFFCURVE",
"212 552 OFFCURVE",
"212 595 CURVE SMOOTH",
"212 638 OFFCURVE",
"175 673 OFFCURVE",
"130 673 CURVE SMOOTH",
"84 673 OFFCURVE",
"47 638 OFFCURVE",
"47 595 CURVE SMOOTH",
"47 552 OFFCURVE",
"84 517 OFFCURVE",
"130 517 CURVE SMOOTH"
);
}
);
width = 258;
},
{
associatedMasterId = "5483B82D-F897-45AA-9987-2D1C58E320E8";
layerId = "13B9124B-028E-4C7C-928C-502D2C85250E";
name = bubble;
paths = (
{
closed = 1;
nodes = (
"0 290 LINE",
"0 -18 LINE",
"-87 -37 LINE",
"-87 -214 LINE",
"141 -223 LINE",
"228 -112 LINE",
"258 277 LINE",
"258 570 LINE",
"0 570 LINE"
);
}
);
width = 258;
}
);
unicode = 006A;
},
{
color = 7;
glyphname = k;
layers = (
{
anchors = (
{
name = bottom;
position = "{273, 0}";
},
{
name = ogonek;
position = "{428, 0}";
},
{
name = top;
position = "{127, 600}";
}
);
layerId = "5483B82D-F897-45AA-9987-2D1C58E320E8";
paths = (
{
closed = 1;
nodes = (
"175 230 LINE",
"216 230 OFFCURVE",
"234 217 OFFCURVE",
"249 187 CURVE SMOOTH",
"344 0 LINE",
"530 0 LINE",
"430 170 LINE SMOOTH",
"407 209 OFFCURVE",
"376 266 OFFCURVE",
"319 290 CURVE",
"334 219 LINE",
"383 242 OFFCURVE",
"408 272 OFFCURVE",
"428 305 CURVE SMOOTH",
"525 461 LINE",
"338 460 LINE",
"253 307 LINE SMOOTH",
"233 272 OFFCURVE",
"215 261 OFFCURVE",
"175 261 CURVE"
);
},
{
closed = 1;
nodes = (
"212 0 LINE",
"212 607 LINE",
"41 600 LINE",
"41 0 LINE"
);
}
);
width = 525;
},
{
associatedMasterId = "5483B82D-F897-45AA-9987-2D1C58E320E8";
layerId = "10C992B8-296B-41B1-8642-D2D3FC73B141";
name = bubble;
paths = (
{
closed = 1;
nodes = (
"0 290 LINE",
"0 0 LINE",
"525 0 LINE",
"525 77 LINE",
"470 250 LINE",
"525 383 LINE",
"525 492 LINE",
"393 492 LINE",
"274 500 LINE",
"0 570 LINE"
);
}
);
width = 525;
}
);
unicode = 006B;
},
{
color = 7;
glyphname = l;
layers = (
{
anchors = (
{
name = bottom;
position = "{130, 0}";
},
{
name = ogonek;
position = "{188, 0}";
},
{
name = top;
position = "{130, 604}";
}
);
layerId = "5483B82D-F897-45AA-9987-2D1C58E320E8";
paths = (
{
closed = 1;
nodes = (
"215 0 LINE",
"215 607 LINE",
"44 600 LINE",
"44 0 LINE"
);
}
);
width = 259;
},
{
associatedMasterId = "5483B82D-F897-45AA-9987-2D1C58E320E8";
layerId = "061E77E5-7CE2-41B1-ACB6-567A17CA35CC";
name = bubble;
paths = (
{
closed = 1;
nodes = (
"0 290 LINE",
"0 0 LINE",
"259 0 LINE",
"259 277 LINE",
"259 570 LINE",
"0 570 LINE"
);
}
);
width = 259;
}
);
unicode = 006C;
},
{
color = 1;
glyphname = lcaron;
layers = (
{
components = (
{
name = l;
}
);
layerId = "5483B82D-F897-45AA-9987-2D1C58E320E8";
paths = (
{
closed = 1;
nodes = (
"282 589 LINE",
"290 565 OFFCURVE",
"293 542 OFFCURVE",
"293 521 CURVE SMOOTH",
"293 482 OFFCURVE",
"282 446 OFFCURVE",
"267 413 CURVE",
"286 405 OFFCURVE",
"317 398 OFFCURVE",
"339 395 CURVE",
"374 433 OFFCURVE",
"394 498 OFFCURVE",
"394 549 CURVE SMOOTH",
"394 567 OFFCURVE",
"391 583 OFFCURVE",
"386 596 CURVE",
"378 601 OFFCURVE",
"331 602 OFFCURVE",
"289 600 CURVE"
);
}
);
width = 404;
}
);
unicode = 013E;
},
{
color = 1;
glyphname = lslash;
layers = (
{
components = (
{
name = l;
transform = "{1, 0, 0, 1, 25, 0}";
}
);
layerId = "5483B82D-F897-45AA-9987-2D1C58E320E8";
paths = (
{
closed = 1;
nodes = (
"313 343 LINE",
"313 415 LINE",
"155 353 LINE",
"139 350 LINE",
"0 295 LINE",
"0 224 LINE"
);
}
);
width = 313;
}
);
unicode = 0142;
},
{
color = 7;
glyphname = m;
layers = (
{
anchors = (
{
name = top;
position = "{430, 470}";
}
);
background = {
paths = (
{
closed = 1;
nodes = (
"212 0 LINE",
"212 352 LINE",
"202 370 LINE",
"180 460 LINE",
"41 460 LINE",
"41 0 LINE"
);
},
{
closed = 1;
nodes = (
"742 456 OFFCURVE",
"688 470 OFFCURVE",
"643 470 CURVE SMOOTH",
"583 470 OFFCURVE",
"510 441 OFFCURVE",
"462 358 CURVE",
"474 306 LINE",
"492 319 OFFCURVE",
"525 328 OFFCURVE",
"552 330 CURVE SMOOTH",
"571 332 OFFCURVE",
"595 329 OFFCURVE",
"600 323 CURVE SMOOTH",
"606 315 OFFCURVE",
"605 262 OFFCURVE",
"605 225 CURVE SMOOTH",
"605 0 LINE",
"776 0 LINE",
"776 242 LINE SMOOTH",
"776 365 OFFCURVE",
"770 413 OFFCURVE",
"760 428 CURVE SMOOTH"
);
},
{
closed = 1;
nodes = (
"460 456 OFFCURVE",
"406 470 OFFCURVE",
"361 470 CURVE SMOOTH",
"301 470 OFFCURVE",
"228 441 OFFCURVE",
"180 358 CURVE",
"192 306 LINE",
"210 319 OFFCURVE",
"243 328 OFFCURVE",
"270 330 CURVE SMOOTH",
"289 332 OFFCURVE",
"313 329 OFFCURVE",
"318 323 CURVE SMOOTH",
"324 315 OFFCURVE",
"323 262 OFFCURVE",
"323 225 CURVE SMOOTH",
"323 0 LINE",
"494 0 LINE",
"494 242 LINE SMOOTH",
"494 365 OFFCURVE",
"488 413 OFFCURVE",
"478 428 CURVE SMOOTH"
);
}
);
};
layerId = "5483B82D-F897-45AA-9987-2D1C58E320E8";
paths = (
{
closed = 1;
nodes = (
"212 0 LINE",
"212 352 LINE",
"202 370 LINE",
"180 460 LINE",
"41 460 LINE",
"41 0 LINE"
);
},
{
closed = 1;
nodes = (
"460 456 OFFCURVE",
"406 470 OFFCURVE",
"361 470 CURVE SMOOTH",
"301 470 OFFCURVE",
"228 441 OFFCURVE",
"180 358 CURVE",
"192 306 LINE",
"210 319 OFFCURVE",
"243 328 OFFCURVE",
"270 330 CURVE SMOOTH",
"289 332 OFFCURVE",
"310 329 OFFCURVE",
"316 323 CURVE SMOOTH",
"321 318 OFFCURVE",
"323 303 OFFCURVE",
"323 285 CURVE SMOOTH",
"323 266 OFFCURVE",
"323 244 OFFCURVE",
"323 225 CURVE SMOOTH",
"323 0 LINE",
"494 0 LINE",
"494 242 LINE SMOOTH",
"494 365 OFFCURVE",
"488 413 OFFCURVE",
"478 428 CURVE SMOOTH"
);
},
{
closed = 1;
nodes = (
"742 456 OFFCURVE",
"688 470 OFFCURVE",
"643 470 CURVE SMOOTH",
"583 470 OFFCURVE",
"510 441 OFFCURVE",
"462 358 CURVE",
"474 306 LINE",
"492 319 OFFCURVE",
"525 328 OFFCURVE",
"552 330 CURVE SMOOTH",
"571 332 OFFCURVE",
"592 329 OFFCURVE",
"598 323 CURVE SMOOTH",
"603 318 OFFCURVE",
"605 300 OFFCURVE",
"605 279 CURVE SMOOTH",
"605 261 OFFCURVE",
"605 242 OFFCURVE",
"605 225 CURVE SMOOTH",
"605 0 LINE",
"776 0 LINE",
"776 242 LINE SMOOTH",
"776 365 OFFCURVE",
"770 413 OFFCURVE",
"760 428 CURVE SMOOTH"
);
}
);
width = 814;
},
{
associatedMasterId = "5483B82D-F897-45AA-9987-2D1C58E320E8";
layerId = "F63F8829-7371-468A-BF7E-C3A17055EF2D";
name = bubble;
paths = (
{
closed = 1;
nodes = (
"177 486 LINE",
"0 486 LINE",
"0 290 LINE",
"0 0 LINE",
"814 0 LINE",
"814 277 LINE",
"814 461 LINE",
"592 510 LINE"
);
}
);
width = 814;
}
);
unicode = 006D;
},
{
color = 7;
glyphname = n;
layers = (
{
anchors = (
{
name = bottom;
position = "{272, 0}";
},
{
name = ogonek;
position = "{452, 0}";
},
{
name = top;
position = "{278, 470}";
}
);
background = {
paths = (
{
closed = 1;
nodes = (
"504 0 LINE",
"504 242 LINE SMOOTH",
"504 365 OFFCURVE",
"500 406 OFFCURVE",
"486 436 CURVE",
"455 458 OFFCURVE",
"416 470 OFFCURVE",
"371 470 CURVE SMOOTH",
"292 470 OFFCURVE",
"231 431 OFFCURVE",
"180 358 CURVE",
"192 306 LINE",
"210 319 OFFCURVE",
"243 328 OFFCURVE",
"270 330 CURVE SMOOTH",
"309 333 OFFCURVE",
"339 329 OFFCURVE",
"390 307 CURVE",
"328 397 LINE",
"333 351 OFFCURVE",
"333 293 OFFCURVE",
"333 225 CURVE SMOOTH",
"333 0 LINE"
);
},
{
closed = 1;
nodes = (
"212 0 LINE",
"212 352 LINE",
"202 370 LINE",
"180 460 LINE",
"41 460 LINE",
"41 0 LINE"
);
}
);
};
layerId = "5483B82D-F897-45AA-9987-2D1C58E320E8";
paths = (
{
closed = 1;
nodes = (
"212 0 LINE",
"212 352 LINE",
"202 370 LINE",
"180 460 LINE",
"41 460 LINE",
"41 0 LINE"
);
},
{
closed = 1;
nodes = (
"464 457 OFFCURVE",
"416 470 OFFCURVE",
"371 470 CURVE SMOOTH",
"292 470 OFFCURVE",
"231 431 OFFCURVE",
"180 358 CURVE",
"192 306 LINE",
"210 319 OFFCURVE",
"243 328 OFFCURVE",
"270 330 CURVE SMOOTH",
"292 332 OFFCURVE",
"320 332 OFFCURVE",
"328 321 CURVE SMOOTH",
"331 316 OFFCURVE",
"333 299 OFFCURVE",
"333 281 CURVE SMOOTH",
"333 266 OFFCURVE",
"333 250 OFFCURVE",
"333 240 CURVE SMOOTH",
"333 0 LINE",
"504 0 LINE",
"504 242 LINE SMOOTH",
"504 365 OFFCURVE",
"498 417 OFFCURVE",
"486 431 CURVE SMOOTH"
);
}
);
width = 542;
},
{
associatedMasterId = "5483B82D-F897-45AA-9987-2D1C58E320E8";
layerId = "0BF27659-9F3E-4087-933A-053A8678BB96";
name = bubble;
paths = (
{
closed = 1;
nodes = (
"161 493 LINE",
"0 486 LINE",
"0 290 LINE",
"0 0 LINE",
"542 0 LINE",
"542 277 LINE",
"542 469 LINE",
"321 514 LINE"
);
}
);
width = 542;
}
);
unicode = 006E;
},
{
color = 1;
glyphname = eng;
layers = (
{
components = (
{
name = n;
}
);
layerId = "5483B82D-F897-45AA-9987-2D1C58E320E8";
paths = (
{
closed = 1;
nodes = (
"434 -222 OFFCURVE",
"506 -106 OFFCURVE",
"506 0 CURVE SMOOTH",
"506 160 LINE",
"335 160 LINE",
"335 -123 LINE",
"433 -29 LINE",
"398 -56 OFFCURVE",
"309 -68 OFFCURVE",
"231 -70 CURVE",
"228 -106 OFFCURVE",
"230 -142 OFFCURVE",
"235 -176 CURVE"
);
}
);
width = 546;
}
);
unicode = 014B;
},
{
color = 10;
glyphname = o;
layers = (
{
anchors = (
{
name = bottom;
position = "{265, 0}";
},
{
name = horn;
position = "{398, 404}";
},
{
name = ogonek;
position = "{326, 0}";
},
{
name = top;
position = "{265, 470}";
}
);
background = {
paths = (
{
closed = 1;
nodes = (
"200 470 OFFCURVE",
"124 452 OFFCURVE",
"64 414 CURVE",
"49 391 OFFCURVE",
"24 316 OFFCURVE",
"24 222 CURVE SMOOTH",
"24 57 OFFCURVE",
"106 -13 OFFCURVE",
"263 -13 CURVE SMOOTH",
"429 -13 OFFCURVE",
"506 66 OFFCURVE",
"506 239 CURVE SMOOTH",
"506 397 OFFCURVE",
"441 470 OFFCURVE",
"267 470 CURVE SMOOTH"
);
},
{
closed = 1;
nodes = (
"326 142 OFFCURVE",
"317 104 OFFCURVE",
"266 104 CURVE SMOOTH",
"216 104 OFFCURVE",
"204 140 OFFCURVE",
"204 228 CURVE SMOOTH",
"204 299 OFFCURVE",
"212 358 OFFCURVE",
"229 394 CURVE",
"139 334 LINE",
"172 346 OFFCURVE",
"236 356 OFFCURVE",
"264 356 CURVE SMOOTH",
"317 356 OFFCURVE",
"326 321 OFFCURVE",
"326 229 CURVE SMOOTH"
);
}
);
};
layerId = "5483B82D-F897-45AA-9987-2D1C58E320E8";
paths = (
{
closed = 1;
nodes = (
"429 -13 OFFCURVE",
"506 66 OFFCURVE",
"506 239 CURVE SMOOTH",
"506 397 OFFCURVE",
"441 470 OFFCURVE",
"267 470 CURVE SMOOTH",
"200 470 OFFCURVE",
"99 446 OFFCURVE",
"67 410 CURVE SMOOTH",
"45 385 OFFCURVE",
"24 316 OFFCURVE",
"24 222 CURVE SMOOTH",
"24 57 OFFCURVE",
"106 -13 OFFCURVE",
"263 -13 CURVE SMOOTH"
);
},
{
closed = 1;
nodes = (
"213 104 OFFCURVE",
"200 140 OFFCURVE",
"200 228 CURVE SMOOTH",
"200 276 OFFCURVE",
"206 339 OFFCURVE",
"218 349 CURVE SMOOTH",
"223 355 OFFCURVE",
"252 356 OFFCURVE",
"264 356 CURVE SMOOTH",
"320 356 OFFCURVE",
"329 321 OFFCURVE",
"329 229 CURVE SMOOTH",
"329 142 OFFCURVE",
"320 104 OFFCURVE",
"266 104 CURVE SMOOTH"
);
}
);
width = 530;
},
{
associatedMasterId = "5483B82D-F897-45AA-9987-2D1C58E320E8";
layerId = "6376D5F6-2BE6-4F61-B4BF-02952742754F";
name = bubble;
paths = (
{
closed = 1;
nodes = (
"13 432 LINE",
"0 290 LINE",
"0 83 LINE",
"81 0 LINE",
"441 0 LINE",
"530 95 LINE",
"530 277 LINE",
"517 421 LINE",
"367 506 LINE",
"190 522 LINE"
);
}
);
width = 530;
}
);
unicode = 006F;
},
{
color = 1;
glyphname = oslash;
layers = (
{
anchors = (
{
name = top;
position = "{267, 498}";
}
);
components = (
{
name = o;
}
);
layerId = "5483B82D-F897-45AA-9987-2D1C58E320E8";
paths = (
{
closed = 1;
nodes = (
"150 126 LINE",
"78 -36 LINE",
"217 -97 LINE",
"286 57 LINE"
);
},
{
closed = 1;
nodes = (
"422 350 LINE",
"486 493 LINE",
"347 554 LINE",
"281 405 LINE"
);
}
);
width = 534;
}
);
unicode = 00F8;
},
{
color = 1;
glyphname = oe;
layers = (
{
anchors = (
{
name = bottom;
position = "{265, 0}";
},
{
name = horn;
position = "{398, 404}";
},
{
name = ogonek;
position = "{326, 0}";
},
{
name = top;
position = "{265, 470}";
}
);
layerId = "5483B82D-F897-45AA-9987-2D1C58E320E8";
paths = (
{
closed = 1;
nodes = (
"543 120 OFFCURVE",
"502 126 OFFCURVE",
"501 193 CURVE",
"643 193 LINE SMOOTH",
"662 193 OFFCURVE",
"725 194 OFFCURVE",
"776 197 CURVE",
"776 364 OFFCURVE",
"756 469 OFFCURVE",
"568 469 CURVE SMOOTH",
"517 469 OFFCURVE",
"457 457 OFFCURVE",
"417 440 CURVE",
"380 460 OFFCURVE",
"331 470 OFFCURVE",
"267 470 CURVE SMOOTH",
"200 470 OFFCURVE",
"99 446 OFFCURVE",
"67 410 CURVE SMOOTH",
"45 385 OFFCURVE",
"24 316 OFFCURVE",
"24 222 CURVE SMOOTH",
"24 57 OFFCURVE",
"106 -13 OFFCURVE",
"263 -13 CURVE SMOOTH",
"328 -13 OFFCURVE",
"379 -1 OFFCURVE",
"417 24 CURVE",
"455 0 OFFCURVE",
"505 -12 OFFCURVE",
"564 -12 CURVE SMOOTH",
"619 -12 OFFCURVE",
"698 -7 OFFCURVE",
"764 24 CURVE",
"749 127 LINE",
"689 123 OFFCURVE",
"653 120 OFFCURVE",
"623 120 CURVE SMOOTH"
);
},
{
closed = 1;
nodes = (
"525 358 OFFCURVE",
"544 362 OFFCURVE",
"564 361 CURVE SMOOTH",
"604 359 OFFCURVE",
"618 333 OFFCURVE",
"618 273 CURVE",
"597 272 OFFCURVE",
"572 272 OFFCURVE",
"550 272 CURVE SMOOTH",
"498 272 LINE",
"499 305 OFFCURVE",
"503 345 OFFCURVE",
"511 350 CURVE"
);
},
{
closed = 1;
nodes = (
"213 104 OFFCURVE",
"200 140 OFFCURVE",
"200 228 CURVE SMOOTH",
"200 276 OFFCURVE",
"206 339 OFFCURVE",
"218 349 CURVE",
"223 355 OFFCURVE",
"252 356 OFFCURVE",
"264 356 CURVE SMOOTH",
"320 356 OFFCURVE",
"329 321 OFFCURVE",
"329 229 CURVE SMOOTH",
"329 142 OFFCURVE",
"320 104 OFFCURVE",
"266 104 CURVE SMOOTH"
);
}
);
width = 795;
}
);
leftMetricsKey = o;
rightMetricsKey = e;
unicode = 0153;
},
{
color = 7;
glyphname = p;
layers = (
{
background = {
paths = (
{
closed = 1;
nodes = (
"275 470 OFFCURVE",
"214 426 OFFCURVE",
"185 366 CURVE",
"196 339 LINE",
"224 348 OFFCURVE",
"250 349 OFFCURVE",
"268 349 CURVE SMOOTH",
"329 349 OFFCURVE",
"338 305 OFFCURVE",
"338 239 CURVE SMOOTH",
"338 205 OFFCURVE",
"334 159 OFFCURVE",
"321 117 CURVE",
"312 116 OFFCURVE",
"301 116 OFFCURVE",
"291 116 CURVE SMOOTH",
"235 116 OFFCURVE",
"173 123 OFFCURVE",
"139 134 CURVE",
"41 30 LINE",
"123 10 OFFCURVE",
"200 0 OFFCURVE",
"269 0 CURVE SMOOTH",
"345 0 OFFCURVE",
"428 16 OFFCURVE",
"458 40 CURVE SMOOTH",
"482 60 OFFCURVE",
"514 128 OFFCURVE",
"514 257 CURVE SMOOTH",
"514 426 OFFCURVE",
"443 470 OFFCURVE",
"357 470 CURVE SMOOTH"
);
}
);
};
layerId = "5483B82D-F897-45AA-9987-2D1C58E320E8";
paths = (
{
closed = 1;
nodes = (
"212 -140 LINE",
"212 353 LINE",
"203 371 LINE",
"181 460 LINE",
"41 460 LINE",
"41 -147 LINE"
);
},
{
closed = 1;
nodes = (
"275 470 OFFCURVE",
"214 426 OFFCURVE",
"185 366 CURVE",
"196 339 LINE",
"224 348 OFFCURVE",
"250 349 OFFCURVE",
"268 349 CURVE SMOOTH",
"329 349 OFFCURVE",
"338 305 OFFCURVE",
"338 239 CURVE SMOOTH",
"338 205 OFFCURVE",
"333 134 OFFCURVE",
"317 122 CURVE SMOOTH",
"309 116 OFFCURVE",
"276 116 OFFCURVE",
"240 118 CURVE SMOOTH",
"202 121 OFFCURVE",
"160 127 OFFCURVE",
"139 134 CURVE",
"41 30 LINE",
"123 10 OFFCURVE",
"200 0 OFFCURVE",
"269 0 CURVE SMOOTH",
"345 0 OFFCURVE",
"428 16 OFFCURVE",
"458 40 CURVE SMOOTH",
"482 60 OFFCURVE",
"514 128 OFFCURVE",
"514 257 CURVE SMOOTH",
"514 426 OFFCURVE",
"443 470 OFFCURVE",
"357 470 CURVE SMOOTH"
);
}
);
width = 540;
},
{
associatedMasterId = "5483B82D-F897-45AA-9987-2D1C58E320E8";
layerId = "7C53B18A-93C4-461A-B7A4-39C35843054F";
name = bubble;
paths = (
{
closed = 1;
nodes = (
"0 508 LINE",
"0 290 LINE",
"0 -180 LINE",
"267 -180 LINE",
"267 -53 LINE",
"540 8 LINE",
"540 277 LINE",
"540 487 LINE"
);
}
);
width = 540;
}
);
unicode = 0070;
},
{
color = 7;
glyphname = q;
layers = (
{
background = {
paths = (
{
closed = 1;
nodes = (
"232 355 OFFCURVE",
"246 356 OFFCURVE",
"264 356 CURVE SMOOTH",
"273 356 OFFCURVE",
"284 356 OFFCURVE",
"294 355 CURVE SMOOTH",
"318 353 OFFCURVE",
"344 349 OFFCURVE",
"360 344 CURVE",
"498 444 LINE",
"427 456 OFFCURVE",
"351 468 OFFCURVE",
"281 468 CURVE SMOOTH",
"204 468 OFFCURVE",
"129 459 OFFCURVE",
"98 438 CURVE SMOOTH",
"51 405 OFFCURVE",
"25 310 OFFCURVE",
"25 221 CURVE SMOOTH",
"25 80 OFFCURVE",
"83 5 OFFCURVE",
"195 5 CURVE SMOOTH",
"230 5 OFFCURVE",
"299 5 OFFCURVE",
"340 95 CURVE",
"337 146 LINE",
"316 136 OFFCURVE",
"285 130 OFFCURVE",
"260 130 CURVE SMOOTH",
"214 130 OFFCURVE",
"201 158 OFFCURVE",
"201 229 CURVE SMOOTH",
"201 277 OFFCURVE",
"209 339 OFFCURVE",
"225 350 CURVE SMOOTH"
);
}
);
};
layerId = "5483B82D-F897-45AA-9987-2D1C58E320E8";
paths = (
{
closed = 1;
nodes = (
"498 -140 LINE",
"498 439 LINE",
"441 432 OFFCURVE",
"371 424 OFFCURVE",
"327 388 CURVE",
"327 83 LINE",
"342 74 LINE",
"334 47 OFFCURVE",
"327 20 OFFCURVE",
"327 -15 CURVE SMOOTH",
"327 -147 LINE"
);
},
{
closed = 1;
nodes = (
"225 356 OFFCURVE",
"258 357 OFFCURVE",
"291 355 CURVE SMOOTH",
"321 353 OFFCURVE",
"350 348 OFFCURVE",
"360 344 CURVE",
"498 439 LINE",
"426 458 OFFCURVE",
"350 469 OFFCURVE",
"277 469 CURVE SMOOTH",
"209 469 OFFCURVE",
"131 460 OFFCURVE",
"90 432 CURVE SMOOTH",
"55 408 OFFCURVE",
"25 319 OFFCURVE",
"25 217 CURVE SMOOTH",
"25 61 OFFCURVE",
"101 -6 OFFCURVE",
"199 -6 CURVE SMOOTH",
"236 -6 OFFCURVE",
"311 10 OFFCURVE",
"346 91 CURVE",
"334 144 LINE",
"314 138 OFFCURVE",
"293 133 OFFCURVE",
"271 133 CURVE SMOOTH",
"225 133 OFFCURVE",
"201 158 OFFCURVE",
"201 229 CURVE SMOOTH",
"201 252 OFFCURVE",
"203 276 OFFCURVE",
"206 297 CURVE SMOOTH",
"209 320 OFFCURVE",
"214 339 OFFCURVE",
"220 348 CURVE SMOOTH"
);
}
);
width = 538;
},
{
associatedMasterId = "5483B82D-F897-45AA-9987-2D1C58E320E8";
layerId = "2345ECAD-0F87-47A6-A45C-E27C838FEC81";
name = bubble;
paths = (
{
closed = 1;
nodes = (
"86 478 LINE",
"0 435 LINE",
"0 290 LINE",
"0 75 LINE",
"108 -32 LINE",
"283 -51 LINE",
"270 -170 LINE",
"538 -170 LINE",
"538 277 LINE",
"538 478 LINE",
"206 495 LINE"
);
}
);
width = 538;
}
);
unicode = 0071;
},
{
color = 7;
glyphname = r;
layers = (
{
anchors = (
{
name = bottom;
position = "{126, 0}";
},
{
name = ogonek;
position = "{178, 0}";
},
{
name = top;
position = "{217, 470}";
}
);
layerId = "5483B82D-F897-45AA-9987-2D1C58E320E8";
paths = (
{
closed = 1;
nodes = (
"212 0 LINE",
"212 355 LINE",
"184 460 LINE",
"41 460 LINE",
"41 0 LINE"
);
},
{
closed = 1;
nodes = (
"218 316 OFFCURVE",
"314 318 OFFCURVE",
"361 316 CURVE",
"366 343 OFFCURVE",
"375 430 OFFCURVE",
"375 460 CURVE",
"366 465 OFFCURVE",
"344 470 OFFCURVE",
"326 470 CURVE SMOOTH",
"277 470 OFFCURVE",
"207 404 OFFCURVE",
"167 327 CURVE",
"172 302 LINE"
);
},
{
closed = 1;
nodes = (
"193 371 LINE",
"218 371 LINE",
"218 386 LINE",
"193 386 LINE"
);
}
);
width = 379;
},
{
associatedMasterId = "5483B82D-F897-45AA-9987-2D1C58E320E8";
layerId = "47E9767C-1389-40D1-8424-464FB9621E53";
name = bubble;
paths = (
{
closed = 1;
nodes = (
"0 494 LINE",
"0 256 LINE",
"0 0 LINE",
"262 0 LINE",
"262 241 LINE",
"379 268 LINE",
"379 502 LINE"
);
}
);
width = 379;
}
);
unicode = 0072;
},
{
color = 7;
glyphname = s;
layers = (
{
anchors = (
{
name = bottom;
position = "{198, 0}";
},
{
name = ogonek;
position = "{174, 0}";
},
{
name = top;
position = "{215, 470}";
}
);
background = {
paths = (
{
closed = 1;
nodes = (
"210 301 OFFCURVE",
"183 303 OFFCURVE",
"179 328 CURVE SMOOTH",
"178 335 OFFCURVE",
"180 345 OFFCURVE",
"183 348 CURVE SMOOTH",
"186 351 OFFCURVE",
"202 352 OFFCURVE",
"225 352 CURVE SMOOTH",
"270 352 OFFCURVE",
"339 348 OFFCURVE",
"376 345 CURVE",
"381 361 OFFCURVE",
"390 433 OFFCURVE",
"390 457 CURVE",
"350 464 OFFCURVE",
"287 469 OFFCURVE",
"223 469 CURVE SMOOTH",
"167 469 OFFCURVE",
"84 456 OFFCURVE",
"62 434 CURVE SMOOTH",
"43 415 OFFCURVE",
"29 368 OFFCURVE",
"29 327 CURVE SMOOTH",
"29 245 OFFCURVE",
"75 204 OFFCURVE",
"125 186 CURVE SMOOTH",
"164 174 OFFCURVE",
"231 159 OFFCURVE",
"245 145 CURVE SMOOTH",
"254 136 OFFCURVE",
"253 107 OFFCURVE",
"245 102 CURVE SMOOTH",
"232 94 OFFCURVE",
"143 104 OFFCURVE",
"49 117 CURVE",
"42 94 OFFCURVE",
"32 31 OFFCURVE",
"29 3 CURVE",
"129 -16 OFFCURVE",
"324 -18 OFFCURVE",
"362 18 CURVE SMOOTH",
"383 38 OFFCURVE",
"404 97 OFFCURVE",
"404 145 CURVE SMOOTH",
"404 231 OFFCURVE",
"356 259 OFFCURVE",
"282 281 CURVE SMOOTH"
);
}
);
};
layerId = "5483B82D-F897-45AA-9987-2D1C58E320E8";
paths = (
{
closed = 1;
nodes = (
"237 290 OFFCURVE",
"207 314 CURVE SMOOTH",
"192 326 OFFCURVE",
"199 349 OFFCURVE",
"204 351 CURVE SMOOTH",
"217 356 OFFCURVE",
"275 356 OFFCURVE",
"376 343 CURVE",
"381 358 OFFCURVE",
"390 434 OFFCURVE",
"390 457 CURVE",
"348 463 OFFCURVE",
"287 469 OFFCURVE",
"223 469 CURVE SMOOTH",
"169 469 OFFCURVE",
"95 454 OFFCURVE",
"80 444 CURVE SMOOTH",
"59 430 OFFCURVE",
"36 368 OFFCURVE",
"36 327 CURVE SMOOTH",
"36 197 OFFCURVE",
"152 176 OFFCURVE",
"217 157 CURVE SMOOTH",
"254 146 OFFCURVE",
"240 116 OFFCURVE",
"238 115 CURVE SMOOTH",
"223 108 OFFCURVE",
"120 114 OFFCURVE",
"50 125 CURVE",
"43 99 OFFCURVE",
"31 37 OFFCURVE",
"28 10 CURVE",
"91 -4 OFFCURVE",
"147 -11 OFFCURVE",
"196 -11 CURVE SMOOTH",
"327 -11 OFFCURVE",
"413 32 OFFCURVE",
"413 156 CURVE SMOOTH",
"413 284 OFFCURVE"
);
}
);
width = 429;
},
{
associatedMasterId = "5483B82D-F897-45AA-9987-2D1C58E320E8";
layerId = "C67F05CE-FEC3-430D-B8AC-F1F60D5E10E1";
name = bubble;
paths = (
{
closed = 1;
nodes = (
"29 492 LINE",
"0 290 LINE",
"56 164 LINE",
"0 128 LINE",
"0 -60 LINE",
"353 -60 LINE",
"429 39 LINE",
"429 217 LINE",
"408 289 LINE",
"429 498 LINE"
);
}
);
width = 429;
}
);
unicode = 0073;
},
{
color = 1;
glyphname = germandbls;
layers = (
{
layerId = "5483B82D-F897-45AA-9987-2D1C58E320E8";
paths = (
{
closed = 1;
nodes = (
"428 343 OFFCURVE",
"458 370 OFFCURVE",
"480 408 CURVE SMOOTH",
"492 429 OFFCURVE",
"502 454 OFFCURVE",
"502 484 CURVE SMOOTH",
"502 515 OFFCURVE",
"489 543 OFFCURVE",
"462 564 CURVE SMOOTH",
"428 591 OFFCURVE",
"373 607 OFFCURVE",
"296 607 CURVE SMOOTH",
"198 607 OFFCURVE",
"138 583 OFFCURVE",
"102 540 CURVE SMOOTH",
"58 490 OFFCURVE",
"48 414 OFFCURVE",
"48 320 CURVE SMOOTH",
"48 0 LINE",
"219 0 LINE",
"219 320 LINE SMOOTH",
"219 464 OFFCURVE",
"241 510 OFFCURVE",
"290 510 CURVE SMOOTH",
"318 510 OFFCURVE",
"343 478 OFFCURVE",
"343 443 CURVE SMOOTH",
"343 413 OFFCURVE",
"324 392 OFFCURVE",
"305 371 CURVE SMOOTH",
"285 349 OFFCURVE",
"265 326 OFFCURVE",
"265 291 CURVE SMOOTH",
"265 254 OFFCURVE",
"296 230 OFFCURVE",
"325 208 CURVE SMOOTH",
"350 189 OFFCURVE",
"374 171 OFFCURVE",
"374 146 CURVE SMOOTH",
"374 123 OFFCURVE",
"353 113 OFFCURVE",
"323 113 CURVE SMOOTH",
"306 113 OFFCURVE",
"285 117 OFFCURVE",
"265 123 CURVE",
"246 10 LINE",
"298 -3 OFFCURVE",
"342 -9 OFFCURVE",
"380 -9 CURVE SMOOTH",
"507 -9 OFFCURVE",
"555 58 OFFCURVE",
"555 126 CURVE SMOOTH",
"555 191 OFFCURVE",
"513 224 OFFCURVE",
"477 252 CURVE SMOOTH",
"451 272 OFFCURVE",
"428 290 OFFCURVE",
"428 315 CURVE SMOOTH"
);
}
);
width = 580;
}
);
leftMetricsKey = L;
rightMetricsKey = B;
unicode = 00DF;
},
{
color = 7;
glyphname = t;
layers = (
{
anchors = (
{
name = bottom;
position = "{226, 0}";
},
{
name = ogonek;
position = "{266, 0}";
},
{
name = top;
position = "{174, 570}";
}
);
background = {
paths = (
{
closed = 1;
nodes = (
"227 108 LINE",
"266 68 LINE",
"255 107 OFFCURVE",
"253 148 OFFCURVE",
"253 189 CURVE SMOOTH",
"253 577 LINE",
"128 570 LINE",
"83 460 LINE",
"83 395 LINE",
"83 116 LINE SMOOTH",
"83 29 OFFCURVE",
"137 -9 OFFCURVE",
"227 -9 CURVE SMOOTH",
"273 -9 OFFCURVE",
"328 1 OFFCURVE",
"358 12 CURVE",
"355 43 OFFCURVE",
"348 87 OFFCURVE",
"340 121 CURVE",
"295 120 OFFCURVE",
"251 122 OFFCURVE",
"227 126 CURVE"
);
}
);
};
layerId = "5483B82D-F897-45AA-9987-2D1C58E320E8";
paths = (
{
closed = 1;
nodes = (
"359 362 LINE",
"359 460 LINE",
"83 460 LINE",
"8 453 LINE",
"8 362 LINE"
);
},
{
closed = 1;
nodes = (
"310 120 OFFCURVE",
"268 119 OFFCURVE",
"260 127 CURVE SMOOTH",
"252 135 OFFCURVE",
"253 167 OFFCURVE",
"253 189 CURVE SMOOTH",
"253 577 LINE",
"128 570 LINE",
"83 460 LINE",
"83 116 LINE SMOOTH",
"83 29 OFFCURVE",
"137 -9 OFFCURVE",
"227 -9 CURVE SMOOTH",
"273 -9 OFFCURVE",
"328 1 OFFCURVE",
"352 10 CURVE",
"352 36 OFFCURVE",
"350 84 OFFCURVE",
"343 121 CURVE"
);
}
);
width = 369;
},
{
associatedMasterId = "5483B82D-F897-45AA-9987-2D1C58E320E8";
layerId = "46796527-17A8-4FEB-932B-333BBE9EAD0A";
name = bubble;
paths = (
{
closed = 1;
nodes = (
"0 487 LINE",
"0 326 LINE",
"50 313 LINE",
"50 0 LINE",
"369 0 LINE",
"369 150 LINE",
"289 237 LINE",
"369 334 LINE",
"369 497 LINE",
"283 497 LINE",
"283 570 LINE",
"85 570 LINE",
"63 501 LINE"
);
}
);
width = 369;
}
);
unicode = 0074;
},
{
color = 10;
glyphname = u;
layers = (
{
anchors = (
{
name = bottom;
position = "{271, 0}";
},
{
name = horn;
position = "{482, 404}";
},
{
name = ogonek;
position = "{475, 0}";
},
{
name = top;
position = "{271, 470}";
}
);
background = {
paths = (
{
closed = 1;
nodes = (
"330 460 LINE",
"330 108 LINE",
"340 90 LINE",
"362 0 LINE",
"501 0 LINE",
"501 460 LINE"
);
},
{
closed = 1;
nodes = (
"78 3 OFFCURVE",
"126 -10 OFFCURVE",
"171 -10 CURVE SMOOTH",
"250 -10 OFFCURVE",
"311 29 OFFCURVE",
"362 102 CURVE",
"350 154 LINE",
"332 141 OFFCURVE",
"299 132 OFFCURVE",
"272 130 CURVE SMOOTH",
"250 128 OFFCURVE",
"219 130 OFFCURVE",
"214 137 CURVE SMOOTH",
"208 146 OFFCURVE",
"209 198 OFFCURVE",
"209 220 CURVE SMOOTH",
"209 460 LINE",
"38 460 LINE",
"38 218 LINE SMOOTH",
"38 95 OFFCURVE",
"44 43 OFFCURVE",
"56 29 CURVE SMOOTH"
);
}
);
};
layerId = "5483B82D-F897-45AA-9987-2D1C58E320E8";
paths = (
{
closed = 1;
nodes = (
"330 460 LINE",
"330 108 LINE",
"340 90 LINE",
"362 0 LINE",
"501 0 LINE",
"501 460 LINE"
);
},
{
closed = 1;
nodes = (
"78 3 OFFCURVE",
"126 -10 OFFCURVE",
"171 -10 CURVE SMOOTH",
"250 -10 OFFCURVE",
"311 29 OFFCURVE",
"362 102 CURVE",
"350 154 LINE",
"332 141 OFFCURVE",
"299 132 OFFCURVE",
"272 130 CURVE SMOOTH",
"250 128 OFFCURVE",
"222 130 OFFCURVE",
"216 139 CURVE SMOOTH",
"208 150 OFFCURVE",
"209 198 OFFCURVE",
"209 220 CURVE SMOOTH",
"209 460 LINE",
"38 460 LINE",
"38 218 LINE SMOOTH",
"38 95 OFFCURVE",
"44 43 OFFCURVE",
"56 29 CURVE SMOOTH"
);
}
);
width = 542;
},
{
associatedMasterId = "5483B82D-F897-45AA-9987-2D1C58E320E8";
layerId = "3DB3AD8A-1138-46F4-BE2D-D48B5AD1400B";
name = bubble;
paths = (
{
closed = 1;
nodes = (
"0 493 LINE",
"0 290 LINE",
"0 0 LINE",
"542 0 LINE",
"542 277 LINE",
"542 495 LINE"
);
}
);
width = 542;
}
);
unicode = 0075;
},
{
color = 3;
glyphname = ubar;
layers = (
{
components = (
{
name = u;
}
);
layerId = "5483B82D-F897-45AA-9987-2D1C58E320E8";
paths = (
{
closed = 1;
nodes = (
"7 261 LINE",
"535 261 LINE",
"535 330 LINE",
"7 330 LINE"
);
}
);
width = 542;
}
);
unicode = 0289;
},
{
color = 7;
glyphname = v;
layers = (
{
layerId = "5483B82D-F897-45AA-9987-2D1C58E320E8";
paths = (
{
closed = 1;
nodes = (
"253 107 LINE",
"178 460 LINE",
"-1 460 LINE",
"139 0 LINE",
"376 0 LINE",
"516 460 LINE",
"337 460 LINE",
"263 107 LINE"
);
}
);
width = 515;
},
{
associatedMasterId = "5483B82D-F897-45AA-9987-2D1C58E320E8";
layerId = "C80CE1BD-83A4-4FB2-9BF2-CA99D0504B6D";
name = bubble;
paths = (
{
closed = 1;
nodes = (
"7 502 LINE",
"0 465 LINE",
"6 314 LINE",
"100 0 LINE",
"413 0 LINE",
"506 290 LINE",
"513 452 LINE",
"504 504 LINE"
);
}
);
width = 515;
}
);
unicode = 0076;
},
{
color = 7;
glyphname = w;
layers = (
{
anchors = (
{
name = bottom;
position = "{371, 0}";
},
{
name = ogonek;
position = "{547, 0}";
},
{
name = top;
position = "{374, 460}";
}
);
layerId = "5483B82D-F897-45AA-9987-2D1C58E320E8";
paths = (
{
closed = 1;
nodes = (
"374 278 LINE",
"422 0 LINE",
"639 0 LINE",
"741 460 LINE",
"565 460 LINE",
"523 119 LINE",
"519 119 LINE",
"465 460 LINE",
"280 460 LINE",
"229 118 LINE",
"226 118 LINE",
"181 460 LINE",
"6 460 LINE",
"108 0 LINE",
"324 0 LINE",
"371 278 LINE"
);
}
);
width = 747;
},
{
associatedMasterId = "5483B82D-F897-45AA-9987-2D1C58E320E8";
layerId = "ADAD6187-C939-4069-8F86-6EDC35DC3D51";
name = bubble;
paths = (
{
closed = 1;
nodes = (
"7 502 LINE",
"0 465 LINE",
"6 314 LINE",
"70 0 LINE",
"677 0 LINE",
"740 290 LINE",
"747 452 LINE",
"738 504 LINE"
);
}
);
width = 747;
}
);
unicode = 0077;
},
{
color = 7;
glyphname = x;
layers = (
{
layerId = "5483B82D-F897-45AA-9987-2D1C58E320E8";
paths = (
{
closed = 1;
nodes = (
"166 0 LINE",
"259 190 LINE",
"352 0 LINE",
"519 0 LINE",
"394 235 LINE",
"508 460 LINE",
"343 460 LINE",
"259 282 LINE",
"176 460 LINE",
"10 460 LINE",
"125 235 LINE",
"-1 0 LINE"
);
}
);
width = 518;
},
{
associatedMasterId = "5483B82D-F897-45AA-9987-2D1C58E320E8";
layerId = "9F9C267F-19C7-4AB3-A94E-A014EEA9F249";
name = bubble;
paths = (
{
closed = 1;
nodes = (
"7 502 LINE",
"0 465 LINE",
"66 234 LINE",
"0 0 LINE",
"518 0 LINE",
"458 250 LINE",
"518 452 LINE",
"509 504 LINE"
);
}
);
width = 518;
}
);
unicode = 0078;
},
{
color = 7;
glyphname = y;
layers = (
{
anchors = (
{
name = bottom;
position = "{195, -175}";
},
{
name = top;
position = "{258, 470}";
}
);
layerId = "5483B82D-F897-45AA-9987-2D1C58E320E8";
paths = (
{
closed = 1;
nodes = (
"261 119 LINE",
"260 138 LINE",
"180 460 LINE",
"-1 460 LINE",
"153 12 LINE",
"268 5 LINE",
"229 24 LINE",
"215 -10 OFFCURVE",
"195 -54 OFFCURVE",
"176 -88 CURVE",
"300 -39 LINE",
"224 -58 OFFCURVE",
"118 -54 OFFCURVE",
"67 -52 CURVE",
"61 -81 OFFCURVE",
"55 -135 OFFCURVE",
"57 -169 CURVE",
"121 -188 OFFCURVE",
"241 -183 OFFCURVE",
"278 -157 CURVE SMOOTH",
"311 -134 OFFCURVE",
"347 -85 OFFCURVE",
"397 75 CURVE SMOOTH",
"517 460 LINE",
"336 460 LINE",
"264 119 LINE"
);
}
);
width = 516;
},
{
associatedMasterId = "5483B82D-F897-45AA-9987-2D1C58E320E8";
layerId = "17AC65C8-AAA1-4007-8629-AE83A3FD8107";
name = bubble;
paths = (
{
closed = 1;
nodes = (
"0 324 LINE",
"94 44 LINE",
"30 -35 LINE",
"30 -181 LINE",
"366 -181 LINE",
"516 291 LINE",
"516 460 LINE",
"0 460 LINE"
);
}
);
width = 516;
}
);
unicode = 0079;
},
{
color = 7;
glyphname = z;
layers = (
{
anchors = (
{
name = bottom;
position = "{233, 0}";
},
{
name = ogonek;
position = "{372, 0}";
},
{
name = top;
position = "{233, 460}";
}
);
layerId = "5483B82D-F897-45AA-9987-2D1C58E320E8";
paths = (
{
closed = 1;
nodes = (
"440 0 LINE",
"440 112 LINE",
"189 112 LINE",
"194 91 LINE",
"435 346 LINE",
"435 460 LINE",
"33 460 LINE",
"33 351 LINE",
"282 351 LINE",
"259 362 LINE",
"27 115 LINE",
"27 0 LINE"
);
}
);
width = 467;
},
{
associatedMasterId = "5483B82D-F897-45AA-9987-2D1C58E320E8";
layerId = "FCE9BC92-717E-4EB6-B74D-49124FB4F221";
name = bubble;
paths = (
{
closed = 1;
nodes = (
"7 502 LINE",
"0 465 LINE",
"32 287 LINE",
"6 0 LINE",
"466 0 LINE",
"434 205 LINE",
"467 452 LINE",
"458 504 LINE"
);
}
);
width = 467;
}
);
unicode = 007A;
},
{
color = 8;
glyphname = f_f;
layers = (
{
components = (
{
name = f;
},
{
name = f;
transform = "{1, 0, 0, 1, 320, 0}";
}
);
layerId = "5483B82D-F897-45AA-9987-2D1C58E320E8";
paths = (
{
closed = 1;
nodes = (
"448 362 LINE",
"448 460 LINE",
"183 460 LINE",
"106 451 LINE",
"106 362 LINE"
);
}
);
width = 680;
},
{
associatedMasterId = "5483B82D-F897-45AA-9987-2D1C58E320E8";
layerId = "1B484FC2-5C8B-4DCA-9A54-7825561EBFAA";
name = bubble;
paths = (
{
closed = 1;
nodes = (
"0 489 LINE",
"0 341 LINE",
"40 280 LINE",
"40 0 LINE",
"291 0 LINE",
"291 291 LINE",
"359 318 LINE",
"359 570 LINE",
"70 570 LINE"
);
},
{
closed = 1;
nodes = (
"321 489 LINE",
"321 341 LINE",
"361 280 LINE",
"361 0 LINE",
"612 0 LINE",
"612 291 LINE",
"680 318 LINE",
"680 570 LINE",
"391 570 LINE"
);
}
);
width = 680;
}
);
leftKerningGroup = f;
note = f_f;
rightKerningGroup = f;
rightMetricsKey = f;
},
{
color = 8;
glyphname = f_f_i;
layers = (
{
components = (
{
name = i;
transform = "{1, 0, 0, 1, 680, 0}";
},
{
name = f_f;
}
);
layerId = "5483B82D-F897-45AA-9987-2D1C58E320E8";
paths = (
{
closed = 1;
nodes = (
"659 362 LINE",
"753 362 LINE",
"753 460 LINE",
"659 460 LINE"
);
}
);
width = 939;
},
{
associatedMasterId = "5483B82D-F897-45AA-9987-2D1C58E320E8";
layerId = "6B8C0A1C-AAAC-49E8-A164-FE4928FB3FFB";
name = bubble;
paths = (
{
closed = 1;
nodes = (
"0 489 LINE",
"0 341 LINE",
"40 280 LINE",
"40 0 LINE",
"291 0 LINE",
"291 291 LINE",
"359 318 LINE",
"359 570 LINE",
"70 570 LINE"
);
},
{
closed = 1;
nodes = (
"320 489 LINE",
"320 341 LINE",
"360 280 LINE",
"360 0 LINE",
"611 0 LINE",
"611 291 LINE",
"679 318 LINE",
"679 570 LINE",
"390 570 LINE"
);
}
);
width = 939;
}
);
leftKerningGroup = f;
note = f_f_i;
rightKerningGroup = i;
},
{
color = 8;
glyphname = f_t;
layers = (
{
components = (
{
name = f;
},
{
alignment = -1;
name = t;
transform = "{1, 0, 0, 1, 340, 0}";
}
);
layerId = "5483B82D-F897-45AA-9987-2D1C58E320E8";
paths = (
{
closed = 1;
nodes = (
"301 405 LINE",
"438 405 LINE",
"438 460 LINE",
"301 460 LINE"
);
}
);
width = 709;
}
);
leftMetricsKey = f;
rightMetricsKey = t;
},
{
color = 8;
glyphname = fi;
layers = (
{
components = (
{
name = f;
},
{
name = i;
transform = "{1, 0, 0, 1, 361, 0}";
}
);
layerId = "5483B82D-F897-45AA-9987-2D1C58E320E8";
paths = (
{
closed = 1;
nodes = (
"340 362 LINE",
"434 362 LINE",
"434 460 LINE",
"340 460 LINE"
);
}
);
width = 620;
},
{
associatedMasterId = "5483B82D-F897-45AA-9987-2D1C58E320E8";
layerId = "1EC9955A-411B-43B8-8F5D-9D02691BC9E4";
name = bubble;
paths = (
{
closed = 1;
nodes = (
"0 489 LINE",
"0 341 LINE",
"41 280 LINE",
"41 0 LINE",
"292 0 LINE",
"292 291 LINE",
"360 317.992 LINE",
"360 570 LINE",
"71 570 LINE"
);
}
);
width = 619;
}
);
leftKerningGroup = f;
note = fi;
rightKerningGroup = i;
rightMetricsKey = i;
unicode = FB01;
},
{
color = 6;
glyphname = "hamza-ar";
layers = (
{
anchors = (
{
name = bottom;
position = "{190, -25}";
},
{
name = top;
position = "{181, 336}";
}
);
layerId = "5483B82D-F897-45AA-9987-2D1C58E320E8";
paths = (
{
closed = 1;
nodes = (
"213 108 LINE",
"171 138 OFFCURVE",
"157 172 OFFCURVE",
"158 190 CURVE SMOOTH",
"162 219 OFFCURVE",
"209 231 OFFCURVE",
"266 209 CURVE",
"292 247 OFFCURVE",
"289 309 OFFCURVE",
"243 332 CURVE SMOOTH",
"179 368 OFFCURVE",
"75 300 OFFCURVE",
"63 219 CURVE SMOOTH",
"57 171 OFFCURVE",
"81 117 OFFCURVE",
"160 72 CURVE"
);
},
{
closed = 1;
nodes = (
"118 2 OFFCURVE",
"228 24 OFFCURVE",
"299 28 CURVE",
"311 46 OFFCURVE",
"335 119 OFFCURVE",
"337 151 CURVE",
"332 159 LINE",
"228 160 OFFCURVE",
"97 121 OFFCURVE",
"33 89 CURVE",
"25 67 OFFCURVE",
"35 1 OFFCURVE",
"47 -17 CURVE"
);
}
);
width = 367;
}
);
unicode = 0621;
},
{
color = 6;
glyphname = "alef-ar";
layers = (
{
anchors = (
{
name = bottom;
position = "{126, 0}";
},
{
name = top;
position = "{112, 575}";
}
);
layerId = "5483B82D-F897-45AA-9987-2D1C58E320E8";
paths = (
{
closed = 1;
nodes = (
"98 -2 OFFCURVE",
"171 8 OFFCURVE",
"201 25 CURVE",
"204 76 OFFCURVE",
"205 136 OFFCURVE",
"205 202 CURVE SMOOTH",
"205 309 OFFCURVE",
"201 433 OFFCURVE",
"192 566 CURVE",
"30 557 LINE",
"37 424 OFFCURVE",
"42 287 OFFCURVE",
"42 168 CURVE SMOOTH",
"42 107 OFFCURVE",
"40 50 OFFCURVE",
"37 2 CURVE",
"43 -3 LINE"
);
}
);
width = 245;
}
);
unicode = 0627;
},
{
color = 6;
glyphname = "alef-ar.fina";
layers = (
{
anchors = (
{
name = bottom;
position = "{136, 0}";
},
{
name = top;
position = "{113, 575}";
}
);
components = (
{
name = connection_r;
transform = "{1, 0, 0, 1, 194, 0}";
}
);
layerId = "5483B82D-F897-45AA-9987-2D1C58E320E8";
paths = (
{
closed = 1;
nodes = (
"244 186 LINE",
"220 186 OFFCURVE",
"154 195 OFFCURVE",
"108 213 CURVE",
"190 91 LINE",
"205 197 OFFCURVE",
"201 412 OFFCURVE",
"191 566 CURVE",
"30 557 LINE",
"37 374 OFFCURVE",
"39 77 OFFCURVE",
"51 29 CURVE",
"101 7 OFFCURVE",
"179 0 OFFCURVE",
"244 0 CURVE"
);
}
);
width = 244;
}
);
unicode = FE8E;
},
{
color = 6;
glyphname = uni0672;
layers = (
{
anchors = (
{
name = bottom;
position = "{137, -47}";
},
{
name = top;
position = "{110, 814}";
}
);
components = (
{
name = "alef-ar";
}
);
layerId = "5483B82D-F897-45AA-9987-2D1C58E320E8";
paths = (
{
closed = 1;
nodes = (
"82 595 OFFCURVE",
"141 601 OFFCURVE",
"174 600 CURVE",
"183 610 OFFCURVE",
"201 653 OFFCURVE",
"205 673 CURVE",
"201 677 LINE",
"155 682 OFFCURVE",
"99 674 OFFCURVE",
"56 664 CURVE SMOOTH",
"25 657 OFFCURVE",
"8 705 OFFCURVE",
"-29 705 CURVE SMOOTH",
"-53 705 OFFCURVE",
"-95 672 OFFCURVE",
"-111 642 CURVE",
"-106 626 OFFCURVE",
"-99 609 OFFCURVE",
"-87 594 CURVE",
"-62 616 OFFCURVE",
"-42 627 OFFCURVE",
"-30 625 CURVE SMOOTH",
"-1 622 OFFCURVE",
"14 587 OFFCURVE",
"56 592 CURVE SMOOTH"
);
},
{
closed = 1;
nodes = (
"127 653 LINE",
"102 674 OFFCURVE",
"96 695 OFFCURVE",
"98 706 CURVE SMOOTH",
"101 723 OFFCURVE",
"131 728 OFFCURVE",
"164 711 CURVE",
"182 734 OFFCURVE",
"183 772 OFFCURVE",
"157 788 CURVE SMOOTH",
"120 813 OFFCURVE",
"53 777 OFFCURVE",
"41 728 CURVE SMOOTH",
"35 700 OFFCURVE",
"47 666 OFFCURVE",
"92 634 CURVE"
);
}
);
width = 245;
}
);
note = uni0672;
unicode = 0672;
},
{
color = 6;
glyphname = uni0672.fina;
layers = (
{
anchors = (
{
name = bottom;
position = "{137, -47}";
},
{
name = top;
position = "{131, 831}";
}
);
components = (
{
name = "alef-ar.fina";
}
);
layerId = "5483B82D-F897-45AA-9987-2D1C58E320E8";
paths = (
{
closed = 1;
nodes = (
"93 596 OFFCURVE",
"152 602 OFFCURVE",
"185 601 CURVE",
"194 611 OFFCURVE",
"212 654 OFFCURVE",
"216 674 CURVE",
"212 678 LINE",
"166 683 OFFCURVE",
"110 675 OFFCURVE",
"67 665 CURVE SMOOTH",
"36 658 OFFCURVE",
"19 706 OFFCURVE",
"-18 706 CURVE SMOOTH",
"-42 706 OFFCURVE",
"-84 673 OFFCURVE",
"-100 643 CURVE",
"-95 627 OFFCURVE",
"-88 610 OFFCURVE",
"-76 595 CURVE",
"-51 617 OFFCURVE",
"-31 628 OFFCURVE",
"-19 626 CURVE SMOOTH",
"10 623 OFFCURVE",
"25 588 OFFCURVE",
"67 593 CURVE SMOOTH"
);
},
{
closed = 1;
nodes = (
"138 654 LINE",
"113 675 OFFCURVE",
"107 696 OFFCURVE",
"109 707 CURVE SMOOTH",
"112 724 OFFCURVE",
"142 729 OFFCURVE",
"175 712 CURVE",
"193 735 OFFCURVE",
"194 773 OFFCURVE",
"168 789 CURVE SMOOTH",
"131 814 OFFCURVE",
"64 778 OFFCURVE",
"52 729 CURVE SMOOTH",
"46 701 OFFCURVE",
"58 667 OFFCURVE",
"103 635 CURVE"
);
}
);
width = 244;
}
);
note = uni0672.fina;
},
{
color = 6;
glyphname = uni0673;
layers = (
{
anchors = (
{
name = bottom;
position = "{137, -253}";
},
{
name = top;
position = "{131, 600}";
}
);
components = (
{
name = "alef-ar";
}
);
layerId = "5483B82D-F897-45AA-9987-2D1C58E320E8";
paths = (
{
closed = 1;
nodes = (
"93 -230 OFFCURVE",
"152 -224 OFFCURVE",
"185 -225 CURVE",
"194 -215 OFFCURVE",
"212 -172 OFFCURVE",
"216 -152 CURVE",
"212 -148 LINE",
"166 -143 OFFCURVE",
"110 -151 OFFCURVE",
"67 -161 CURVE SMOOTH",
"36 -168 OFFCURVE",
"19 -120 OFFCURVE",
"-18 -120 CURVE SMOOTH",
"-42 -120 OFFCURVE",
"-84 -153 OFFCURVE",
"-100 -183 CURVE",
"-95 -199 OFFCURVE",
"-88 -216 OFFCURVE",
"-76 -231 CURVE",
"-51 -209 OFFCURVE",
"-31 -198 OFFCURVE",
"-19 -200 CURVE SMOOTH",
"10 -203 OFFCURVE",
"25 -238 OFFCURVE",
"67 -233 CURVE SMOOTH"
);
},
{
closed = 1;
nodes = (
"138 -172 LINE",
"113 -151 OFFCURVE",
"107 -130 OFFCURVE",
"109 -119 CURVE SMOOTH",
"112 -102 OFFCURVE",
"142 -97 OFFCURVE",
"175 -114 CURVE",
"193 -91 OFFCURVE",
"194 -53 OFFCURVE",
"168 -37 CURVE SMOOTH",
"131 -12 OFFCURVE",
"64 -48 OFFCURVE",
"52 -97 CURVE SMOOTH",
"46 -125 OFFCURVE",
"58 -159 OFFCURVE",
"103 -191 CURVE"
);
}
);
width = 245;
}
);
note = uni0673;
unicode = 0673;
},
{
color = 6;
glyphname = uni0673.fina;
layers = (
{
anchors = (
{
name = bottom;
position = "{157, -253}";
},
{
name = top;
position = "{131, 600}";
}
);
components = (
{
name = "alef-ar.fina";
}
);
layerId = "5483B82D-F897-45AA-9987-2D1C58E320E8";
paths = (
{
closed = 1;
nodes = (
"123 -230 OFFCURVE",
"182 -224 OFFCURVE",
"215 -225 CURVE",
"224 -215 OFFCURVE",
"242 -172 OFFCURVE",
"246 -152 CURVE",
"242 -148 LINE",
"196 -143 OFFCURVE",
"140 -151 OFFCURVE",
"97 -161 CURVE SMOOTH",
"66 -168 OFFCURVE",
"49 -120 OFFCURVE",
"12 -120 CURVE SMOOTH",
"-12 -120 OFFCURVE",
"-54 -153 OFFCURVE",
"-70 -183 CURVE",
"-65 -199 OFFCURVE",
"-58 -216 OFFCURVE",
"-46 -231 CURVE",
"-21 -209 OFFCURVE",
"-1 -198 OFFCURVE",
"11 -200 CURVE SMOOTH",
"40 -203 OFFCURVE",
"55 -238 OFFCURVE",
"97 -233 CURVE SMOOTH"
);
},
{
closed = 1;
nodes = (
"168 -172 LINE",
"143 -151 OFFCURVE",
"137 -130 OFFCURVE",
"139 -119 CURVE SMOOTH",
"142 -102 OFFCURVE",
"172 -97 OFFCURVE",
"205 -114 CURVE",
"223 -91 OFFCURVE",
"224 -53 OFFCURVE",
"198 -37 CURVE SMOOTH",
"161 -12 OFFCURVE",
"94 -48 OFFCURVE",
"82 -97 CURVE SMOOTH",
"76 -125 OFFCURVE",
"88 -159 OFFCURVE",
"133 -191 CURVE"
);
}
);
width = 244;
}
);
note = uni0673.fina;
},
{
color = 1;
glyphname = "dotlessbeh-ar";
layers = (
{
anchors = (
{
name = bottom;
position = "{331, -6}";
},
{
name = top;
position = "{281, 186}";
}
);
layerId = "5483B82D-F897-45AA-9987-2D1C58E320E8";
paths = (
{
closed = 1;
nodes = (
"450 -6 OFFCURVE",
"547 8 OFFCURVE",
"600 25 CURVE",
"630 78 OFFCURVE",
"641 142 OFFCURVE",
"641 202 CURVE SMOOTH",
"641 251 OFFCURVE",
"634 298 OFFCURVE",
"623 337 CURVE",
"462 300 LINE",
"474 262 OFFCURVE",
"513 157 OFFCURVE",
"508 89 CURVE",
"574 201 LINE",
"534 188 OFFCURVE",
"466 182 OFFCURVE",
"385 182 CURVE SMOOTH",
"287 182 OFFCURVE",
"172 191 OFFCURVE",
"71 207 CURVE",
"50 148 OFFCURVE",
"37 88 OFFCURVE",
"30 25 CURVE",
"136 2 OFFCURVE",
"240 -6 OFFCURVE",
"331 -6 CURVE SMOOTH"
);
}
);
width = 671;
}
);
unicode = 066E;
},
{
color = 1;
glyphname = "dotlessbeh-ar.fina";
layers = (
{
anchors = (
{
name = bottom;
position = "{351, -6}";
},
{
name = top;
position = "{331, 186}";
}
);
components = (
{
name = connection_r;
transform = "{1, 0, 0, 1, 706, 0}";
}
);
layerId = "5483B82D-F897-45AA-9987-2D1C58E320E8";
paths = (
{
closed = 1;
nodes = (
"442 -6 OFFCURVE",
"560 12 OFFCURVE",
"603 70 CURVE",
"613 70 LINE",
"636 23 OFFCURVE",
"692 0 OFFCURVE",
"756 0 CURVE",
"756 186 LINE",
"700 186 OFFCURVE",
"673 217 OFFCURVE",
"673 294 CURVE",
"591 294 LINE",
"580 207 OFFCURVE",
"506 177 OFFCURVE",
"334 177 CURVE SMOOTH",
"251 177 OFFCURVE",
"151 184 OFFCURVE",
"64 199 CURVE",
"48 138 OFFCURVE",
"36 76 OFFCURVE",
"30 16 CURVE",
"123 0 OFFCURVE",
"234 -6 OFFCURVE",
"308 -6 CURVE SMOOTH"
);
}
);
width = 756;
}
);
},
{
color = 1;
glyphname = "dotlessbeh-ar.medi";
layers = (
{
anchors = (
{
name = bottom;
position = "{130, 0}";
},
{
name = top;
position = "{147, 292}";
}
);
components = (
{
name = connection_r;
transform = "{1, 0, 0, 1, 266, 0}";
},
{
name = connection_l;
}
);
layerId = "5483B82D-F897-45AA-9987-2D1C58E320E8";
paths = (
{
closed = 1;
nodes = (
"76 0 OFFCURVE",
"136 14 OFFCURVE",
"167 70 CURVE",
"175 70 LINE",
"207 18 OFFCURVE",
"269 0 OFFCURVE",
"316 0 CURVE",
"316 186 LINE",
"246 186 OFFCURVE",
"226 202 OFFCURVE",
"232 279 CURVE",
"147 292 LINE",
"128 199 OFFCURVE",
"70 186 OFFCURVE",
"0 186 CURVE",
"0 0 LINE"
);
}
);
width = 316;
}
);
},
{
color = 2;
glyphname = "dotlessbeh-ar.medi.wide";
layers = (
{
anchors = (
{
name = bottom;
position = "{151, 0}";
},
{
name = top;
position = "{208, 292}";
}
);
components = (
{
name = connection_l;
},
{
name = connection_r;
transform = "{1, 0, 0, 1, 341, 0}";
}
);
layerId = "5483B82D-F897-45AA-9987-2D1C58E320E8";
paths = (
{
closed = 1;
nodes = (
"74 0 OFFCURVE",
"117 4 OFFCURVE",
"168 25 CURVE SMOOTH",
"191 34 OFFCURVE",
"213 50 OFFCURVE",
"227 70 CURVE",
"236 70 LINE",
"270 25 OFFCURVE",
"319 0 OFFCURVE",
"391 0 CURVE",
"391 186 LINE",
"311 186 OFFCURVE",
"285 202 OFFCURVE",
"292 279 CURVE",
"208 292 LINE",
"168 195 OFFCURVE",
"93 186 OFFCURVE",
"0 186 CURVE",
"0 0 LINE"
);
}
);
width = 391;
}
);
},
{
color = 1;
glyphname = "dotlessbeh-ar.init";
layers = (
{
anchors = (
{
name = bottom;
position = "{115, 0}";
},
{
name = top;
position = "{105, 323}";
}
);
components = (
{
name = connection_l;
}
);
layerId = "5483B82D-F897-45AA-9987-2D1C58E320E8";
paths = (
{
closed = 1;
nodes = (
"85 0 OFFCURVE",
"154 14 OFFCURVE",
"201 29 CURVE",
"229 73 OFFCURVE",
"242 142 OFFCURVE",
"242 211 CURVE SMOOTH",
"242 258 OFFCURVE",
"236 304 OFFCURVE",
"224 342 CURVE",
"63 305 LINE",
"76 268 OFFCURVE",
"97 210 OFFCURVE",
"105 153 CURVE",
"124 207 LINE",
"105 193 OFFCURVE",
"60 186 OFFCURVE",
"0 186 CURVE",
"0 0 LINE"
);
}
);
width = 272;
}
);
},
{
color = 2;
glyphname = "dotlessbeh-ar.init.wide";
layers = (
{
anchors = (
{
name = bottom;
position = "{132, 0}";
},
{
name = top;
position = "{155, 323}";
}
);
components = (
{
name = connection_l;
}
);
layerId = "5483B82D-F897-45AA-9987-2D1C58E320E8";
paths = (
{
closed = 1;
nodes = (
"116 0 OFFCURVE",
"211 14 OFFCURVE",
"262 29 CURVE",
"290 73 OFFCURVE",
"304 143 OFFCURVE",
"304 212 CURVE SMOOTH",
"304 258 OFFCURVE",
"297 304 OFFCURVE",
"285 342 CURVE",
"125 305 LINE",
"140 258 OFFCURVE",
"171 178 OFFCURVE",
"171 109 CURVE",
"185 207 LINE",
"164 193 OFFCURVE",
"88 186 OFFCURVE",
"0 186 CURVE",
"0 0 LINE"
);
}
);
width = 334;
}
);
},
{
color = 6;
glyphname = "beh-ar.medi";
layers = (
{
associatedMasterId = "5483B82D-F897-45AA-9987-2D1C58E320E8";
layerId = "F1F00D0F-487E-4974-A2F5-D7C18ABB8A12";
name = "Regular Oct 4 15, 23:39";
paths = (
{
closed = 1;
nodes = (
"405 581 LINE",
"327 507 OFFCURVE",
"233 456 OFFCURVE",
"187 438 CURVE SMOOTH",
"145 421 OFFCURVE",
"89 400 OFFCURVE",
"0 400 CURVE",
"-50 267 OFFCURVE",
"-50 133 OFFCURVE",
"0 0 CURVE",
"82 0 OFFCURVE",
"271 14 OFFCURVE",
"537 303 CURVE",
"84 326 LINE",
"325 64 OFFCURVE",
"520 0 OFFCURVE",
"680 0 CURVE",
"730 133 OFFCURVE",
"730 267 OFFCURVE",
"680 400 CURVE",
"614 400 OFFCURVE",
"556 421 OFFCURVE",
"523 443 CURVE SMOOTH",
"492 463 OFFCURVE",
"458 526 OFFCURVE",
"423 579 CURVE"
);
}
);
width = 680;
},
{
anchors = (
{
name = top;
position = "{148, 373}";
}
);
components = (
{
name = "dotlessbeh-ar.medi";
},
{
name = "dotbelow-ar";
transform = "{1, 0, 0, 1, 130, -149}";
}
);
layerId = "5483B82D-F897-45AA-9987-2D1C58E320E8";
width = 316;
}
);
unicode = FE92;
},
{
color = 6;
glyphname = "tcheh-ar";
layers = (
{
anchors = (
{
name = bottom;
position = "{349, -399}";
},
{
name = top;
position = "{353, 474}";
}
);
background = {
paths = (
{
closed = 1;
nodes = (
"450 -44 OFFCURVE",
"481 -2 OFFCURVE",
"478 13 CURVE SMOOTH",
"477 26 OFFCURVE",
"430 60 OFFCURVE",
"414 58 CURVE SMOOTH",
"397 55 OFFCURVE",
"371 10 OFFCURVE",
"367 -8 CURVE",
"379 -22 OFFCURVE",
"417 -47 OFFCURVE",
"434 -53 CURVE"
);
},
{
closed = 1;
nodes = (
"397 -136 OFFCURVE",
"427 -93 OFFCURVE",
"425 -79 CURVE SMOOTH",
"423 -65 OFFCURVE",
"378 -35 OFFCURVE",
"363 -37 CURVE SMOOTH",
"349 -40 OFFCURVE",
"321 -82 OFFCURVE",
"319 -99 CURVE",
"329 -112 OFFCURVE",
"366 -137 OFFCURVE",
"381 -144 CURVE"
);
},
{
closed = 1;
nodes = (
"334 -45 OFFCURVE",
"367 -2 OFFCURVE",
"365 13 CURVE SMOOTH",
"362 26 OFFCURVE",
"316 59 OFFCURVE",
"300 58 CURVE SMOOTH",
"283 55 OFFCURVE",
"256 10 OFFCURVE",
"254 -7 CURVE",
"264 -22 OFFCURVE",
"302 -47 OFFCURVE",
"320 -53 CURVE"
);
}
);
};
components = (
{
name = "dot-three-b";
transform = "{0.686, 0, 0, 0.686, 244, -12}";
},
{
name = "hah-ar.comb";
}
);
layerId = "5483B82D-F897-45AA-9987-2D1C58E320E8";
width = 568;
}
);
unicode = 0686;
},
{
color = 6;
glyphname = "hah-ar";
layers = (
{
associatedMasterId = "5483B82D-F897-45AA-9987-2D1C58E320E8";
layerId = "4A28E058-EDBC-4CE4-A8AC-988A43A69211";
name = "Regular Oct 6 15, 22:41";
paths = (
{
closed = 1;
nodes = (
"544 343 OFFCURVE",
"738 24 OFFCURVE",
"1112 24 CURVE",
"1112 394 LINE",
"781 394 OFFCURVE",
"567 757 OFFCURVE",
"77 757 CURVE",
"77 343 LINE"
);
},
{
closed = 1;
nodes = (
"230 100 OFFCURVE",
"1112 0 CURVE",
"1112 494 LINE",
"-248 494 OFFCURVE",
"-521 -1418 OFFCURVE",
"1332 -915 CURVE",
"1236 -412 LINE",
"-87 -858 OFFCURVE"
);
}
);
width = 1316;
},
{
associatedMasterId = "5483B82D-F897-45AA-9987-2D1C58E320E8";
background = {
paths = (
{
closed = 1;
nodes = (
"402 435 OFFCURVE",
"592 285 OFFCURVE",
"759 285 CURVE",
"806 402 LINE",
"716 425 OFFCURVE",
"675 452 OFFCURVE",
"602 521 CURVE SMOOTH",
"504 614 OFFCURVE",
"423 707 OFFCURVE",
"259 721 CURVE",
"221 637 OFFCURVE",
"196 547 OFFCURVE",
"186 449 CURVE"
);
},
{
closed = 1;
nodes = (
"518 -279 OFFCURVE",
"251 -273 OFFCURVE",
"251 -83 CURVE SMOOTH",
"251 133 OFFCURVE",
"548 167 OFFCURVE",
"759 147 CURVE",
"789 247 OFFCURVE",
"804 321 OFFCURVE",
"806 402 CURVE",
"484 444 OFFCURVE",
"50 278 OFFCURVE",
"50 -120 CURVE SMOOTH",
"50 -385 OFFCURVE",
"242 -519 OFFCURVE",
"484 -519 CURVE SMOOTH",
"573 -519 OFFCURVE",
"671 -501 OFFCURVE",
"768 -463 CURVE",
"766 -391 OFFCURVE",
"737 -253 OFFCURVE",
"716 -202 CURVE"
);
}
);
};
layerId = "C33D0664-160B-4766-9D9E-1E11B9F87515";
name = "Bold Dec 5 15, 22:21";
paths = (
{
closed = 1;
nodes = (
"402 435 OFFCURVE",
"592 285 OFFCURVE",
"759 285 CURVE",
"806 402 LINE",
"716 425 OFFCURVE",
"675 452 OFFCURVE",
"602 521 CURVE SMOOTH",
"504 614 OFFCURVE",
"423 707 OFFCURVE",
"259 721 CURVE",
"221 637 OFFCURVE",
"196 547 OFFCURVE",
"186 449 CURVE"
);
},
{
closed = 1;
nodes = (
"518 -279 OFFCURVE",
"262 -236 OFFCURVE",
"251 -83 CURVE",
"285 52 OFFCURVE",
"533 147 OFFCURVE",
"759 147 CURVE",
"789 247 OFFCURVE",
"804 321 OFFCURVE",
"806 402 CURVE",
"372 389 OFFCURVE",
"64 182 OFFCURVE",
"50 -162 CURVE",
"94 -478 OFFCURVE",
"415 -601 OFFCURVE",
"768 -463 CURVE",
"766 -391 OFFCURVE",
"737 -253 OFFCURVE",
"716 -202 CURVE"
);
}
);
width = 856;
},
{
anchors = (
{
name = bottom;
position = "{295, -417}";
},
{
name = top;
position = "{279, 624}";
}
);
associatedMasterId = "5483B82D-F897-45AA-9987-2D1C58E320E8";
background = {
paths = (
{
closed = 1;
nodes = (
"511 -267 OFFCURVE",
"491 -173 OFFCURVE",
"477 -138 CURVE",
"305 -173 OFFCURVE",
"177 -126 OFFCURVE",
"177 -50 CURVE SMOOTH",
"177 31 OFFCURVE",
"358 111 OFFCURVE",
"506 141 CURVE",
"513 159 OFFCURVE",
"523 196 OFFCURVE",
"529 233 CURVE SMOOTH",
"535 266 OFFCURVE",
"539 298 OFFCURVE",
"538 316 CURVE",
"241 284 OFFCURVE",
"30 96 OFFCURVE",
"30 -95 CURVE SMOOTH",
"30 -313 OFFCURVE",
"298 -378 OFFCURVE",
"512 -316 CURVE"
);
},
{
closed = 1;
nodes = (
"538 316 LINE",
"477 331 OFFCURVE",
"449 350 OFFCURVE",
"399 397 CURVE SMOOTH",
"332 460 OFFCURVE",
"276 524 OFFCURVE",
"164 533 CURVE",
"138 476 OFFCURVE",
"121 415 OFFCURVE",
"115 348 CURVE",
"298 348 OFFCURVE",
"416 163 OFFCURVE",
"506 163 CURVE"
);
}
);
};
layerId = "71119C93-BCD7-4860-95F2-E839635E8315";
name = "Bold Dec 17 15, 12:39";
paths = (
{
closed = 1;
nodes = (
"512 -172 LINE",
"241 -207 OFFCURVE",
"177 -126 OFFCURVE",
"177 -51 CURVE SMOOTH",
"177 31 OFFCURVE",
"284 141 OFFCURVE",
"506 141 CURVE",
"517 171 OFFCURVE",
"523 199 OFFCURVE",
"529 233 CURVE SMOOTH",
"535 266 OFFCURVE",
"539 298 OFFCURVE",
"538 316 CURVE",
"241 284 OFFCURVE",
"30 95 OFFCURVE",
"30 -93 CURVE SMOOTH",
"30 -314 OFFCURVE",
"354 -484 OFFCURVE",
"531 -251 CURVE"
);
},
{
closed = 1;
nodes = (
"538 316 LINE",
"477 331 OFFCURVE",
"449 350 OFFCURVE",
"399 397 CURVE SMOOTH",
"332 460 OFFCURVE",
"276 524 OFFCURVE",
"164 533 CURVE",
"138 476 OFFCURVE",
"121 415 OFFCURVE",
"115 348 CURVE",
"298 348 OFFCURVE",
"416 163 OFFCURVE",
"506 163 CURVE"
);
}
);
width = 568;
},
{
anchors = (
{
name = bottom;
position = "{349, -399}";
},
{
name = top;
position = "{353, 474}";
}
);
background = {
paths = (
{
closed = 1;
nodes = (
"475 260 LINE",
"346 249 OFFCURVE",
"235 212 OFFCURVE",
"155 152 CURVE SMOOTH",
"80 96 OFFCURVE",
"31 20 OFFCURVE",
"28 -76 CURVE SMOOTH",
"25 -163 OFFCURVE",
"63 -229 OFFCURVE",
"126 -272 CURVE SMOOTH",
"183 -311 OFFCURVE",
"262 -332 OFFCURVE",
"350 -332 CURVE SMOOTH",
"395 -332 OFFCURVE",
"442 -325 OFFCURVE",
"490 -311 CURVE",
"491 -272 OFFCURVE",
"478 -174 OFFCURVE",
"470 -147 CURVE",
"431 -152 OFFCURVE",
"397 -155 OFFCURVE",
"365 -155 CURVE SMOOTH",
"244 -155 OFFCURVE",
"173 -125 OFFCURVE",
"173 -64 CURVE SMOOTH",
"173 -15 OFFCURVE",
"221 21 OFFCURVE",
"279 44 CURVE SMOOTH",
"337 67 OFFCURVE",
"417 78 OFFCURVE",
"464 81 CURVE",
"472 109 OFFCURVE",
"479 208 OFFCURVE",
"479 256 CURVE"
);
}
);
};
components = (
{
name = "hah-ar.comb";
}
);
layerId = "5483B82D-F897-45AA-9987-2D1C58E320E8";
width = 568;
},
{
anchors = (
{
name = bottom;
position = "{295, -417}";
},
{
name = top;
position = "{295, 599}";
}
);
associatedMasterId = "5483B82D-F897-45AA-9987-2D1C58E320E8";
background = {
paths = (
{
closed = 1;
nodes = (
"511 -267 OFFCURVE",
"491 -173 OFFCURVE",
"477 -138 CURVE",
"305 -173 OFFCURVE",
"177 -126 OFFCURVE",
"177 -50 CURVE SMOOTH",
"177 31 OFFCURVE",
"358 111 OFFCURVE",
"506 141 CURVE",
"513 159 OFFCURVE",
"523 196 OFFCURVE",
"529 233 CURVE SMOOTH",
"535 266 OFFCURVE",
"539 298 OFFCURVE",
"538 316 CURVE",
"241 284 OFFCURVE",
"30 96 OFFCURVE",
"30 -95 CURVE SMOOTH",
"30 -313 OFFCURVE",
"298 -378 OFFCURVE",
"512 -316 CURVE"
);
},
{
closed = 1;
nodes = (
"538 316 LINE",
"477 331 OFFCURVE",
"449 350 OFFCURVE",
"399 397 CURVE SMOOTH",
"332 460 OFFCURVE",
"276 524 OFFCURVE",
"164 533 CURVE",
"138 476 OFFCURVE",
"121 415 OFFCURVE",
"115 348 CURVE",
"298 348 OFFCURVE",
"416 163 OFFCURVE",
"506 163 CURVE"
);
}
);
};
layerId = "F9DCBFE9-3819-4A6F-B277-B88EFB739DEC";
name = "Bold Dec 19 15, 13:54";
paths = (
{
closed = 1;
nodes = (
"514 -275 OFFCURVE",
"499 -175 OFFCURVE",
"492 -152 CURVE",
"448 -157 OFFCURVE",
"410 -160 OFFCURVE",
"371 -160 CURVE SMOOTH",
"235 -160 OFFCURVE",
"174 -123 OFFCURVE",
"174 -64 CURVE SMOOTH",
"174 40 OFFCURVE",
"336 115 OFFCURVE",
"506 141 CURVE",
"517 171 OFFCURVE",
"523 199 OFFCURVE",
"529 233 CURVE SMOOTH",
"535 266 OFFCURVE",
"539 298 OFFCURVE",
"538 316 CURVE",
"241 284 OFFCURVE",
"30 96 OFFCURVE",
"30 -96 CURVE SMOOTH",
"30 -261 OFFCURVE",
"186 -338 OFFCURVE",
"354 -338 CURVE SMOOTH",
"407 -338 OFFCURVE",
"461 -331 OFFCURVE",
"512 -316 CURVE"
);
},
{
closed = 1;
nodes = (
"538 316 LINE",
"477 331 OFFCURVE",
"449 350 OFFCURVE",
"399 397 CURVE SMOOTH",
"332 460 OFFCURVE",
"276 524 OFFCURVE",
"164 533 CURVE",
"138 476 OFFCURVE",
"121 415 OFFCURVE",
"115 348 CURVE",
"298 348 OFFCURVE",
"416 163 OFFCURVE",
"506 163 CURVE"
);
}
);
width = 568;
}
);
unicode = 062D;
},
{
color = 1;
glyphname = "hah-ar.comb";
layers = (
{
associatedMasterId = "5483B82D-F897-45AA-9987-2D1C58E320E8";
layerId = "4A28E058-EDBC-4CE4-A8AC-988A43A69211";
name = "Regular Oct 6 15, 22:41";
paths = (
{
closed = 1;
nodes = (
"544 343 OFFCURVE",
"738 24 OFFCURVE",
"1112 24 CURVE",
"1112 394 LINE",
"781 394 OFFCURVE",
"567 757 OFFCURVE",
"77 757 CURVE",
"77 343 LINE"
);
},
{
closed = 1;
nodes = (
"230 100 OFFCURVE",
"1112 0 CURVE",
"1112 494 LINE",
"-248 494 OFFCURVE",
"-521 -1418 OFFCURVE",
"1332 -915 CURVE",
"1236 -412 LINE",
"-87 -858 OFFCURVE"
);
}
);
width = 1316;
},
{
associatedMasterId = "5483B82D-F897-45AA-9987-2D1C58E320E8";
background = {
paths = (
{
closed = 1;
nodes = (
"402 435 OFFCURVE",
"592 285 OFFCURVE",
"759 285 CURVE",
"806 402 LINE",
"716 425 OFFCURVE",
"675 452 OFFCURVE",
"602 521 CURVE SMOOTH",
"504 614 OFFCURVE",
"423 707 OFFCURVE",
"259 721 CURVE",
"221 637 OFFCURVE",
"196 547 OFFCURVE",
"186 449 CURVE"
);
},
{
closed = 1;
nodes = (
"518 -279 OFFCURVE",
"251 -273 OFFCURVE",
"251 -83 CURVE SMOOTH",
"251 133 OFFCURVE",
"548 167 OFFCURVE",
"759 147 CURVE",
"789 247 OFFCURVE",
"804 321 OFFCURVE",
"806 402 CURVE",
"484 444 OFFCURVE",
"50 278 OFFCURVE",
"50 -120 CURVE SMOOTH",
"50 -385 OFFCURVE",
"242 -519 OFFCURVE",
"484 -519 CURVE SMOOTH",
"573 -519 OFFCURVE",
"671 -501 OFFCURVE",
"768 -463 CURVE",
"766 -391 OFFCURVE",
"737 -253 OFFCURVE",
"716 -202 CURVE"
);
}
);
};
layerId = "C33D0664-160B-4766-9D9E-1E11B9F87515";
name = "Bold Dec 5 15, 22:21";
paths = (
{
closed = 1;
nodes = (
"402 435 OFFCURVE",
"592 285 OFFCURVE",
"759 285 CURVE",
"806 402 LINE",
"716 425 OFFCURVE",
"675 452 OFFCURVE",
"602 521 CURVE SMOOTH",
"504 614 OFFCURVE",
"423 707 OFFCURVE",
"259 721 CURVE",
"221 637 OFFCURVE",
"196 547 OFFCURVE",
"186 449 CURVE"
);
},
{
closed = 1;
nodes = (
"518 -279 OFFCURVE",
"262 -236 OFFCURVE",
"251 -83 CURVE",
"285 52 OFFCURVE",
"533 147 OFFCURVE",
"759 147 CURVE",
"789 247 OFFCURVE",
"804 321 OFFCURVE",
"806 402 CURVE",
"372 389 OFFCURVE",
"64 182 OFFCURVE",
"50 -162 CURVE",
"94 -478 OFFCURVE",
"415 -601 OFFCURVE",
"768 -463 CURVE",
"766 -391 OFFCURVE",
"737 -253 OFFCURVE",
"716 -202 CURVE"
);
}
);
width = 856;
},
{
anchors = (
{
name = bottom;
position = "{295, -417}";
},
{
name = top;
position = "{279, 624}";
}
);
associatedMasterId = "5483B82D-F897-45AA-9987-2D1C58E320E8";
background = {
paths = (
{
closed = 1;
nodes = (
"511 -267 OFFCURVE",
"491 -173 OFFCURVE",
"477 -138 CURVE",
"305 -173 OFFCURVE",
"177 -126 OFFCURVE",
"177 -50 CURVE SMOOTH",
"177 31 OFFCURVE",
"358 111 OFFCURVE",
"506 141 CURVE",
"513 159 OFFCURVE",
"523 196 OFFCURVE",
"529 233 CURVE SMOOTH",
"535 266 OFFCURVE",
"539 298 OFFCURVE",
"538 316 CURVE",
"241 284 OFFCURVE",
"30 96 OFFCURVE",
"30 -95 CURVE SMOOTH",
"30 -313 OFFCURVE",
"298 -378 OFFCURVE",
"512 -316 CURVE"
);
},
{
closed = 1;
nodes = (
"538 316 LINE",
"477 331 OFFCURVE",
"449 350 OFFCURVE",
"399 397 CURVE SMOOTH",
"332 460 OFFCURVE",
"276 524 OFFCURVE",
"164 533 CURVE",
"138 476 OFFCURVE",
"121 415 OFFCURVE",
"115 348 CURVE",
"298 348 OFFCURVE",
"416 163 OFFCURVE",
"506 163 CURVE"
);
}
);
};
layerId = "71119C93-BCD7-4860-95F2-E839635E8315";
name = "Bold Dec 17 15, 12:39";
paths = (
{
closed = 1;
nodes = (
"512 -172 LINE",
"241 -207 OFFCURVE",
"177 -126 OFFCURVE",
"177 -51 CURVE SMOOTH",
"177 31 OFFCURVE",
"284 141 OFFCURVE",
"506 141 CURVE",
"517 171 OFFCURVE",
"523 199 OFFCURVE",
"529 233 CURVE SMOOTH",
"535 266 OFFCURVE",
"539 298 OFFCURVE",
"538 316 CURVE",
"241 284 OFFCURVE",
"30 95 OFFCURVE",
"30 -93 CURVE SMOOTH",
"30 -314 OFFCURVE",
"354 -484 OFFCURVE",
"531 -251 CURVE"
);
},
{
closed = 1;
nodes = (
"538 316 LINE",
"477 331 OFFCURVE",
"449 350 OFFCURVE",
"399 397 CURVE SMOOTH",
"332 460 OFFCURVE",
"276 524 OFFCURVE",
"164 533 CURVE",
"138 476 OFFCURVE",
"121 415 OFFCURVE",
"115 348 CURVE",
"298 348 OFFCURVE",
"416 163 OFFCURVE",
"506 163 CURVE"
);
}
);
width = 568;
},
{
anchors = (
{
name = bottom;
position = "{349, -349}";
},
{
name = top;
position = "{313, 414}";
}
);
background = {
paths = (
{
closed = 1;
nodes = (
"475 260 LINE",
"346 249 OFFCURVE",
"235 212 OFFCURVE",
"155 152 CURVE SMOOTH",
"80 96 OFFCURVE",
"31 20 OFFCURVE",
"28 -76 CURVE SMOOTH",
"25 -163 OFFCURVE",
"63 -229 OFFCURVE",
"126 -272 CURVE SMOOTH",
"183 -311 OFFCURVE",
"262 -332 OFFCURVE",
"350 -332 CURVE SMOOTH",
"395 -332 OFFCURVE",
"442 -325 OFFCURVE",
"490 -311 CURVE",
"491 -272 OFFCURVE",
"478 -174 OFFCURVE",
"470 -147 CURVE",
"431 -152 OFFCURVE",
"397 -155 OFFCURVE",
"365 -155 CURVE SMOOTH",
"244 -155 OFFCURVE",
"173 -125 OFFCURVE",
"173 -64 CURVE SMOOTH",
"173 -15 OFFCURVE",
"221 21 OFFCURVE",
"279 44 CURVE SMOOTH",
"337 67 OFFCURVE",
"417 78 OFFCURVE",
"464 81 CURVE",
"472 109 OFFCURVE",
"479 208 OFFCURVE",
"479 256 CURVE"
);
}
);
};
layerId = "5483B82D-F897-45AA-9987-2D1C58E320E8";
paths = (
{
closed = 1;
nodes = (
"514 -285 OFFCURVE",
"499 -185 OFFCURVE",
"492 -162 CURVE",
"446 -169 OFFCURVE",
"401 -173 OFFCURVE",
"359 -173 CURVE SMOOTH",
"249 -173 OFFCURVE",
"173 -145 OFFCURVE",
"173 -65 CURVE SMOOTH",
"173 48 OFFCURVE",
"389 112 OFFCURVE",
"506 121 CURVE",
"517 154 OFFCURVE",
"523 185 OFFCURVE",
"529 223 CURVE SMOOTH",
"535 256 OFFCURVE",
"539 288 OFFCURVE",
"538 306 CURVE",
"408 292 OFFCURVE",
"297 244 OFFCURVE",
"201 182 CURVE SMOOTH",
"83 106 OFFCURVE",
"30 0 OFFCURVE",
"30 -106 CURVE SMOOTH",
"30 -266 OFFCURVE",
"174 -349 OFFCURVE",
"349 -349 CURVE SMOOTH",
"400 -349 OFFCURVE",
"457 -342 OFFCURVE",
"512 -326 CURVE"
);
},
{
closed = 1;
nodes = (
"72 283 LINE",
"128 280 OFFCURVE",
"159 280 OFFCURVE",
"201 270 CURVE SMOOTH",
"322 242 OFFCURVE",
"443 182 OFFCURVE",
"506 168 CURVE",
"538 306 LINE",
"476 306 OFFCURVE",
"411 341 OFFCURVE",
"344 376 CURVE SMOOTH",
"266 416 OFFCURVE",
"186 456 OFFCURVE",
"106 440 CURVE",
"89 407 OFFCURVE",
"72 328 OFFCURVE",
"68 287 CURVE"
);
}
);
width = 568;
},
{
anchors = (
{
name = bottom;
position = "{295, -417}";
},
{
name = top;
position = "{295, 599}";
}
);
associatedMasterId = "5483B82D-F897-45AA-9987-2D1C58E320E8";
background = {
paths = (
{
closed = 1;
nodes = (
"511 -267 OFFCURVE",
"491 -173 OFFCURVE",
"477 -138 CURVE",
"305 -173 OFFCURVE",
"177 -126 OFFCURVE",
"177 -50 CURVE SMOOTH",
"177 31 OFFCURVE",
"358 111 OFFCURVE",
"506 141 CURVE",
"513 159 OFFCURVE",
"523 196 OFFCURVE",
"529 233 CURVE SMOOTH",
"535 266 OFFCURVE",
"539 298 OFFCURVE",
"538 316 CURVE",
"241 284 OFFCURVE",
"30 96 OFFCURVE",
"30 -95 CURVE SMOOTH",
"30 -313 OFFCURVE",
"298 -378 OFFCURVE",
"512 -316 CURVE"
);
},
{
closed = 1;
nodes = (
"538 316 LINE",
"477 331 OFFCURVE",
"449 350 OFFCURVE",
"399 397 CURVE SMOOTH",
"332 460 OFFCURVE",
"276 524 OFFCURVE",
"164 533 CURVE",
"138 476 OFFCURVE",
"121 415 OFFCURVE",
"115 348 CURVE",
"298 348 OFFCURVE",
"416 163 OFFCURVE",
"506 163 CURVE"
);
}
);
};
layerId = "F9DCBFE9-3819-4A6F-B277-B88EFB739DEC";
name = "Bold Dec 19 15, 13:54";
paths = (
{
closed = 1;
nodes = (
"514 -275 OFFCURVE",
"499 -175 OFFCURVE",
"492 -152 CURVE",
"448 -157 OFFCURVE",
"410 -160 OFFCURVE",
"371 -160 CURVE SMOOTH",
"235 -160 OFFCURVE",
"174 -123 OFFCURVE",
"174 -64 CURVE SMOOTH",
"174 40 OFFCURVE",
"336 115 OFFCURVE",
"506 141 CURVE",
"517 171 OFFCURVE",
"523 199 OFFCURVE",
"529 233 CURVE SMOOTH",
"535 266 OFFCURVE",
"539 298 OFFCURVE",
"538 316 CURVE",
"241 284 OFFCURVE",
"30 96 OFFCURVE",
"30 -96 CURVE SMOOTH",
"30 -261 OFFCURVE",
"186 -338 OFFCURVE",
"354 -338 CURVE SMOOTH",
"407 -338 OFFCURVE",
"461 -331 OFFCURVE",
"512 -316 CURVE"
);
},
{
closed = 1;
nodes = (
"538 316 LINE",
"477 331 OFFCURVE",
"449 350 OFFCURVE",
"399 397 CURVE SMOOTH",
"332 460 OFFCURVE",
"276 524 OFFCURVE",
"164 533 CURVE",
"138 476 OFFCURVE",
"121 415 OFFCURVE",
"115 348 CURVE",
"298 348 OFFCURVE",
"416 163 OFFCURVE",
"506 163 CURVE"
);
}
);
width = 568;
}
);
},
{
color = 1;
glyphname = "hah-ar.fina.comb";
layers = (
{
anchors = (
{
name = bottom;
position = "{349, -349}";
},
{
name = top;
position = "{313, 414}";
}
);
components = (
{
name = "hah-ar";
},
{
name = connection_r;
transform = "{1, 0, 0, 1, 540, 0}";
}
);
layerId = "5483B82D-F897-45AA-9987-2D1C58E320E8";
paths = (
{
closed = 1;
nodes = (
"590 186 LINE",
"564 186 OFFCURVE",
"516 186 OFFCURVE",
"464 204 CURVE",
"379 147 LINE",
"407 28 OFFCURVE",
"504 0 OFFCURVE",
"590 0 CURVE"
);
}
);
width = 590;
}
);
},
{
color = 1;
glyphname = "hah-ar.medi.comb";
layers = (
{
anchors = (
{
name = bottom;
position = "{251, 30}";
},
{
name = top;
position = "{219, 426}";
}
);
components = (
{
name = "hah-ar.init";
},
{
name = connection_r;
transform = "{1, 0, 0, 1, 510, 0}";
}
);
layerId = "5483B82D-F897-45AA-9987-2D1C58E320E8";
paths = (
{
closed = 1;
nodes = (
"560 186 LINE",
"536 186 OFFCURVE",
"487 186 OFFCURVE",
"435 203 CURVE",
"367 128 LINE",
"387 45 OFFCURVE",
"475 0 OFFCURVE",
"560 0 CURVE"
);
}
);
width = 560;
}
);
},
{
color = 6;
glyphname = "hah-ar.init";
layers = (
{
anchors = (
{
name = bottom;
position = "{269, -20}";
},
{
name = top;
position = "{240, 490}";
}
);
background = {
paths = (
{
closed = 1;
nodes = (
"195 0 OFFCURVE",
"267 109 OFFCURVE",
"438 91 CURVE",
"467 158 OFFCURVE",
"478 201 OFFCURVE",
"479 248 CURVE",
"252 263 OFFCURVE",
"152 186 OFFCURVE",
"0 186 CURVE",
"0 0 LINE"
);
},
{
closed = 1;
nodes = (
"42 280 LINE",
"251 310 OFFCURVE",
"364 150 OFFCURVE",
"453 150 CURVE",
"479 248 LINE",
"438 256 OFFCURVE",
"391 312 OFFCURVE",
"341 359 CURVE SMOOTH",
"252 443 OFFCURVE",
"156 477 OFFCURVE",
"86 447 CURVE",
"68 405 OFFCURVE",
"46 326 OFFCURVE",
"38 284 CURVE"
);
}
);
};
components = (
{
name = "hah-ar.init.comb";
}
);
layerId = "5483B82D-F897-45AA-9987-2D1C58E320E8";
width = 509;
}
);
unicode = FEA3;
},
{
color = 1;
glyphname = "hah-ar.init.comb";
layers = (
{
anchors = (
{
name = bottom;
position = "{251, 30}";
},
{
name = top;
position = "{219, 426}";
}
);
background = {
paths = (
{
closed = 1;
nodes = (
"119 0 OFFCURVE",
"192 41 OFFCURVE",
"270 68 CURVE SMOOTH",
"320 86 OFFCURVE",
"371 98 OFFCURVE",
"438 91 CURVE",
"467 158 OFFCURVE",
"478 201 OFFCURVE",
"482 278 CURVE",
"338 248 OFFCURVE",
"260 231 OFFCURVE",
"194 215 CURVE SMOOTH",
"133 200 OFFCURVE",
"81 186 OFFCURVE",
"0 186 CURVE",
"0 0 LINE"
);
},
{
closed = 1;
nodes = (
"52 290 LINE",
"115 286 OFFCURVE",
"169 285 OFFCURVE",
"217 266 CURVE SMOOTH",
"320 225 OFFCURVE",
"392 150 OFFCURVE",
"453 150 CURVE",
"482 278 LINE",
"438 286 OFFCURVE",
"341 353 OFFCURVE",
"259 406 CURVE SMOOTH",
"211 438 OFFCURVE",
"156 459 OFFCURVE",
"86 447 CURVE",
"71 418 OFFCURVE",
"53 345 OFFCURVE",
"48 294 CURVE"
);
}
);
};
components = (
{
name = connection_l;
}
);
layerId = "5483B82D-F897-45AA-9987-2D1C58E320E8";
paths = (
{
closed = 1;
nodes = (
"119 0 OFFCURVE",
"192 41 OFFCURVE",
"270 68 CURVE SMOOTH",
"320 86 OFFCURVE",
"371 98 OFFCURVE",
"438 91 CURVE",
"467 158 OFFCURVE",
"478 201 OFFCURVE",
"482 278 CURVE",
"338 248 OFFCURVE",
"260 231 OFFCURVE",
"194 215 CURVE SMOOTH",
"133 200 OFFCURVE",
"81 186 OFFCURVE",
"0 186 CURVE",
"0 0 LINE"
);
},
{
closed = 1;
nodes = (
"52 290 LINE",
"115 286 OFFCURVE",
"169 285 OFFCURVE",
"217 266 CURVE SMOOTH",
"320 225 OFFCURVE",
"392 150 OFFCURVE",
"453 150 CURVE",
"482 278 LINE",
"451 278 OFFCURVE",
"341 353 OFFCURVE",
"259 406 CURVE SMOOTH",
"219 432 OFFCURVE",
"177 450 OFFCURVE",
"125 450 CURVE SMOOTH",
"113 450 OFFCURVE",
"100 449 OFFCURVE",
"86 447 CURVE",
"71 418 OFFCURVE",
"53 345 OFFCURVE",
"48 294 CURVE"
);
}
);
width = 509;
}
);
},
{
color = 6;
glyphname = "dal-ar";
layers = (
{
anchors = (
{
name = top;
position = "{197, 496}";
}
);
components = (
{
name = "dal-ar.comb";
}
);
layerId = "5483B82D-F897-45AA-9987-2D1C58E320E8";
width = 420;
},
{
associatedMasterId = "5483B82D-F897-45AA-9987-2D1C58E320E8";
layerId = "6B09649E-D3A5-4D08-8882-EEA27B358BB7";
name = "Regular Oct 7 15, 10:56";
paths = (
{
closed = 1;
nodes = (
"281 800 LINE",
"441 606 OFFCURVE",
"546 369 OFFCURVE",
"588 128 CURVE",
"642 451 LINE",
"504 387 OFFCURVE",
"344 375 OFFCURVE",
"122 400 CURVE",
"81 276 OFFCURVE",
"56 156 OFFCURVE",
"50 16 CURVE",
"291 -42 OFFCURVE",
"548 1 OFFCURVE",
"654 49 CURVE SMOOTH",
"701 67 OFFCURVE",
"854 278 OFFCURVE",
"854 351 CURVE SMOOTH",
"854 493 OFFCURVE",
"753 791 OFFCURVE",
"577 1050 CURVE"
);
}
);
width = 904;
}
);
unicode = 062F;
},
{
color = 1;
glyphname = "dal-ar.comb";
layers = (
{
anchors = (
{
name = bottom;
position = "{221, -53}";
},
{
name = top;
position = "{197, 446}";
}
);
layerId = "5483B82D-F897-45AA-9987-2D1C58E320E8";
paths = (
{
closed = 1;
nodes = (
"232 -3 OFFCURVE",
"333 17 OFFCURVE",
"368 33 CURVE",
"383 76 OFFCURVE",
"390 119 OFFCURVE",
"390 162 CURVE SMOOTH",
"390 281 OFFCURVE",
"338 398 OFFCURVE",
"276 490 CURVE",
"138 373 LINE",
"212 283 OFFCURVE",
"276 154 OFFCURVE",
"280 54 CURVE",
"363 210 LINE",
"319 189 OFFCURVE",
"244 181 OFFCURVE",
"167 181 CURVE SMOOTH",
"131 181 OFFCURVE",
"96 183 OFFCURVE",
"63 186 CURVE",
"44 129 OFFCURVE",
"32 73 OFFCURVE",
"30 8 CURVE",
"62 0 OFFCURVE",
"99 -3 OFFCURVE",
"137 -3 CURVE SMOOTH"
);
}
);
width = 420;
},
{
associatedMasterId = "5483B82D-F897-45AA-9987-2D1C58E320E8";
layerId = "6B09649E-D3A5-4D08-8882-EEA27B358BB7";
name = "Regular Oct 7 15, 10:56";
paths = (
{
closed = 1;
nodes = (
"281 800 LINE",
"441 606 OFFCURVE",
"546 369 OFFCURVE",
"588 128 CURVE",
"642 451 LINE",
"504 387 OFFCURVE",
"344 375 OFFCURVE",
"122 400 CURVE",
"81 276 OFFCURVE",
"56 156 OFFCURVE",
"50 16 CURVE",
"291 -42 OFFCURVE",
"548 1 OFFCURVE",
"654 49 CURVE SMOOTH",
"701 67 OFFCURVE",
"854 278 OFFCURVE",
"854 351 CURVE SMOOTH",
"854 493 OFFCURVE",
"753 791 OFFCURVE",
"577 1050 CURVE"
);
}
);
width = 904;
}
);
},
{
color = 6;
glyphname = "dal-ar.fina";
layers = (
{
anchors = (
{
name = top;
position = "{201, 487}";
}
);
components = (
{
name = "dal-ar.fina.comb";
}
);
layerId = "5483B82D-F897-45AA-9987-2D1C58E320E8";
width = 490;
},
{
associatedMasterId = "5483B82D-F897-45AA-9987-2D1C58E320E8";
layerId = "F38A6F77-C0B5-44E4-8C96-A4AA3A1EE138";
name = "Regular Oct 7 15, 10:58";
paths = (
{
closed = 1;
nodes = (
"291 800 LINE",
"441 606 OFFCURVE",
"591 357 OFFCURVE",
"610 130 CURVE",
"666 447 LINE",
"504 387 OFFCURVE",
"344 375 OFFCURVE",
"122 400 CURVE",
"81 276 OFFCURVE",
"56 156 OFFCURVE",
"50 16 CURVE",
"291 -42 OFFCURVE",
"548 1 OFFCURVE",
"654 49 CURVE",
"701 108 OFFCURVE",
"782 244 OFFCURVE",
"854 351 CURVE",
"854 493 OFFCURVE",
"753 791 OFFCURVE",
"587 1050 CURVE"
);
},
{
closed = 1;
nodes = (
"922 400 OFFCURVE",
"854 422 OFFCURVE",
"809 579 CURVE",
"791 581 LINE",
"703 218 LINE",
"799 44 OFFCURVE",
"963 0 OFFCURVE",
"1037 0 CURVE",
"1086 133 OFFCURVE",
"1086 267 OFFCURVE",
"1037 400 CURVE"
);
}
);
width = 1037;
}
);
unicode = FEAA;
},
{
color = 1;
glyphname = "dal-ar.fina.comb";
layers = (
{
anchors = (
{
name = bottom;
position = "{247, -50}";
},
{
name = top;
position = "{201, 437}";
}
);
components = (
{
name = connection_r;
transform = "{1, 0, 0, 1, 440, 0}";
}
);
layerId = "5483B82D-F897-45AA-9987-2D1C58E320E8";
paths = (
{
closed = 1;
nodes = (
"490 186 LINE",
"436 186 OFFCURVE",
"420 207 OFFCURVE",
"391 275 CURVE SMOOTH",
"363 342 OFFCURVE",
"335 412 OFFCURVE",
"280 490 CURVE",
"142 373 LINE",
"195 304 OFFCURVE",
"235 244 OFFCURVE",
"285 150 CURVE SMOOTH",
"340 47 OFFCURVE",
"420 0 OFFCURVE",
"490 0 CURVE"
);
},
{
closed = 1;
nodes = (
"208 -5 OFFCURVE",
"267 9 OFFCURVE",
"298 23 CURVE",
"308 37 OFFCURVE",
"324 60 OFFCURVE",
"340 85 CURVE",
"272 194 LINE",
"231 185 OFFCURVE",
"192 181 OFFCURVE",
"152 181 CURVE SMOOTH",
"123 181 OFFCURVE",
"94 183 OFFCURVE",
"63 186 CURVE",
"44 129 OFFCURVE",
"33 73 OFFCURVE",
"30 8 CURVE",
"66 -2 OFFCURVE",
"105 -5 OFFCURVE",
"138 -5 CURVE SMOOTH"
);
}
);
width = 490;
},
{
associatedMasterId = "5483B82D-F897-45AA-9987-2D1C58E320E8";
layerId = "F38A6F77-C0B5-44E4-8C96-A4AA3A1EE138";
name = "Regular Oct 7 15, 10:58";
paths = (
{
closed = 1;
nodes = (
"291 800 LINE",
"441 606 OFFCURVE",
"591 357 OFFCURVE",
"610 130 CURVE",
"666 447 LINE",
"504 387 OFFCURVE",
"344 375 OFFCURVE",
"122 400 CURVE",
"81 276 OFFCURVE",
"56 156 OFFCURVE",
"50 16 CURVE",
"291 -42 OFFCURVE",
"548 1 OFFCURVE",
"654 49 CURVE",
"701 108 OFFCURVE",
"782 244 OFFCURVE",
"854 351 CURVE",
"854 493 OFFCURVE",
"753 791 OFFCURVE",
"587 1050 CURVE"
);
},
{
closed = 1;
nodes = (
"922 400 OFFCURVE",
"854 422 OFFCURVE",
"809 579 CURVE",
"791 581 LINE",
"703 218 LINE",
"799 44 OFFCURVE",
"963 0 OFFCURVE",
"1037 0 CURVE",
"1086 133 OFFCURVE",
"1086 267 OFFCURVE",
"1037 400 CURVE"
);
}
);
width = 1037;
}
);
},
{
color = 6;
glyphname = "reh-ar";
layers = (
{
anchors = (
{
name = top;
position = "{128, 267}";
}
);
background = {
paths = (
{
closed = 1;
nodes = (
"106 -256 OFFCURVE",
"230 -48 OFFCURVE",
"268 170 CURVE",
"128 217 LINE",
"95 107 OFFCURVE",
"28 -46 OFFCURVE",
"-45 -154 CURVE",
"-16 -188 OFFCURVE",
"59 -239 OFFCURVE",
"106 -256 CURVE"
);
}
);
};
components = (
{
name = "reh-ar.comb";
}
);
layerId = "5483B82D-F897-45AA-9987-2D1C58E320E8";
width = 293;
}
);
unicode = 0631;
},
{
color = 1;
glyphname = "reh-ar.comb";
layers = (
{
anchors = (
{
name = bottom;
position = "{106, -296}";
},
{
name = top;
position = "{108, 197}";
}
);
background = {
paths = (
{
closed = 1;
nodes = (
"106 -256 OFFCURVE",
"230 -48 OFFCURVE",
"268 170 CURVE",
"128 217 LINE",
"95 107 OFFCURVE",
"28 -46 OFFCURVE",
"-45 -154 CURVE",
"-16 -188 OFFCURVE",
"59 -239 OFFCURVE",
"106 -256 CURVE"
);
}
);
};
layerId = "5483B82D-F897-45AA-9987-2D1C58E320E8";
paths = (
{
closed = 1;
nodes = (
"113 -245 OFFCURVE",
"162 -161 OFFCURVE",
"206 -47 CURVE SMOOTH",
"231 18 OFFCURVE",
"255 93 OFFCURVE",
"268 170 CURVE",
"128 217 LINE",
"110 158 OFFCURVE",
"83 86 OFFCURVE",
"49 15 CURVE SMOOTH",
"21 -45 OFFCURVE",
"-11 -104 OFFCURVE",
"-45 -154 CURVE",
"-31 -171 OFFCURVE",
"-5 -192 OFFCURVE",
"24 -211 CURVE SMOOTH",
"52 -230 OFFCURVE",
"82 -247 OFFCURVE",
"106 -256 CURVE"
);
}
);
width = 293;
}
);
},
{
color = 1;
glyphname = "reh-ar.fina.comb";
layers = (
{
anchors = (
{
name = bottom;
position = "{106, -296}";
},
{
name = top;
position = "{128, 181}";
}
);
components = (
{
name = connection_r;
transform = "{1, 0, 0, 1, 255, 0}";
}
);
layerId = "5483B82D-F897-45AA-9987-2D1C58E320E8";
paths = (
{
closed = 1;
nodes = (
"112 -249 OFFCURVE",
"143 -194 OFFCURVE",
"177 -121 CURVE SMOOTH",
"203 -66 OFFCURVE",
"231 0 OFFCURVE",
"250 64 CURVE",
"153 29 LINE",
"206 7 OFFCURVE",
"290 0 OFFCURVE",
"305 0 CURVE",
"305 186 LINE",
"302 186 OFFCURVE",
"218 186 OFFCURVE",
"151 201 CURVE",
"142 195 LINE",
"119 124 OFFCURVE",
"92 64 OFFCURVE",
"60 7 CURVE SMOOTH",
"29 -47 OFFCURVE",
"-5 -99 OFFCURVE",
"-45 -154 CURVE",
"-31 -170 OFFCURVE",
"-8 -189 OFFCURVE",
"18 -207 CURVE SMOOTH",
"48 -228 OFFCURVE",
"81 -247 OFFCURVE",
"106 -256 CURVE"
);
}
);
width = 305;
}
);
},
{
color = 6;
glyphname = "seen-ar";
layers = (
{
anchors = (
{
name = top;
position = "{735, 342}";
}
);
components = (
{
name = "seen-ar.comb";
}
);
layerId = "5483B82D-F897-45AA-9987-2D1C58E320E8";
width = 1107;
},
{
associatedMasterId = "5483B82D-F897-45AA-9987-2D1C58E320E8";
layerId = "1BC8C220-4C71-4DC1-AC9B-B4969162150A";
name = "Regular Oct 7 15, 12:11";
paths = (
{
closed = 1;
nodes = (
"925 454 LINE",
"947 250 OFFCURVE",
"1022 -219 OFFCURVE",
"938 -411 CURVE",
"1190 -26 LINE",
"515 -241 OFFCURVE",
"280 -165 OFFCURVE",
"497 425 CURVE",
"200 521 LINE",
"-84 -99 OFFCURVE",
"17 -532 OFFCURVE",
"660 -532 CURVE SMOOTH",
"807 -532 OFFCURVE",
"983 -504 OFFCURVE",
"1192 -441 CURVE",
"1346 -229 OFFCURVE",
"1342 108 OFFCURVE",
"1310 308 CURVE",
"944 465 LINE"
);
},
{
closed = 1;
nodes = (
"1843 654 LINE",
"1864 590 OFFCURVE",
"1899 497 OFFCURVE",
"1921 398 CURVE",
"1784 374 OFFCURVE",
"1704 441 OFFCURVE",
"1630 579 CURVE",
"1612 581 LINE",
"1401 375 OFFCURVE",
"1215 345 OFFCURVE",
"944 465 CURVE",
"925 454 LINE",
"1127 213 LINE",
"1006 103 LINE",
"1213 -53 OFFCURVE",
"1403 -41 OFFCURVE",
"1579 149 CURVE",
"1598 149 LINE",
"1711 -23 OFFCURVE",
"1866 -54 OFFCURVE",
"2138 63 CURVE",
"2237 218 OFFCURVE",
"2253 528 OFFCURVE",
"2187 734 CURVE"
);
}
);
width = 2277;
}
);
unicode = 0633;
},
{
color = 1;
glyphname = "seen-ar.comb";
layers = (
{
anchors = (
{
name = bottom;
position = "{328, -298}";
},
{
name = top;
position = "{735, 292}";
}
);
layerId = "5483B82D-F897-45AA-9987-2D1C58E320E8";
paths = (
{
closed = 1;
nodes = (
"377 -248 OFFCURVE",
"459 -235 OFFCURVE",
"557 -206 CURVE",
"601 -145 OFFCURVE",
"628 -43 OFFCURVE",
"617 81 CURVE",
"492 70 LINE",
"527 18 OFFCURVE",
"574 -3 OFFCURVE",
"620 -3 CURVE SMOOTH",
"675 -3 OFFCURVE",
"726 27 OFFCURVE",
"753 70 CURVE",
"761 70 LINE",
"794 23 OFFCURVE",
"843 -3 OFFCURVE",
"904 -3 CURVE SMOOTH",
"944 -3 OFFCURVE",
"988 8 OFFCURVE",
"1035 29 CURVE",
"1063 73 OFFCURVE",
"1077 143 OFFCURVE",
"1077 212 CURVE SMOOTH",
"1077 258 OFFCURVE",
"1070 304 OFFCURVE",
"1058 342 CURVE",
"897 305 LINE",
"908 272 OFFCURVE",
"927 222 OFFCURVE",
"937 170 CURVE",
"948 188 LINE",
"927 183 OFFCURVE",
"904 177 OFFCURVE",
"882 177 CURVE SMOOTH",
"843 177 OFFCURVE",
"810 197 OFFCURVE",
"818 279 CURVE",
"735 292 LINE",
"720 218 OFFCURVE",
"676 178 OFFCURVE",
"635 178 CURVE SMOOTH",
"600 178 OFFCURVE",
"566 208 OFFCURVE",
"558 273 CURVE",
"550 277 LINE",
"405 216 LINE",
"430 149 OFFCURVE",
"466 5 OFFCURVE",
"466 -98 CURVE",
"477 -36 LINE",
"410 -54 OFFCURVE",
"355 -64 OFFCURVE",
"312 -64 CURVE SMOOTH",
"234 -64 OFFCURVE",
"196 -31 OFFCURVE",
"196 40 CURVE SMOOTH",
"196 80 OFFCURVE",
"208 132 OFFCURVE",
"232 198 CURVE",
"94 243 LINE",
"52 143 OFFCURVE",
"30 54 OFFCURVE",
"30 -20 CURVE SMOOTH",
"30 -161 OFFCURVE",
"116 -248 OFFCURVE",
"308 -248 CURVE SMOOTH"
);
}
);
width = 1107;
},
{
associatedMasterId = "5483B82D-F897-45AA-9987-2D1C58E320E8";
layerId = "1BC8C220-4C71-4DC1-AC9B-B4969162150A";
name = "Regular Oct 7 15, 12:11";
paths = (
{
closed = 1;
nodes = (
"925 454 LINE",
"947 250 OFFCURVE",
"1022 -219 OFFCURVE",
"938 -411 CURVE",
"1190 -26 LINE",
"515 -241 OFFCURVE",
"280 -165 OFFCURVE",
"497 425 CURVE",
"200 521 LINE",
"-84 -99 OFFCURVE",
"17 -532 OFFCURVE",
"660 -532 CURVE SMOOTH",
"807 -532 OFFCURVE",
"983 -504 OFFCURVE",
"1192 -441 CURVE",
"1346 -229 OFFCURVE",
"1342 108 OFFCURVE",
"1310 308 CURVE",
"944 465 LINE"
);
},
{
closed = 1;
nodes = (
"1843 654 LINE",
"1864 590 OFFCURVE",
"1899 497 OFFCURVE",
"1921 398 CURVE",
"1784 374 OFFCURVE",
"1704 441 OFFCURVE",
"1630 579 CURVE",
"1612 581 LINE",
"1401 375 OFFCURVE",
"1215 345 OFFCURVE",
"944 465 CURVE",
"925 454 LINE",
"1127 213 LINE",
"1006 103 LINE",
"1213 -53 OFFCURVE",
"1403 -41 OFFCURVE",
"1579 149 CURVE",
"1598 149 LINE",
"1711 -23 OFFCURVE",
"1866 -54 OFFCURVE",
"2138 63 CURVE",
"2237 218 OFFCURVE",
"2253 528 OFFCURVE",
"2187 734 CURVE"
);
}
);
width = 2277;
}
);
},
{
color = 1;
glyphname = "seen-ar.fina.comb";
layers = (
{
anchors = (
{
name = bottom;
position = "{328, -298}";
},
{
name = top;
position = "{733, 292}";
}
);
components = (
{
name = connection_r;
transform = "{1, 0, 0, 1, 1028, 0}";
}
);
layerId = "5483B82D-F897-45AA-9987-2D1C58E320E8";
paths = (
{
closed = 1;
nodes = (
"377 -248 OFFCURVE",
"459 -235 OFFCURVE",
"557 -206 CURVE",
"629 -107 OFFCURVE",
"627 51 OFFCURVE",
"612 143 CURVE",
"562 176 OFFCURVE",
"560 229 OFFCURVE",
"551 277 CURVE",
"406 216 LINE",
"465 40 OFFCURVE",
"478 -102 OFFCURVE",
"458 -204 CURVE",
"556 -12 LINE",
"453 -45 OFFCURVE",
"371 -64 OFFCURVE",
"312 -64 CURVE SMOOTH",
"235 -64 OFFCURVE",
"196 -31 OFFCURVE",
"196 40 CURVE SMOOTH",
"196 80 OFFCURVE",
"208 132 OFFCURVE",
"232 198 CURVE",
"94 243 LINE",
"53 143 OFFCURVE",
"30 54 OFFCURVE",
"30 -20 CURVE SMOOTH",
"30 -161 OFFCURVE",
"116 -248 OFFCURVE",
"309 -248 CURVE SMOOTH"
);
},
{
closed = 1;
nodes = (
"818 0 OFFCURVE",
"850 0 CURVE SMOOTH",
"883 0 OFFCURVE",
"914 20 OFFCURVE",
"940 60 CURVE",
"948 60 LINE",
"988 5 OFFCURVE",
"1042 0 OFFCURVE",
"1078 0 CURVE",
"1078 186 LINE",
"1039 186 OFFCURVE",
"1005 186 OFFCURVE",
"1005 294 CURVE",
"922 294 LINE",
"918 223 OFFCURVE",
"898 183 OFFCURVE",
"864 183 CURVE SMOOTH",
"831 183 OFFCURVE",
"808 221 OFFCURVE",
"817 279 CURVE",
"733 292 LINE",
"719 220 OFFCURVE",
"678 179 OFFCURVE",
"635 179 CURVE SMOOTH",
"599 179 OFFCURVE",
"568 208 OFFCURVE",
"558 273 CURVE",
"551 277 LINE",
"527 99 LINE",
"524 57 LINE",
"550 18 OFFCURVE",
"588 -3 OFFCURVE",
"633 -3 CURVE SMOOTH",
"680 -3 OFFCURVE",
"721 23 OFFCURVE",
"751 60 CURVE",
"760 60 LINE",
"784 20 OFFCURVE"
);
}
);
width = 1078;
}
);
},
{
color = 6;
glyphname = "seen-ar.medi";
layers = (
{
associatedMasterId = "5483B82D-F897-45AA-9987-2D1C58E320E8";
layerId = "5201C4C5-7048-4F3E-8F5B-B18107B5079C";
name = "Bold Nov 9 15, 17:43";
paths = (
{
closed = 1;
nodes = (
"1400 400 OFFCURVE",
"1351 467 OFFCURVE",
"1291 579 CURVE",
"1273 581 LINE",
"1161 323 OFFCURVE",
"1015 333 OFFCURVE",
"899 579 CURVE",
"881 581 LINE",
"610 331 OFFCURVE",
"487 313 OFFCURVE",
"321 579 CURVE",
"303 581 LINE",
"208 467 OFFCURVE",
"97 400 OFFCURVE",
"0 400 CURVE",
"-30 266 OFFCURVE",
"-30 132 OFFCURVE",
"0 0 CURVE",
"88 0 OFFCURVE",
"182 55 OFFCURVE",
"270 149 CURVE",
"289 149 LINE",
"468 -77 OFFCURVE",
"586 -53 OFFCURVE",
"848 149 CURVE",
"867 149 LINE",
"976 -60 OFFCURVE",
"1119 -69 OFFCURVE",
"1240 149 CURVE",
"1259 149 LINE",
"1342 23 OFFCURVE",
"1451 0 OFFCURVE",
"1548 0 CURVE",
"1598 133 OFFCURVE",
"1591 267 OFFCURVE",
"1548 400 CURVE"
);
}
);
width = 1548;
},
{
anchors = (
{
name = top;
position = "{377, 342}";
}
);
components = (
{
name = "seen-ar.medi.comb";
}
);
layerId = "5483B82D-F897-45AA-9987-2D1C58E320E8";
width = 723;
}
);
unicode = FEB4;
},
{
color = 1;
glyphname = "seen-ar.medi.comb";
layers = (
{
associatedMasterId = "5483B82D-F897-45AA-9987-2D1C58E320E8";
layerId = "5201C4C5-7048-4F3E-8F5B-B18107B5079C";
name = "Bold Nov 9 15, 17:43";
paths = (
{
closed = 1;
nodes = (
"1400 400 OFFCURVE",
"1351 467 OFFCURVE",
"1291 579 CURVE",
"1273 581 LINE",
"1161 323 OFFCURVE",
"1015 333 OFFCURVE",
"899 579 CURVE",
"881 581 LINE",
"610 331 OFFCURVE",
"487 313 OFFCURVE",
"321 579 CURVE",
"303 581 LINE",
"208 467 OFFCURVE",
"97 400 OFFCURVE",
"0 400 CURVE",
"-30 266 OFFCURVE",
"-30 132 OFFCURVE",
"0 0 CURVE",
"88 0 OFFCURVE",
"182 55 OFFCURVE",
"270 149 CURVE",
"289 149 LINE",
"468 -77 OFFCURVE",
"586 -53 OFFCURVE",
"848 149 CURVE",
"867 149 LINE",
"976 -60 OFFCURVE",
"1119 -69 OFFCURVE",
"1240 149 CURVE",
"1259 149 LINE",
"1342 23 OFFCURVE",
"1451 0 OFFCURVE",
"1548 0 CURVE",
"1598 133 OFFCURVE",
"1591 267 OFFCURVE",
"1548 400 CURVE"
);
}
);
width = 1548;
},
{
anchors = (
{
name = bottom;
position = "{371, -50}";
},
{
name = top;
position = "{377, 292}";
}
);
components = (
{
name = connection_r;
transform = "{1, 0, 0, 1, 673, 0}";
},
{
name = connection_l;
}
);
layerId = "5483B82D-F897-45AA-9987-2D1C58E320E8";
paths = (
{
closed = 1;
nodes = (
"215 0 OFFCURVE",
"265 0 CURVE SMOOTH",
"315 0 OFFCURVE",
"365 20 OFFCURVE",
"396 60 CURVE",
"405 60 LINE",
"426 20 OFFCURVE",
"462 0 OFFCURVE",
"497 0 CURVE SMOOTH",
"531 0 OFFCURVE",
"565 20 OFFCURVE",
"585 60 CURVE",
"594 60 LINE",
"626 11 OFFCURVE",
"678 0 OFFCURVE",
"723 0 CURVE",
"723 186 LINE",
"654 186 OFFCURVE",
"650 219 OFFCURVE",
"650 294 CURVE",
"566 294 LINE",
"562 212 OFFCURVE",
"539 182 OFFCURVE",
"509 182 CURVE SMOOTH",
"479 182 OFFCURVE",
"454 212 OFFCURVE",
"461 279 CURVE",
"377 292 LINE",
"366 249 OFFCURVE",
"345 180 OFFCURVE",
"278 180 CURVE SMOOTH",
"238 180 OFFCURVE",
"211 206 OFFCURVE",
"206 294 CURVE",
"123 294 LINE",
"112 207 OFFCURVE",
"56 186 OFFCURVE",
"0 186 CURVE",
"0 0 LINE",
"51 0 OFFCURVE",
"98 26 OFFCURVE",
"126 60 CURVE",
"135 60 LINE",
"166 19 OFFCURVE"
);
}
);
width = 723;
}
);
},
{
color = 8;
glyphname = "seen-ar.init.alt";
layers = (
{
anchors = (
{
name = bottom;
position = "{351, -6}";
},
{
name = top;
position = "{259, 238}";
}
);
background = {
paths = (
{
closed = 1;
nodes = (
"99 0 OFFCURVE",
"205 18 OFFCURVE",
"308 38 CURVE SMOOTH",
"402 56 OFFCURVE",
"493 75 OFFCURVE",
"574 83 CURVE",
"568 143 OFFCURVE",
"556 205 OFFCURVE",
"540 266 CURVE",
"460 259 OFFCURVE",
"369 240 OFFCURVE",
"279 223 CURVE SMOOTH",
"181 204 OFFCURVE",
"83 186 OFFCURVE",
"0 186 CURVE",
"0 0 LINE"
);
}
);
};
components = (
{
name = connection_l;
}
);
layerId = "5483B82D-F897-45AA-9987-2D1C58E320E8";
paths = (
{
closed = 1;
nodes = (
"84 0 OFFCURVE",
"186 6 OFFCURVE",
"302 24 CURVE SMOOTH",
"380 36 OFFCURVE",
"475 56 OFFCURVE",
"572 83 CURVE",
"566 136 OFFCURVE",
"555 192 OFFCURVE",
"540 246 CURVE",
"441 228 OFFCURVE",
"342 213 OFFCURVE",
"264 204 CURVE SMOOTH",
"170 193 OFFCURVE",
"68 186 OFFCURVE",
"0 186 CURVE",
"0 0 LINE"
);
}
);
width = 602;
}
);
},
{
color = 1;
glyphname = "seen-ar.init.comb";
layers = (
{
anchors = (
{
name = bottom;
position = "{421, -50}";
},
{
name = top;
position = "{403, 292}";
}
);
components = (
{
name = connection_l;
}
);
layerId = "5483B82D-F897-45AA-9987-2D1C58E320E8";
paths = (
{
closed = 1;
nodes = (
"344 -5 OFFCURVE",
"392 21 OFFCURVE",
"421 70 CURVE",
"430 70 LINE",
"460 22 OFFCURVE",
"510 -3 OFFCURVE",
"572 -3 CURVE SMOOTH",
"612 -3 OFFCURVE",
"657 7 OFFCURVE",
"704 29 CURVE",
"731 72 OFFCURVE",
"745 141 OFFCURVE",
"745 210 CURVE SMOOTH",
"745 257 OFFCURVE",
"739 303 OFFCURVE",
"726 342 CURVE",
"566 305 LINE",
"577 272 OFFCURVE",
"596 221 OFFCURVE",
"606 170 CURVE",
"618 189 LINE",
"596 183 OFFCURVE",
"572 176 OFFCURVE",
"550 176 CURVE SMOOTH",
"510 176 OFFCURVE",
"478 198 OFFCURVE",
"487 279 CURVE",
"403 292 LINE",
"385 210 OFFCURVE",
"344 180 OFFCURVE",
"303 180 CURVE SMOOTH",
"265 180 OFFCURVE",
"235 206 OFFCURVE",
"231 294 CURVE",
"148 294 LINE",
"134 186 OFFCURVE",
"59 186 OFFCURVE",
"0 186 CURVE",
"0 0 LINE",
"54 0 OFFCURVE",
"103 5 OFFCURVE",
"151 60 CURVE",
"160 60 LINE",
"187 19 OFFCURVE",
"237 -5 OFFCURVE",
"288 -5 CURVE SMOOTH"
);
}
);
width = 775;
}
);
},
{
color = 1;
glyphname = "sad-ar.comb";
layers = (
{
anchors = (
{
name = bottom;
position = "{328, -298}";
},
{
name = top;
position = "{951, 397}";
}
);
background = {
paths = (
{
closed = 1;
nodes = (
"387 -248 OFFCURVE",
"468 -235 OFFCURVE",
"566 -206 CURVE",
"601 -162 OFFCURVE",
"626 -96 OFFCURVE",
"630 14 CURVE",
"815 -29 OFFCURVE",
"1047 10 OFFCURVE",
"1113 40 CURVE",
"1141 81 OFFCURVE",
"1162 154 OFFCURVE",
"1162 184 CURVE SMOOTH",
"1162 314 OFFCURVE",
"1089 398 OFFCURVE",
"984 398 CURVE SMOOTH",
"893 398 OFFCURVE",
"777 335 OFFCURVE",
"662 183 CURVE",
"611 194 OFFCURVE",
"592 229 OFFCURVE",
"568 273 CURVE",
"560 277 LINE",
"415 216 LINE",
"436 161 OFFCURVE",
"464 55 OFFCURVE",
"473 -39 CURVE",
"295 -85 OFFCURVE",
"206 -69 OFFCURVE",
"206 40 CURVE SMOOTH",
"206 80 OFFCURVE",
"218 132 OFFCURVE",
"242 198 CURVE",
"104 243 LINE",
"63 143 OFFCURVE",
"40 54 OFFCURVE",
"40 -20 CURVE SMOOTH",
"40 -161 OFFCURVE",
"126 -248 OFFCURVE",
"318 -248 CURVE SMOOTH"
);
},
{
closed = 1;
nodes = (
"857 208 OFFCURVE",
"920 222 OFFCURVE",
"966 222 CURVE SMOOTH",
"1005 222 OFFCURVE",
"1032 212 OFFCURVE",
"1032 198 CURVE SMOOTH",
"1032 182 OFFCURVE",
"882 170 OFFCURVE",
"802 174 CURVE"
);
}
);
};
layerId = "5483B82D-F897-45AA-9987-2D1C58E320E8";
paths = (
{
closed = 1;
nodes = (
"387 -248 OFFCURVE",
"468 -235 OFFCURVE",
"566 -206 CURVE",
"601 -162 OFFCURVE",
"626 -96 OFFCURVE",
"630 14 CURVE",
"815 -29 OFFCURVE",
"1047 10 OFFCURVE",
"1113 40 CURVE",
"1141 81 OFFCURVE",
"1162 154 OFFCURVE",
"1162 184 CURVE SMOOTH",
"1162 314 OFFCURVE",
"1089 398 OFFCURVE",
"984 398 CURVE SMOOTH",
"893 398 OFFCURVE",
"777 335 OFFCURVE",
"662 183 CURVE",
"611 194 OFFCURVE",
"592 229 OFFCURVE",
"568 273 CURVE",
"560 277 LINE",
"415 216 LINE",
"436 161 OFFCURVE",
"464 55 OFFCURVE",
"473 -39 CURVE",
"295 -85 OFFCURVE",
"206 -69 OFFCURVE",
"206 40 CURVE SMOOTH",
"206 80 OFFCURVE",
"218 132 OFFCURVE",
"242 198 CURVE",
"104 243 LINE",
"63 143 OFFCURVE",
"40 54 OFFCURVE",
"40 -20 CURVE SMOOTH",
"40 -161 OFFCURVE",
"126 -248 OFFCURVE",
"318 -248 CURVE SMOOTH"
);
},
{
closed = 1;
nodes = (
"835 206 OFFCURVE",
"912 227 OFFCURVE",
"966 227 CURVE SMOOTH",
"1003 227 OFFCURVE",
"1034 214 OFFCURVE",
"1042 192 CURVE",
"1027 168 OFFCURVE",
"844 167 OFFCURVE",
"775 176 CURVE",
"774 154 LINE"
);
}
);
width = 1192;
}
);
},
{
color = 1;
glyphname = "sad-ar.fina.comb";
layers = (
{
anchors = (
{
name = bottom;
position = "{328, -298}";
},
{
name = top;
position = "{951, 397}";
}
);
components = (
{
name = "sad-ar";
},
{
name = connection_r;
transform = "{1, 0, 0, 1, 1163, 0}";
}
);
layerId = "5483B82D-F897-45AA-9987-2D1C58E320E8";
paths = (
{
closed = 1;
nodes = (
"1114 186 LINE",
"1062 86 LINE",
"1105 23 OFFCURVE",
"1161 0 OFFCURVE",
"1213 0 CURVE",
"1213 186 LINE"
);
}
);
width = 1213;
}
);
},
{
color = 1;
glyphname = "sad-ar.medi.comb";
layers = (
{
anchors = (
{
name = bottom;
position = "{373, -56}";
},
{
name = top;
position = "{492, 397}";
}
);
components = (
{
name = "sad-ar.init";
},
{
name = connection_r;
transform = "{1, 0, 0, 1, 693, 0}";
}
);
layerId = "5483B82D-F897-45AA-9987-2D1C58E320E8";
paths = (
{
closed = 1;
nodes = (
"645 186 LINE",
"594 86 LINE",
"637 23 OFFCURVE",
"691 0 OFFCURVE",
"743 0 CURVE",
"743 186 LINE"
);
}
);
width = 743;
}
);
},
{
color = 6;
glyphname = "sad-ar.init";
layers = (
{
associatedMasterId = "5483B82D-F897-45AA-9987-2D1C58E320E8";
background = {
paths = (
{
closed = 1;
nodes = (
"1106 564 OFFCURVE",
"1291 530 OFFCURVE",
"1410 412 CURVE",
"1237 394 OFFCURVE",
"1068 380 OFFCURVE",
"918 380 CURVE SMOOTH",
"705 380 OFFCURVE",
"562 394 OFFCURVE",
"473 579 CURVE",
"455 581 LINE",
"356 477 OFFCURVE",
"235 400 OFFCURVE",
"120 400 CURVE",
"70 267 OFFCURVE",
"70 133 OFFCURVE",
"120 0 CURVE",
"172 0 OFFCURVE",
"310 22 OFFCURVE",
"422 149 CURVE",
"441 149 LINE",
"524 23 OFFCURVE",
"671 -9 OFFCURVE",
"856 -9 CURVE SMOOTH",
"1152 -9 OFFCURVE",
"1468 22 OFFCURVE",
"1635 188 CURVE",
"1768 844 OFFCURVE",
"1269 1123 OFFCURVE",
"638 603 CURVE",
"776 319 LINE"
);
}
);
};
layerId = "8D72FDA8-5CD0-404A-B033-A4F6EC2F8F68";
name = "Regular Oct 12 15, 21:20";
paths = (
{
closed = 1;
nodes = (
"1106 564 OFFCURVE",
"1291 530 OFFCURVE",
"1410 412 CURVE",
"1237 394 OFFCURVE",
"1068 380 OFFCURVE",
"918 380 CURVE SMOOTH",
"705 380 OFFCURVE",
"497 400 OFFCURVE",
"411 731 CURVE",
"116 619 LINE",
"286 38 OFFCURVE",
"671 -9 OFFCURVE",
"856 -9 CURVE SMOOTH",
"1152 -9 OFFCURVE",
"1468 22 OFFCURVE",
"1635 188 CURVE",
"1768 844 OFFCURVE",
"1269 1123 OFFCURVE",
"638 603 CURVE",
"776 319 LINE"
);
},
{
closed = 1;
nodes = (
"-50 267 OFFCURVE",
"-50 133 OFFCURVE",
"0 0 CURVE",
"269 0 OFFCURVE",
"517 144 OFFCURVE",
"517 400 CURVE",
"0 400 LINE"
);
}
);
width = 1777;
},
{
anchors = (
{
name = top;
position = "{492, 447}";
}
);
components = (
{
name = "sad-ar.init.comb";
}
);
layerId = "5483B82D-F897-45AA-9987-2D1C58E320E8";
width = 734;
}
);
unicode = FEBB;
},
{
color = 1;
glyphname = "sad-ar.init.comb";
layers = (
{
associatedMasterId = "5483B82D-F897-45AA-9987-2D1C58E320E8";
background = {
paths = (
{
closed = 1;
nodes = (
"1106 564 OFFCURVE",
"1291 530 OFFCURVE",
"1410 412 CURVE",
"1237 394 OFFCURVE",
"1068 380 OFFCURVE",
"918 380 CURVE SMOOTH",
"705 380 OFFCURVE",
"562 394 OFFCURVE",
"473 579 CURVE",
"455 581 LINE",
"356 477 OFFCURVE",
"235 400 OFFCURVE",
"120 400 CURVE",
"70 267 OFFCURVE",
"70 133 OFFCURVE",
"120 0 CURVE",
"172 0 OFFCURVE",
"310 22 OFFCURVE",
"422 149 CURVE",
"441 149 LINE",
"524 23 OFFCURVE",
"671 -9 OFFCURVE",
"856 -9 CURVE SMOOTH",
"1152 -9 OFFCURVE",
"1468 22 OFFCURVE",
"1635 188 CURVE",
"1768 844 OFFCURVE",
"1269 1123 OFFCURVE",
"638 603 CURVE",
"776 319 LINE"
);
}
);
};
layerId = "8D72FDA8-5CD0-404A-B033-A4F6EC2F8F68";
name = "Regular Oct 12 15, 21:20";
paths = (
{
closed = 1;
nodes = (
"1106 564 OFFCURVE",
"1291 530 OFFCURVE",
"1410 412 CURVE",
"1237 394 OFFCURVE",
"1068 380 OFFCURVE",
"918 380 CURVE SMOOTH",
"705 380 OFFCURVE",
"497 400 OFFCURVE",
"411 731 CURVE",
"116 619 LINE",
"286 38 OFFCURVE",
"671 -9 OFFCURVE",
"856 -9 CURVE SMOOTH",
"1152 -9 OFFCURVE",
"1468 22 OFFCURVE",
"1635 188 CURVE",
"1768 844 OFFCURVE",
"1269 1123 OFFCURVE",
"638 603 CURVE",
"776 319 LINE"
);
},
{
closed = 1;
nodes = (
"-50 267 OFFCURVE",
"-50 133 OFFCURVE",
"0 0 CURVE",
"269 0 OFFCURVE",
"517 144 OFFCURVE",
"517 400 CURVE",
"0 400 LINE"
);
}
);
width = 1777;
},
{
anchors = (
{
name = bottom;
position = "{373, -56}";
},
{
name = top;
position = "{492, 397}";
}
);
components = (
{
name = connection_l;
}
);
layerId = "5483B82D-F897-45AA-9987-2D1C58E320E8";
paths = (
{
closed = 1;
nodes = (
"43 0 OFFCURVE",
"108 15 OFFCURVE",
"144 70 CURVE",
"153 70 LINE",
"187 14 OFFCURVE",
"276 -6 OFFCURVE",
"373 -6 CURVE SMOOTH",
"476 -6 OFFCURVE",
"588 16 OFFCURVE",
"656 40 CURVE",
"689 89 OFFCURVE",
"704 163 OFFCURVE",
"704 182 CURVE SMOOTH",
"704 311 OFFCURVE",
"632 398 OFFCURVE",
"526 398 CURVE SMOOTH",
"436 398 OFFCURVE",
"321 335 OFFCURVE",
"203 180 CURVE",
"234 195 LINE",
"204 203 OFFCURVE",
"201 239 OFFCURVE",
"196 279 CURVE",
"112 266 LINE",
"117 200 OFFCURVE",
"50 186 OFFCURVE",
"0 186 CURVE",
"0 0 LINE"
);
},
{
closed = 1;
nodes = (
"378 206 OFFCURVE",
"455 227 OFFCURVE",
"509 227 CURVE SMOOTH",
"546 227 OFFCURVE",
"577 214 OFFCURVE",
"585 192 CURVE",
"570 168 OFFCURVE",
"387 167 OFFCURVE",
"318 176 CURVE",
"317 154 LINE"
);
}
);
width = 734;
}
);
},
{
color = 6;
glyphname = "tah-ar";
layers = (
{
anchors = (
{
name = top;
position = "{470, 444}";
}
);
components = (
{
name = "tah-ar.comb";
}
);
layerId = "5483B82D-F897-45AA-9987-2D1C58E320E8";
width = 615;
},
{
associatedMasterId = "5483B82D-F897-45AA-9987-2D1C58E320E8";
background = {
paths = (
{
closed = 1;
nodes = (
"646 554 OFFCURVE",
"1003 484 OFFCURVE",
"1027 349 CURVE",
"1229 455 LINE",
"915 366 OFFCURVE",
"569 357 OFFCURVE",
"333 387 CURVE",
"256 384 OFFCURVE",
"176 462 OFFCURVE",
"113 579 CURVE",
"95 581 LINE",
"-4 477 OFFCURVE",
"-125 400 OFFCURVE",
"-240 400 CURVE",
"-290 267 OFFCURVE",
"-290 133 OFFCURVE",
"-240 0 CURVE",
"-188 0 OFFCURVE",
"-50 22 OFFCURVE",
"62 149 CURVE",
"81 149 LINE",
"238 -96 OFFCURVE",
"883 -22 OFFCURVE",
"1167 86 CURVE",
"1239 190 OFFCURVE",
"1270 348 OFFCURVE",
"1270 391 CURVE SMOOTH",
"1270 903 OFFCURVE",
"739 1110 OFFCURVE",
"119 376 CURVE",
"353 251 LINE"
);
}
);
};
layerId = "6C27CAB9-0FC5-4739-95D6-91488F875B66";
name = "Regular Oct 25 15, 16:40";
paths = (
{
closed = 1;
nodes = (
"432 -23 OFFCURVE",
"1020 -23 OFFCURVE",
"1251 188 CURVE",
"1333 647 OFFCURVE",
"1127 902 OFFCURVE",
"832 872 CURVE SMOOTH",
"676 856 OFFCURVE",
"521 603 OFFCURVE",
"254 603 CURVE",
"413 276 LINE",
"590 554 OFFCURVE",
"1087 563 OFFCURVE",
"1087 263 CURVE",
"1139 432 LINE",
"829 393 OFFCURVE",
"379 355 OFFCURVE",
"120 412 CURVE",
"77 287 OFFCURVE",
"53 161 OFFCURVE",
"50 36 CURVE"
);
},
{
closed = 1;
nodes = (
"547 517 LINE",
"659 627 OFFCURVE",
"680 869 OFFCURVE",
"680 1213 CURVE",
"334 1194 LINE",
"340 983 OFFCURVE",
"348 888 OFFCURVE",
"348 791 CURVE SMOOTH",
"348 687 OFFCURVE",
"345 679 OFFCURVE",
"254 603 CURVE"
);
}
);
width = 1319;
}
);
unicode = 0637;
},
{
color = 1;
glyphname = "tah-ar.comb";
layers = (
{
anchors = (
{
name = bottom;
position = "{286, -54}";
},
{
name = top;
position = "{440, 384}";
}
);
layerId = "5483B82D-F897-45AA-9987-2D1C58E320E8";
paths = (
{
closed = 1;
nodes = (
"149 -11 OFFCURVE",
"367 -20 OFFCURVE",
"537 40 CURVE",
"565 81 OFFCURVE",
"585 150 OFFCURVE",
"585 177 CURVE SMOOTH",
"585 332 OFFCURVE",
"498 410 OFFCURVE",
"381 398 CURVE SMOOTH",
"310 390 OFFCURVE",
"223 298 OFFCURVE",
"134 180 CURVE",
"108 183 OFFCURVE",
"83 187 OFFCURVE",
"63 192 CURVE",
"43 134 OFFCURVE",
"31 75 OFFCURVE",
"30 17 CURVE"
);
},
{
closed = 1;
nodes = (
"263 235 LINE",
"305 322 OFFCURVE",
"310 446 OFFCURVE",
"310 566 CURVE",
"149 557 LINE",
"156 294 OFFCURVE",
"152 206 OFFCURVE",
"104 139 CURVE"
);
},
{
closed = 1;
nodes = (
"265 206 OFFCURVE",
"342 227 OFFCURVE",
"396 227 CURVE SMOOTH",
"433 227 OFFCURVE",
"464 214 OFFCURVE",
"472 192 CURVE",
"457 168 OFFCURVE",
"274 167 OFFCURVE",
"205 176 CURVE",
"204 154 LINE"
);
}
);
width = 615;
},
{
associatedMasterId = "5483B82D-F897-45AA-9987-2D1C58E320E8";
background = {
paths = (
{
closed = 1;
nodes = (
"646 554 OFFCURVE",
"1003 484 OFFCURVE",
"1027 349 CURVE",
"1229 455 LINE",
"915 366 OFFCURVE",
"569 357 OFFCURVE",
"333 387 CURVE",
"256 384 OFFCURVE",
"176 462 OFFCURVE",
"113 579 CURVE",
"95 581 LINE",
"-4 477 OFFCURVE",
"-125 400 OFFCURVE",
"-240 400 CURVE",
"-290 267 OFFCURVE",
"-290 133 OFFCURVE",
"-240 0 CURVE",
"-188 0 OFFCURVE",
"-50 22 OFFCURVE",
"62 149 CURVE",
"81 149 LINE",
"238 -96 OFFCURVE",
"883 -22 OFFCURVE",
"1167 86 CURVE",
"1239 190 OFFCURVE",
"1270 348 OFFCURVE",
"1270 391 CURVE SMOOTH",
"1270 903 OFFCURVE",
"739 1110 OFFCURVE",
"119 376 CURVE",
"353 251 LINE"
);
}
);
};
layerId = "6C27CAB9-0FC5-4739-95D6-91488F875B66";
name = "Regular Oct 25 15, 16:40";
paths = (
{
closed = 1;
nodes = (
"432 -23 OFFCURVE",
"1020 -23 OFFCURVE",
"1251 188 CURVE",
"1333 647 OFFCURVE",
"1127 902 OFFCURVE",
"832 872 CURVE SMOOTH",
"676 856 OFFCURVE",
"521 603 OFFCURVE",
"254 603 CURVE",
"413 276 LINE",
"590 554 OFFCURVE",
"1087 563 OFFCURVE",
"1087 263 CURVE",
"1139 432 LINE",
"829 393 OFFCURVE",
"379 355 OFFCURVE",
"120 412 CURVE",
"77 287 OFFCURVE",
"53 161 OFFCURVE",
"50 36 CURVE"
);
},
{
closed = 1;
nodes = (
"547 517 LINE",
"659 627 OFFCURVE",
"680 869 OFFCURVE",
"680 1213 CURVE",
"334 1194 LINE",
"340 983 OFFCURVE",
"348 888 OFFCURVE",
"348 791 CURVE SMOOTH",
"348 687 OFFCURVE",
"345 679 OFFCURVE",
"254 603 CURVE"
);
}
);
width = 1319;
}
);
},
{
color = 1;
glyphname = "tah-ar.fina.comb";
layers = (
{
anchors = (
{
name = bottom;
position = "{286, -54}";
},
{
name = top;
position = "{440, 384}";
}
);
components = (
{
name = "tah-ar";
},
{
name = connection_r;
transform = "{1, 0, 0, 1, 598, 0}";
}
);
layerId = "5483B82D-F897-45AA-9987-2D1C58E320E8";
paths = (
{
closed = 1;
nodes = (
"648 186 LINE",
"549 186 LINE",
"498 86 LINE",
"541 23 OFFCURVE",
"596 0 OFFCURVE",
"648 0 CURVE"
);
}
);
width = 648;
}
);
},
{
color = 1;
glyphname = "tah-ar.medi.comb";
layers = (
{
anchors = (
{
name = bottom;
position = "{189, -54}";
},
{
name = top;
position = "{343, 384}";
}
);
components = (
{
name = "tah-ar.init";
},
{
name = connection_r;
transform = "{1, 0, 0, 1, 480, 0}";
}
);
layerId = "5483B82D-F897-45AA-9987-2D1C58E320E8";
paths = (
{
closed = 1;
nodes = (
"530 186 LINE",
"431 186 LINE",
"380 86 LINE",
"423 23 OFFCURVE",
"478 0 OFFCURVE",
"530 0 CURVE"
);
}
);
width = 530;
}
);
},
{
color = 1;
glyphname = "tah-ar.init.comb";
layers = (
{
anchors = (
{
name = bottom;
position = "{189, -54}";
},
{
name = top;
position = "{343, 384}";
}
);
components = (
{
name = connection_l;
}
);
layerId = "5483B82D-F897-45AA-9987-2D1C58E320E8";
paths = (
{
closed = 1;
nodes = (
"123 0 OFFCURVE",
"302 -6 OFFCURVE",
"441 40 CURVE",
"469 81 OFFCURVE",
"489 150 OFFCURVE",
"489 177 CURVE SMOOTH",
"489 332 OFFCURVE",
"402 410 OFFCURVE",
"285 398 CURVE SMOOTH",
"215 390 OFFCURVE",
"118 294 OFFCURVE",
"56 186 CURVE",
"0 186 LINE",
"0 0 LINE"
);
},
{
closed = 1;
nodes = (
"206 239 OFFCURVE",
"214 406 OFFCURVE",
"214 566 CURVE",
"53 557 LINE",
"58 337 OFFCURVE",
"57 227 OFFCURVE",
"25 169 CURVE",
"109 160 LINE"
);
},
{
closed = 1;
nodes = (
"168 206 OFFCURVE",
"245 227 OFFCURVE",
"299 227 CURVE SMOOTH",
"336 227 OFFCURVE",
"367 214 OFFCURVE",
"375 192 CURVE",
"360 168 OFFCURVE",
"177 167 OFFCURVE",
"108 176 CURVE",
"107 154 LINE"
);
}
);
width = 519;
}
);
},
{
color = 1;
glyphname = "ain-ar.comb";
layers = (
{
anchors = (
{
name = bottom;
position = "{352, -382}";
},
{
name = top;
position = "{319, 517}";
}
);
layerId = "5483B82D-F897-45AA-9987-2D1C58E320E8";
paths = (
{
closed = 1;
nodes = (
"477 260 LINE",
"348 249 OFFCURVE",
"237 212 OFFCURVE",
"157 152 CURVE SMOOTH",
"82 96 OFFCURVE",
"33 20 OFFCURVE",
"30 -76 CURVE SMOOTH",
"27 -163 OFFCURVE",
"65 -229 OFFCURVE",
"128 -272 CURVE SMOOTH",
"185 -311 OFFCURVE",
"264 -332 OFFCURVE",
"352 -332 CURVE SMOOTH",
"397 -332 OFFCURVE",
"444 -325 OFFCURVE",
"492 -311 CURVE",
"493 -272 OFFCURVE",
"480 -174 OFFCURVE",
"472 -147 CURVE",
"433 -152 OFFCURVE",
"399 -155 OFFCURVE",
"367 -155 CURVE SMOOTH",
"246 -155 OFFCURVE",
"175 -125 OFFCURVE",
"175 -64 CURVE SMOOTH",
"175 -15 OFFCURVE",
"223 21 OFFCURVE",
"281 44 CURVE SMOOTH",
"339 67 OFFCURVE",
"419 78 OFFCURVE",
"466 81 CURVE",
"474 109 OFFCURVE",
"481 208 OFFCURVE",
"481 256 CURVE"
);
},
{
closed = 1;
nodes = (
"407 198 LINE",
"362 215 OFFCURVE",
"317 242 OFFCURVE",
"288 269 CURVE SMOOTH",
"265 291 OFFCURVE",
"251 314 OFFCURVE",
"256 332 CURVE SMOOTH",
"261 351 OFFCURVE",
"287 362 OFFCURVE",
"325 369 CURVE SMOOTH",
"356 375 OFFCURVE",
"396 377 OFFCURVE",
"441 377 CURVE",
"445 398 OFFCURVE",
"443 499 OFFCURVE",
"438 522 CURVE",
"410 528 OFFCURVE",
"374 531 OFFCURVE",
"339 527 CURVE SMOOTH",
"270 519 OFFCURVE",
"214 488 OFFCURVE",
"177 449 CURVE SMOOTH",
"135 405 OFFCURVE",
"116 348 OFFCURVE",
"125 287 CURVE SMOOTH",
"134 225 OFFCURVE",
"171 159 OFFCURVE",
"241 99 CURVE"
);
}
);
width = 522;
}
);
},
{
color = 1;
glyphname = "ain-ar.fina.comb";
layers = (
{
anchors = (
{
name = bottom;
position = "{308, -345}";
},
{
name = top;
position = "{278, 400}";
}
);
background = {
paths = (
{
closed = 1;
nodes = (
"255 70 OFFCURVE",
"317 0 OFFCURVE",
"459 0 CURVE",
"459 186 LINE",
"400 186 OFFCURVE",
"365 190 OFFCURVE",
"317 208 CURVE",
"338 141 LINE",
"382 192 OFFCURVE",
"416 242 OFFCURVE",
"440 303 CURVE",
"440 376 OFFCURVE",
"381 410 OFFCURVE",
"298 410 CURVE SMOOTH",
"243 410 OFFCURVE",
"178 396 OFFCURVE",
"111 367 CURVE",
"109 331 OFFCURVE",
"118 270 OFFCURVE",
"128 257 CURVE",
"174 257 OFFCURVE",
"221 236 OFFCURVE",
"237 145 CURVE",
"248 129 LINE"
);
},
{
closed = 1;
nodes = (
"292 262 LINE",
"180 225 OFFCURVE",
"30 96 OFFCURVE",
"30 -57 CURVE SMOOTH",
"30 -218 OFFCURVE",
"160 -304 OFFCURVE",
"317 -304 CURVE SMOOTH",
"353 -304 OFFCURVE",
"392 -301 OFFCURVE",
"427 -289 CURVE",
"428 -250 OFFCURVE",
"415 -152 OFFCURVE",
"407 -125 CURVE",
"384 -126 OFFCURVE",
"364 -127 OFFCURVE",
"344 -127 CURVE SMOOTH",
"240 -127 OFFCURVE",
"174 -93 OFFCURVE",
"174 -32 CURVE SMOOTH",
"174 30 OFFCURVE",
"235 90 OFFCURVE",
"327 122 CURVE"
);
}
);
};
components = (
{
name = connection_r;
transform = "{1, 0, 0, 1, 409, 0}";
}
);
layerId = "5483B82D-F897-45AA-9987-2D1C58E320E8";
paths = (
{
closed = 1;
nodes = (
"255 70 OFFCURVE",
"317 0 OFFCURVE",
"459 0 CURVE",
"459 186 LINE",
"400 186 OFFCURVE",
"365 190 OFFCURVE",
"317 208 CURVE",
"338 141 LINE",
"382 192 OFFCURVE",
"416 242 OFFCURVE",
"440 303 CURVE",
"440 376 OFFCURVE",
"381 410 OFFCURVE",
"298 410 CURVE SMOOTH",
"243 410 OFFCURVE",
"178 396 OFFCURVE",
"111 367 CURVE",
"109 331 OFFCURVE",
"118 270 OFFCURVE",
"128 257 CURVE",
"174 257 OFFCURVE",
"221 236 OFFCURVE",
"237 145 CURVE",
"248 129 LINE"
);
},
{
closed = 1;
nodes = (
"292 262 LINE",
"179 211 OFFCURVE",
"30 103 OFFCURVE",
"30 -63 CURVE SMOOTH",
"30 -216 OFFCURVE",
"159 -300 OFFCURVE",
"321 -300 CURVE SMOOTH",
"355 -300 OFFCURVE",
"391 -297 OFFCURVE",
"427 -289 CURVE",
"428 -255 OFFCURVE",
"416 -159 OFFCURVE",
"407 -125 CURVE",
"390 -126 OFFCURVE",
"372 -127 OFFCURVE",
"354 -127 CURVE SMOOTH",
"262 -127 OFFCURVE",
"174 -106 OFFCURVE",
"174 -31 CURVE SMOOTH",
"174 31 OFFCURVE",
"239 92 OFFCURVE",
"327 122 CURVE"
);
}
);
width = 459;
}
);
},
{
color = 1;
glyphname = "ain-ar.medi.comb";
layers = (
{
anchors = (
{
name = bottom;
position = "{193, -40}";
},
{
name = top;
position = "{191, 400}";
}
);
components = (
{
name = connection_r;
transform = "{1, 0, 0, 1, 322, 0}";
},
{
name = connection_l;
}
);
layerId = "5483B82D-F897-45AA-9987-2D1C58E320E8";
paths = (
{
closed = 1;
nodes = (
"363 186 LINE SMOOTH",
"331 186 OFFCURVE",
"290 186 OFFCURVE",
"230 208 CURVE",
"251 141 LINE",
"295 192 OFFCURVE",
"329 242 OFFCURVE",
"353 303 CURVE",
"353 376 OFFCURVE",
"294 410 OFFCURVE",
"211 410 CURVE SMOOTH",
"156 410 OFFCURVE",
"91 396 OFFCURVE",
"24 367 CURVE",
"22 331 OFFCURVE",
"31 270 OFFCURVE",
"41 257 CURVE",
"87 257 OFFCURVE",
"134 236 OFFCURVE",
"150 145 CURVE",
"174 212 LINE",
"117 186 OFFCURVE",
"44 186 OFFCURVE",
"0 186 CURVE",
"0 0 LINE",
"54 0 OFFCURVE",
"172 29 OFFCURVE",
"232 88 CURVE",
"192 80 LINE",
"224 50 OFFCURVE",
"251 0 OFFCURVE",
"372 0 CURVE",
"372 186 LINE"
);
}
);
width = 372;
}
);
},
{
color = 1;
glyphname = "ain-ar.init.comb";
layers = (
{
anchors = (
{
name = bottom;
position = "{243, -40}";
},
{
name = top;
position = "{259, 467}";
}
);
components = (
{
name = connection_l;
}
);
layerId = "5483B82D-F897-45AA-9987-2D1C58E320E8";
paths = (
{
closed = 1;
nodes = (
"412 218 LINE",
"257 218 OFFCURVE",
"107 186 OFFCURVE",
"0 186 CURVE",
"0 0 LINE",
"79 0 OFFCURVE",
"144 19 OFFCURVE",
"229 56 CURVE",
"275 40 OFFCURVE",
"358 39 OFFCURVE",
"399 47 CURVE",
"413 90 OFFCURVE",
"422 168 OFFCURVE",
"419 213 CURVE"
);
},
{
closed = 1;
nodes = (
"347 147 LINE",
"267 178 OFFCURVE",
"183 244 OFFCURVE",
"195 281 CURVE SMOOTH",
"207 317 OFFCURVE",
"281 326 OFFCURVE",
"380 327 CURVE",
"386 359 OFFCURVE",
"383 440 OFFCURVE",
"378 472 CURVE",
"347 481 OFFCURVE",
"308 481 OFFCURVE",
"279 477 CURVE SMOOTH",
"131 456 OFFCURVE",
"48 355 OFFCURVE",
"65 238 CURVE SMOOTH",
"74 175 OFFCURVE",
"110 109 OFFCURVE",
"180 49 CURVE"
);
}
);
width = 450;
}
);
},
{
color = 1;
glyphname = "dotlessfeh-ar";
layers = (
{
anchors = (
{
name = bottom;
position = "{352, -57}";
},
{
name = top;
position = "{512, 377}";
}
);
background = {
paths = (
{
closed = 1;
nodes = (
"487 0 OFFCURVE",
"578 8 OFFCURVE",
"634 29 CURVE",
"667 81 OFFCURVE",
"682 142 OFFCURVE",
"682 198 CURVE SMOOTH",
"682 299 OFFCURVE",
"631 387 OFFCURVE",
"542 387 CURVE SMOOTH",
"440 387 OFFCURVE",
"374 267 OFFCURVE",
"374 177 CURVE SMOOTH",
"374 124 OFFCURVE",
"403 81 OFFCURVE",
"448 64 CURVE",
"470 187 LINE",
"433 186 OFFCURVE",
"393 186 OFFCURVE",
"354 186 CURVE",
"354 0 LINE"
);
},
{
closed = 1;
nodes = (
"626 202 OFFCURVE",
"565 189 OFFCURVE",
"516 189 CURVE SMOOTH",
"486 189 OFFCURVE",
"457 194 OFFCURVE",
"463 213 CURVE SMOOTH",
"468 229 OFFCURVE",
"491 239 OFFCURVE",
"521 237 CURVE SMOOTH",
"565 234 OFFCURVE",
"604 209 OFFCURVE",
"636 167 CURVE",
"639 219 LINE"
);
}
);
};
layerId = "5483B82D-F897-45AA-9987-2D1C58E320E8";
paths = (
{
closed = 1;
nodes = (
"483 -7 OFFCURVE",
"579 8 OFFCURVE",
"634 29 CURVE",
"667 81 OFFCURVE",
"682 142 OFFCURVE",
"682 198 CURVE SMOOTH",
"682 299 OFFCURVE",
"631 387 OFFCURVE",
"542 387 CURVE SMOOTH",
"440 387 OFFCURVE",
"374 267 OFFCURVE",
"374 177 CURVE SMOOTH",
"374 124 OFFCURVE",
"402 81 OFFCURVE",
"448 64 CURVE",
"495 82 LINE",
"483 179 LINE",
"465 178 OFFCURVE",
"446 178 OFFCURVE",
"426 178 CURVE SMOOTH",
"321 178 OFFCURVE",
"199 190 OFFCURVE",
"72 202 CURVE",
"51 143 OFFCURVE",
"38 83 OFFCURVE",
"30 20 CURVE",
"152 1 OFFCURVE",
"260 -7 OFFCURVE",
"352 -7 CURVE SMOOTH"
);
},
{
closed = 1;
nodes = (
"453 180 OFFCURVE",
"463 213 CURVE SMOOTH",
"475 251 OFFCURVE",
"563 238 OFFCURVE",
"603 201 CURVE",
"549 186 OFFCURVE"
);
}
);
width = 712;
}
);
unicode = 06A1;
},
{
color = 1;
glyphname = "dotlessfeh-ar.fina";
layers = (
{
anchors = (
{
name = bottom;
position = "{352, -57}";
},
{
name = top;
position = "{556, 377}";
}
);
background = {
paths = (
{
closed = 1;
nodes = (
"531 0 OFFCURVE",
"622 8 OFFCURVE",
"678 29 CURVE",
"711 81 OFFCURVE",
"726 142 OFFCURVE",
"726 198 CURVE SMOOTH",
"726 299 OFFCURVE",
"675 387 OFFCURVE",
"586 387 CURVE SMOOTH",
"484 387 OFFCURVE",
"418 267 OFFCURVE",
"418 177 CURVE SMOOTH",
"418 124 OFFCURVE",
"447 81 OFFCURVE",
"492 64 CURVE",
"514 187 LINE",
"477 186 OFFCURVE",
"437 186 OFFCURVE",
"398 186 CURVE",
"398 0 LINE"
);
},
{
closed = 1;
nodes = (
"670 202 OFFCURVE",
"609 189 OFFCURVE",
"560 189 CURVE SMOOTH",
"530 189 OFFCURVE",
"501 194 OFFCURVE",
"507 213 CURVE SMOOTH",
"512 229 OFFCURVE",
"535 239 OFFCURVE",
"565 237 CURVE SMOOTH",
"609 234 OFFCURVE",
"648 209 OFFCURVE",
"680 167 CURVE",
"683 219 LINE"
);
}
);
};
components = (
{
name = connection_r;
transform = "{1, 0, 0, 1, 701, 0}";
}
);
layerId = "5483B82D-F897-45AA-9987-2D1C58E320E8";
paths = (
{
closed = 1;
nodes = (
"267 -23 OFFCURVE",
"627 -16 OFFCURVE",
"685 62 CURVE",
"523 186 LINE",
"426 171 OFFCURVE",
"243 178 OFFCURVE",
"72 202 CURVE",
"51 143 OFFCURVE",
"37 83 OFFCURVE",
"30 20 CURVE"
);
},
{
closed = 1;
nodes = (
"751 186 LINE",
"652 186 LINE",
"601 86 LINE",
"644 23 OFFCURVE",
"699 0 OFFCURVE",
"751 0 CURVE"
);
},
{
closed = 1;
nodes = (
"712 104 OFFCURVE",
"726 155 OFFCURVE",
"726 205 CURVE SMOOTH",
"726 300 OFFCURVE",
"677 387 OFFCURVE",
"586 387 CURVE SMOOTH",
"484 387 OFFCURVE",
"418 267 OFFCURVE",
"418 177 CURVE SMOOTH",
"418 124 OFFCURVE",
"447 81 OFFCURVE",
"493 64 CURVE",
"492 64 OFFCURVE",
"685 62 OFFCURVE",
"685 62 CURVE"
);
},
{
closed = 1;
nodes = (
"625 190 OFFCURVE",
"595 187 OFFCURVE",
"567 188 CURVE SMOOTH",
"536 189 OFFCURVE",
"519 193 OFFCURVE",
"514 200 CURVE",
"512 220 OFFCURVE",
"534 234 OFFCURVE",
"560 234 CURVE SMOOTH",
"590 233 OFFCURVE",
"626 218 OFFCURVE",
"649 195 CURVE"
);
}
);
width = 751;
}
);
},
{
color = 1;
glyphname = "dotlessfeh-ar.medi";
layers = (
{
anchors = (
{
name = bottom;
position = "{173, -50}";
},
{
name = top;
position = "{158, 377}";
}
);
components = (
{
name = connection_r;
transform = "{1, 0, 0, 1, 309, 0}";
},
{
name = "dotlessfeh-ar.init";
}
);
layerId = "5483B82D-F897-45AA-9987-2D1C58E320E8";
paths = (
{
closed = 1;
nodes = (
"359 186 LINE",
"260 186 LINE",
"209 86 LINE",
"252 23 OFFCURVE",
"307 0 OFFCURVE",
"359 0 CURVE"
);
}
);
width = 359;
}
);
},
{
color = 1;
glyphname = "dotlessfeh-ar.init";
layers = (
{
anchors = (
{
name = bottom;
position = "{153, -50}";
},
{
name = top;
position = "{158, 377}";
}
);
components = (
{
name = connection_l;
}
);
layerId = "5483B82D-F897-45AA-9987-2D1C58E320E8";
paths = (
{
closed = 1;
nodes = (
"133 0 OFFCURVE",
"224 8 OFFCURVE",
"280 29 CURVE",
"313 81 OFFCURVE",
"328 142 OFFCURVE",
"328 198 CURVE SMOOTH",
"328 299 OFFCURVE",
"277 387 OFFCURVE",
"188 387 CURVE SMOOTH",
"86 387 OFFCURVE",
"20 267 OFFCURVE",
"20 177 CURVE SMOOTH",
"20 124 OFFCURVE",
"49 81 OFFCURVE",
"94 64 CURVE",
"116 187 LINE",
"79 186 OFFCURVE",
"39 186 OFFCURVE",
"0 186 CURVE",
"0 0 LINE"
);
},
{
closed = 1;
nodes = (
"227 190 OFFCURVE",
"197 187 OFFCURVE",
"169 188 CURVE SMOOTH",
"138 189 OFFCURVE",
"121 193 OFFCURVE",
"116 200 CURVE",
"114 220 OFFCURVE",
"136 234 OFFCURVE",
"162 234 CURVE SMOOTH",
"192 233 OFFCURVE",
"228 218 OFFCURVE",
"251 195 CURVE"
);
}
);
width = 358;
}
);
},
{
color = 1;
glyphname = "dotlessqaf-ar";
layers = (
{
anchors = (
{
name = bottom;
position = "{318, -228}";
},
{
name = top;
position = "{432, 401}";
}
);
background = {
paths = (
{
closed = 1;
nodes = (
"502 -134 OFFCURVE",
"606 28 OFFCURVE",
"614 191 CURVE SMOOTH",
"619 290 OFFCURVE",
"572 418 OFFCURVE",
"468 418 CURVE SMOOTH",
"383 418 OFFCURVE",
"290 299 OFFCURVE",
"290 199 CURVE SMOOTH",
"290 99 OFFCURVE",
"399 52 OFFCURVE",
"486 52 CURVE SMOOTH",
"498 52 OFFCURVE",
"510 53 OFFCURVE",
"521 55 CURVE",
"479 185 LINE",
"479 83 OFFCURVE",
"334 -59 OFFCURVE",
"287 -109 CURVE",
"321 -147 OFFCURVE",
"398 -196 OFFCURVE",
"438 -211 CURVE"
);
},
{
closed = 1;
nodes = (
"502 216 OFFCURVE",
"472 216 OFFCURVE",
"444 220 CURVE SMOOTH",
"413 224 OFFCURVE",
"397 230 OFFCURVE",
"393 237 CURVE",
"393 258 OFFCURVE",
"416 269 OFFCURVE",
"442 266 CURVE SMOOTH",
"472 262 OFFCURVE",
"506 244 OFFCURVE",
"526 218 CURVE"
);
}
);
};
layerId = "5483B82D-F897-45AA-9987-2D1C58E320E8";
paths = (
{
closed = 1;
nodes = (
"376 -175 OFFCURVE",
"465 -160 OFFCURVE",
"556 -132 CURVE",
"600 -72 OFFCURVE",
"623 26 OFFCURVE",
"623 121 CURVE SMOOTH",
"623 269 OFFCURVE",
"570 412 OFFCURVE",
"463 412 CURVE SMOOTH",
"370 412 OFFCURVE",
"291 318 OFFCURVE",
"291 195 CURVE SMOOTH",
"291 97 OFFCURVE",
"381 63 OFFCURVE",
"476 63 CURVE SMOOTH",
"517 63 OFFCURVE",
"560 71 OFFCURVE",
"596 90 CURVE",
"458 192 LINE",
"474 131 OFFCURVE",
"476 17 OFFCURVE",
"463 -67 CURVE",
"560 41 LINE",
"466 24 OFFCURVE",
"385 9 OFFCURVE",
"323 9 CURVE SMOOTH",
"243 9 OFFCURVE",
"196 34 OFFCURVE",
"196 113 CURVE SMOOTH",
"196 154 OFFCURVE",
"209 206 OFFCURVE",
"232 271 CURVE",
"94 316 LINE",
"51 217 OFFCURVE",
"30 128 OFFCURVE",
"30 53 CURVE SMOOTH",
"30 -110 OFFCURVE",
"142 -175 OFFCURVE",
"298 -175 CURVE SMOOTH"
);
},
{
closed = 1;
nodes = (
"502 216 OFFCURVE",
"472 216 OFFCURVE",
"444 220 CURVE SMOOTH",
"413 224 OFFCURVE",
"397 230 OFFCURVE",
"393 237 CURVE",
"393 258 OFFCURVE",
"416 269 OFFCURVE",
"442 266 CURVE SMOOTH",
"472 262 OFFCURVE",
"506 244 OFFCURVE",
"526 218 CURVE"
);
}
);
width = 652;
}
);
unicode = 066F;
},
{
color = 1;
glyphname = "dotlessqaf-ar.fina";
layers = (
{
anchors = (
{
name = bottom;
position = "{318, -278}";
},
{
name = top;
position = "{432, 351}";
}
);
components = (
{
name = "dotlessqaf-ar";
transform = "{1, 0, 0, 1, 0, -50}";
},
{
name = connection_r;
transform = "{1, 0, 0, 1, 622, 0}";
}
);
layerId = "5483B82D-F897-45AA-9987-2D1C58E320E8";
paths = (
{
closed = 1;
nodes = (
"672 186 LINE",
"625 186 OFFCURVE",
"601 186 OFFCURVE",
"564 193 CURVE",
"591 8 LINE",
"626 0 OFFCURVE",
"629 0 OFFCURVE",
"672 0 CURVE"
);
}
);
width = 672;
}
);
},
{
color = 6;
glyphname = "qaf-ar";
layers = (
{
components = (
{
name = "dotlessqaf-ar";
},
{
name = "twodotshorizontalabove-ar";
transform = "{1, 0, 0, 1, 432, 83}";
}
);
layerId = "5483B82D-F897-45AA-9987-2D1C58E320E8";
width = 652;
},
{
associatedMasterId = "5483B82D-F897-45AA-9987-2D1C58E320E8";
background = {
paths = (
{
closed = 1;
nodes = (
"1038 354 OFFCURVE",
"931 359 OFFCURVE",
"888 400 CURVE",
"931 472 OFFCURVE",
"1038 427 OFFCURVE",
"1091 368 CURVE"
);
},
{
closed = 1;
nodes = (
"1333 443 OFFCURVE",
"1253 776 OFFCURVE",
"997 776 CURVE SMOOTH",
"760 776 OFFCURVE",
"636 492 OFFCURVE",
"636 326 CURVE SMOOTH",
"636 54 OFFCURVE",
"967 -19 OFFCURVE",
"1163 35 CURVE",
"1108 346 LINE",
"1038 142 OFFCURVE",
"856 -164 OFFCURVE",
"721 -329 CURVE",
"785 -402 OFFCURVE",
"946 -512 OFFCURVE",
"1045 -549 CURVE",
"1091 -475 OFFCURVE",
"1333 -58 OFFCURVE",
"1333 260 CURVE SMOOTH"
);
}
);
};
components = (
{
name = "dot-two";
transform = "{1, 0, 0, 1, 606, 1018}";
}
);
layerId = "11AFEED0-4F4A-4DC7-A0BD-6AE2CDDAB120";
name = "Regular Oct 8 15, 09:28";
paths = (
{
closed = 1;
nodes = (
"1445 -61 OFFCURVE",
"1383 776 OFFCURVE",
"1006 776 CURVE SMOOTH",
"806 776 OFFCURVE",
"719 538 OFFCURVE",
"719 387 CURVE SMOOTH",
"719 162 OFFCURVE",
"1051 110 OFFCURVE",
"1310 244 CURVE",
"974 393 LINE",
"1005 173 OFFCURVE",
"1034 -72 OFFCURVE",
"1005 -252 CURVE",
"1203 30 LINE",
"974 -48 OFFCURVE",
"802 -86 OFFCURVE",
"680 -86 CURVE SMOOTH",
"405 -86 OFFCURVE",
"379 106 OFFCURVE",
"510 475 CURVE",
"214 570 LINE",
"-76 -47 OFFCURVE",
"39 -483 OFFCURVE",
"658 -483 CURVE SMOOTH",
"806 -483 OFFCURVE",
"987 -456 OFFCURVE",
"1205 -391 CURVE"
);
},
{
closed = 1;
nodes = (
"1038 354 OFFCURVE",
"931 359 OFFCURVE",
"888 400 CURVE",
"931 472 OFFCURVE",
"1038 427 OFFCURVE",
"1091 368 CURVE"
);
}
);
width = 1397;
}
);
unicode = 0642;
},
{
color = 6;
glyphname = "kaf-ar";
layers = (
{
anchors = (
{
name = bottom;
position = "{322, -62}";
},
{
name = top;
position = "{321, 496}";
}
);
components = (
{
alignment = -1;
name = "hamza-ar";
transform = "{0.741, -0.066, 0.066, 0.741, 168, 253}";
}
);
layerId = "5483B82D-F897-45AA-9987-2D1C58E320E8";
paths = (
{
closed = 1;
nodes = (
"278 -27 OFFCURVE",
"507 -3 OFFCURVE",
"599 25 CURVE",
"633 85 OFFCURVE",
"643 157 OFFCURVE",
"640 225 CURVE SMOOTH",
"640 323 OFFCURVE",
"636 433 OFFCURVE",
"627 566 CURVE",
"466 557 LINE",
"480 417 OFFCURVE",
"494 281 OFFCURVE",
"498 169 CURVE",
"515 189 LINE",
"386 171 OFFCURVE",
"175 191 OFFCURVE",
"71 207 CURVE",
"50 148 OFFCURVE",
"37 87 OFFCURVE",
"30 25 CURVE"
);
}
);
width = 691;
}
);
unicode = 0643;
},
{
color = 6;
glyphname = "kaf-ar.fina";
layers = (
{
anchors = (
{
name = bottom;
position = "{322, -62}";
},
{
name = top;
position = "{311, 492}";
}
);
components = (
{
name = "kaf-ar";
},
{
name = connection_r;
transform = "{1, 0, 0, 1, 637, 0}";
}
);
layerId = "5483B82D-F897-45AA-9987-2D1C58E320E8";
paths = (
{
closed = 1;
nodes = (
"687 186 LINE",
"588 186 LINE",
"537 86 LINE",
"580 23 OFFCURVE",
"635 0 OFFCURVE",
"687 0 CURVE"
);
}
);
width = 687;
}
);
unicode = FEDA;
},
{
color = 6;
glyphname = "kaf-ar.medi";
layers = (
{
anchors = (
{
name = bottom;
position = "{187, -50}";
},
{
name = top;
position = "{211, 538}";
}
);
components = (
{
name = connection_l;
},
{
name = connection_r;
transform = "{1, 0, 0, 1, 379, 0}";
}
);
layerId = "5483B82D-F897-45AA-9987-2D1C58E320E8";
paths = (
{
closed = 1;
nodes = (
"429 186 LINE",
"376 186 OFFCURVE",
"331 241 OFFCURVE",
"274 311 CURVE SMOOTH",
"242 350 OFFCURVE",
"205 395 OFFCURVE",
"162 436 CURVE",
"68 319 LINE",
"112 280 OFFCURVE",
"153 230 OFFCURVE",
"193 182 CURVE SMOOTH",
"272 89 OFFCURVE",
"346 0 OFFCURVE",
"429 0 CURVE"
);
},
{
closed = 1;
nodes = (
"147 0 OFFCURVE",
"206 6 OFFCURVE",
"248 23 CURVE",
"332 145 LINE",
"337 169 OFFCURVE",
"325 207 OFFCURVE",
"308 222 CURVE",
"221 199 OFFCURVE",
"165 186 OFFCURVE",
"0 186 CURVE",
"0 0 LINE"
);
},
{
closed = 1;
nodes = (
"401 424 LINE",
"401 589 LINE",
"387 599 LINE",
"68 480 LINE",
"68 319 LINE"
);
}
);
width = 429;
}
);
unicode = FEDC;
},
{
color = 6;
glyphname = "kaf-ar.init";
layers = (
{
associatedMasterId = "5483B82D-F897-45AA-9987-2D1C58E320E8";
layerId = "74E94FD3-26C2-4713-9D6A-23893F39FD79";
name = "Regular Oct 11 15, 22:19";
paths = (
{
closed = 1;
nodes = (
"143 832 LINE",
"369 656 OFFCURVE",
"514 400 OFFCURVE",
"514 159 CURVE",
"567 441 LINE",
"397 408 OFFCURVE",
"154 400 OFFCURVE",
"0 400 CURVE",
"-50 267 OFFCURVE",
"-50 133 OFFCURVE",
"0 0 CURVE",
"312 0 OFFCURVE",
"508 16 OFFCURVE",
"738 108 CURVE",
"780 226 OFFCURVE",
"814 499 OFFCURVE",
"550 886 CURVE",
"846 979 LINE",
"846 1333 LINE",
"815 1354 LINE",
"185 1100 LINE"
);
}
);
width = 896;
},
{
anchors = (
{
name = bottom;
position = "{187, -50}";
},
{
name = top;
position = "{221, 541}";
}
);
components = (
{
name = connection_l;
}
);
layerId = "5483B82D-F897-45AA-9987-2D1C58E320E8";
paths = (
{
closed = 1;
nodes = (
"145 0 OFFCURVE",
"237 8 OFFCURVE",
"334 31 CURVE",
"350 69 OFFCURVE",
"356 95 OFFCURVE",
"356 129 CURVE SMOOTH",
"356 210 OFFCURVE",
"322 336 OFFCURVE",
"174 495 CURVE",
"71 319 LINE",
"167 257 OFFCURVE",
"248 147 OFFCURVE",
"269 59 CURVE",
"313 218 LINE",
"279 194 OFFCURVE",
"120 186 OFFCURVE",
"0 186 CURVE",
"0 0 LINE"
);
},
{
closed = 1;
nodes = (
"403 424 LINE",
"403 589 LINE",
"389 599 LINE",
"71 480 LINE",
"71 319 LINE"
);
}
);
width = 423;
}
);
unicode = FEDB;
},
{
color = 6;
glyphname = "keheh-ar";
layers = (
{
anchors = (
{
name = bottom;
position = "{330, -56}";
},
{
name = top;
position = "{489, 538}";
}
);
layerId = "5483B82D-F897-45AA-9987-2D1C58E320E8";
paths = (
{
closed = 1;
nodes = (
"137 3 OFFCURVE",
"240 -6 OFFCURVE",
"330 -6 CURVE SMOOTH",
"450 -6 OFFCURVE",
"547 9 OFFCURVE",
"600 25 CURVE",
"609 52 OFFCURVE",
"617 86 OFFCURVE",
"617 127 CURVE SMOOTH",
"617 217 OFFCURVE",
"580 341 OFFCURVE",
"435 495 CURVE",
"332 319 LINE",
"429 257 OFFCURVE",
"510 146 OFFCURVE",
"531 59 CURVE",
"575 201 LINE",
"530 187 OFFCURVE",
"464 181 OFFCURVE",
"392 181 CURVE SMOOTH",
"286 181 OFFCURVE",
"165 193 OFFCURVE",
"71 207 CURVE",
"51 149 OFFCURVE",
"37 87 OFFCURVE",
"30 25 CURVE"
);
},
{
closed = 1;
nodes = (
"666 424 LINE",
"666 589 LINE",
"651 599 LINE",
"332 480 LINE",
"332 319 LINE"
);
}
);
width = 686;
}
);
unicode = 06A9;
},
{
color = 6;
glyphname = "keheh-ar.fina";
layers = (
{
anchors = (
{
name = bottom;
position = "{318, -54}";
},
{
name = top;
position = "{489, 538}";
}
);
components = (
{
name = connection_r;
transform = "{1, 0, 0, 1, 638, 0}";
}
);
layerId = "5483B82D-F897-45AA-9987-2D1C58E320E8";
paths = (
{
closed = 1;
nodes = (
"688 186 LINE",
"636 186 OFFCURVE",
"591 241 OFFCURVE",
"535 311 CURVE SMOOTH",
"503 351 OFFCURVE",
"468 395 OFFCURVE",
"425 436 CURVE",
"332 319 LINE",
"376 279 OFFCURVE",
"417 230 OFFCURVE",
"457 181 CURVE SMOOTH",
"534 88 OFFCURVE",
"606 0 OFFCURVE",
"688 0 CURVE"
);
},
{
closed = 1;
nodes = (
"112 6 OFFCURVE",
"220 -4 OFFCURVE",
"318 -4 CURVE SMOOTH",
"392 -4 OFFCURVE",
"460 2 OFFCURVE",
"507 18 CURVE",
"592 145 LINE",
"593 149 OFFCURVE",
"593 152 OFFCURVE",
"593 156 CURVE SMOOTH",
"593 180 OFFCURVE",
"581 209 OFFCURVE",
"567 222 CURVE",
"500 188 OFFCURVE",
"419 178 OFFCURVE",
"336 178 CURVE SMOOTH",
"247 178 OFFCURVE",
"143 189 OFFCURVE",
"71 199 CURVE",
"50 141 OFFCURVE",
"37 80 OFFCURVE",
"30 17 CURVE"
);
},
{
closed = 1;
nodes = (
"665 424 LINE",
"665 589 LINE",
"651 599 LINE",
"332 480 LINE",
"332 319 LINE"
);
}
);
width = 688;
}
);
unicode = FB8F;
},
{
color = 6;
glyphname = "lam-ar";
layers = (
{
anchors = (
{
name = bottom;
position = "{309, -228}";
},
{
name = top;
position = "{455, 575}";
}
);
layerId = "5483B82D-F897-45AA-9987-2D1C58E320E8";
paths = (
{
closed = 1;
nodes = (
"370 -178 OFFCURVE",
"438 -169 OFFCURVE",
"509 -152 CURVE",
"553 -83 OFFCURVE",
"572 0 OFFCURVE",
"572 91 CURVE SMOOTH",
"572 129 OFFCURVE",
"557 464 OFFCURVE",
"548 566 CURVE",
"387 557 LINE",
"404 389 OFFCURVE",
"421 139 OFFCURVE",
"420 8 CURVE",
"439 23 LINE",
"398 12 OFFCURVE",
"359 7 OFFCURVE",
"324 7 CURVE SMOOTH",
"181 7 OFFCURVE",
"184 106 OFFCURVE",
"240 268 CURVE",
"102 313 LINE",
"61 210 OFFCURVE",
"40 119 OFFCURVE",
"40 44 CURVE SMOOTH",
"40 -115 OFFCURVE",
"150 -178 OFFCURVE",
"309 -178 CURVE SMOOTH"
);
}
);
width = 612;
}
);
unicode = 0644;
},
{
color = 6;
glyphname = "lam-ar.fina";
layers = (
{
anchors = (
{
name = bottom;
position = "{309, -228}";
},
{
name = top;
position = "{462, 575}";
}
);
components = (
{
name = "lam-ar";
},
{
name = connection_r;
transform = "{1, 0, 0, 1, 574, 0}";
}
);
layerId = "5483B82D-F897-45AA-9987-2D1C58E320E8";
paths = (
{
closed = 1;
nodes = (
"624 186 LINE",
"599 186 OFFCURVE",
"568 191 OFFCURVE",
"552 202 CURVE",
"484 78 LINE",
"502 48 OFFCURVE",
"553 0 OFFCURVE",
"624 0 CURVE"
);
}
);
width = 624;
}
);
unicode = FEDE;
},
{
color = 6;
glyphname = "lam-ar.medi";
layers = (
{
anchors = (
{
name = bottom;
position = "{152, -50}";
},
{
name = top;
position = "{157, 575}";
}
);
components = (
{
name = connection_r;
transform = "{1, 0, 0, 1, 267, 0}";
},
{
name = connection_l;
}
);
layerId = "5483B82D-F897-45AA-9987-2D1C58E320E8";
paths = (
{
closed = 1;
nodes = (
"220 120 LINE",
"258 137 OFFCURVE",
"256 178 OFFCURVE",
"256 206 CURVE SMOOTH",
"255 309 OFFCURVE",
"251 425 OFFCURVE",
"242 566 CURVE",
"80 557 LINE",
"98 380 OFFCURVE",
"116 210 OFFCURVE",
"113 86 CURVE"
);
},
{
closed = 1;
nodes = (
"94 0 OFFCURVE",
"154 30 OFFCURVE",
"200 73 CURVE",
"190 201 LINE",
"146 189 OFFCURVE",
"75 186 OFFCURVE",
"0 186 CURVE",
"0 0 LINE"
);
},
{
closed = 1;
nodes = (
"317 186 LINE",
"181 186 LINE",
"136 86 LINE",
"154 36 OFFCURVE",
"233 0 OFFCURVE",
"317 0 CURVE"
);
}
);
width = 317;
}
);
unicode = FEE0;
},
{
color = 6;
glyphname = "lam-ar.init";
layers = (
{
anchors = (
{
name = bottom;
position = "{120, -50}";
},
{
name = top;
position = "{156, 575}";
}
);
components = (
{
name = connection_l;
}
);
layerId = "5483B82D-F897-45AA-9987-2D1C58E320E8";
paths = (
{
closed = 1;
nodes = (
"94 2 OFFCURVE",
"170 11 OFFCURVE",
"214 25 CURVE",
"247 84 OFFCURVE",
"255 152 OFFCURVE",
"255 223 CURVE SMOOTH",
"255 322 OFFCURVE",
"249 432 OFFCURVE",
"241 566 CURVE",
"80 557 LINE",
"94 418 OFFCURVE",
"108 283 OFFCURVE",
"112 172 CURVE",
"130 192 LINE",
"91 187 OFFCURVE",
"47 186 OFFCURVE",
"0 186 CURVE",
"0 0 LINE"
);
}
);
width = 295;
}
);
unicode = FEDF;
},
{
color = 6;
glyphname = "meem-ar";
layers = (
{
anchors = (
{
name = bottom;
position = "{166, -314}";
},
{
name = top;
position = "{328, 430}";
}
);
layerId = "5483B82D-F897-45AA-9987-2D1C58E320E8";
paths = (
{
closed = 1;
nodes = (
"115 -289 OFFCURVE",
"188 -279 OFFCURVE",
"219 -262 CURVE",
"201 -191 OFFCURVE",
"184 -73 OFFCURVE",
"184 38 CURVE SMOOTH",
"184 60 OFFCURVE",
"184 83 OFFCURVE",
"186 104 CURVE",
"136 4 LINE",
"187 0 OFFCURVE",
"232 -2 OFFCURVE",
"270 -2 CURVE SMOOTH",
"355 -2 OFFCURVE",
"410 8 OFFCURVE",
"446 33 CURVE SMOOTH",
"484 59 OFFCURVE",
"500 102 OFFCURVE",
"500 173 CURVE SMOOTH",
"500 294 OFFCURVE",
"451 380 OFFCURVE",
"348 380 CURVE SMOOTH",
"225 380 OFFCURVE",
"167 276 OFFCURVE",
"167 200 CURVE SMOOTH",
"167 181 OFFCURVE",
"170 164 OFFCURVE",
"177 151 CURVE",
"258 154 LINE",
"256 205 OFFCURVE",
"304 219 OFFCURVE",
"336 222 CURVE SMOOTH",
"386 227 OFFCURVE",
"415 207 OFFCURVE",
"420 189 CURVE",
"413 180 OFFCURVE",
"372 172 OFFCURVE",
"326 172 CURVE SMOOTH",
"298 172 OFFCURVE",
"265 175 OFFCURVE",
"249 180 CURVE",
"212 180 OFFCURVE",
"171 182 OFFCURVE",
"128 184 CURVE",
"88 172 OFFCURVE",
"43 104 OFFCURVE",
"34 61 CURVE",
"31 32 OFFCURVE",
"30 1 OFFCURVE",
"30 -31 CURVE SMOOTH",
"30 -118 OFFCURVE",
"40 -210 OFFCURVE",
"56 -285 CURVE",
"61 -289 LINE"
);
}
);
width = 530;
}
);
unicode = 0645;
},
{
color = 6;
glyphname = "meem-ar.fina";
layers = (
{
anchors = (
{
name = bottom;
position = "{176, -314}";
},
{
name = top;
position = "{338, 430}";
}
);
components = (
{
name = "meem-ar";
},
{
name = connection_r;
transform = "{1, 0, 0, 1, 519, 0}";
}
);
layerId = "5483B82D-F897-45AA-9987-2D1C58E320E8";
paths = (
{
closed = 1;
nodes = (
"569 186 LINE",
"524 186 OFFCURVE",
"504 209 OFFCURVE",
"487 270 CURVE",
"396 124 LINE",
"420 73 OFFCURVE",
"471 0 OFFCURVE",
"569 0 CURVE"
);
}
);
width = 569;
},
{
associatedMasterId = "5483B82D-F897-45AA-9987-2D1C58E320E8";
layerId = "4213D0F4-B22A-4E8C-94E3-18C5DDDDAD07";
name = "Bold Nov 6 15, 13:42";
paths = (
{
closed = 1;
nodes = (
"1307 267 OFFCURVE",
"1307 133 OFFCURVE",
"1257 0 CURVE",
"1047 0 OFFCURVE",
"937 157 OFFCURVE",
"886 266 CURVE",
"1081 577 LINE",
"1119 443 OFFCURVE",
"1161 400 OFFCURVE",
"1257 400 CURVE"
);
},
{
closed = 1;
nodes = (
"99 223 OFFCURVE",
"195 369 OFFCURVE",
"280 394 CURVE",
"582 381 OFFCURVE",
"849 383 OFFCURVE",
"901 417 CURVE",
"873 442 OFFCURVE",
"797 464 OFFCURVE",
"721 464 CURVE SMOOTH",
"599 464 OFFCURVE",
"580 403 OFFCURVE",
"580 326 CURVE",
"387 323 LINE",
"312 481 OFFCURVE",
"424 845 OFFCURVE",
"753 845 CURVE SMOOTH",
"994 845 OFFCURVE",
"1107 649 OFFCURVE",
"1107 367 CURVE SMOOTH",
"1107 215 OFFCURVE",
"1071 126 OFFCURVE",
"991 73 CURVE SMOOTH",
"875 -11 OFFCURVE",
"656 -16 OFFCURVE",
"297 9 CURVE",
"405 223 LINE",
"386 -48 OFFCURVE",
"430 -379 OFFCURVE",
"476 -561 CURVE",
"411 -597 OFFCURVE",
"253 -619 OFFCURVE",
"136 -620 CURVE",
"126 -610 LINE",
"80 -392 OFFCURVE",
"57 -107 OFFCURVE",
"80 132 CURVE"
);
}
);
width = 1257;
}
);
unicode = FEE2;
},
{
color = 6;
glyphname = "meem-ar.medi";
layers = (
{
anchors = (
{
name = bottom;
position = "{331, -62}";
},
{
name = top;
position = "{312, 428}";
}
);
components = (
{
name = "meem-ar.init";
},
{
name = connection_r;
transform = "{1, 0, 0, 1, 482, 0}";
}
);
layerId = "5483B82D-F897-45AA-9987-2D1C58E320E8";
paths = (
{
closed = 1;
nodes = (
"391 110 LINE",
"409 47 OFFCURVE",
"455 0 OFFCURVE",
"532 0 CURVE",
"532 186 LINE",
"486 186 OFFCURVE",
"473 217 OFFCURVE",
"458 265 CURVE",
"411 210 LINE"
);
}
);
width = 532;
}
);
unicode = FEE4;
},
{
color = 6;
glyphname = "meem-ar.init";
layers = (
{
anchors = (
{
name = bottom;
position = "{331, -62}";
},
{
name = top;
position = "{329, 428}";
}
);
components = (
{
name = connection_l;
}
);
layerId = "5483B82D-F897-45AA-9987-2D1C58E320E8";
paths = (
{
closed = 1;
nodes = (
"426 -6 OFFCURVE",
"471 78 OFFCURVE",
"471 178 CURVE SMOOTH",
"471 294 OFFCURVE",
"411 378 OFFCURVE",
"322 378 CURVE SMOOTH",
"187 378 OFFCURVE",
"180 186 OFFCURVE",
"0 186 CURVE",
"0 0 LINE",
"73 0 OFFCURVE",
"133 27 OFFCURVE",
"176 74 CURVE",
"224 30 OFFCURVE",
"286 -6 OFFCURVE",
"342 -6 CURVE SMOOTH"
);
},
{
closed = 1;
nodes = (
"387 196 OFFCURVE",
"388 178 CURVE",
"383 172 OFFCURVE",
"358 166 OFFCURVE",
"334 166 CURVE SMOOTH",
"303 166 OFFCURVE",
"263 173 OFFCURVE",
"238 191 CURVE",
"263 206 OFFCURVE",
"292 212 OFFCURVE",
"318 212 CURVE SMOOTH",
"362 212 OFFCURVE"
);
}
);
width = 501;
},
{
associatedMasterId = "5483B82D-F897-45AA-9987-2D1C58E320E8";
background = {
paths = (
{
closed = 1;
nodes = (
"315 884 OFFCURVE",
"342 400 OFFCURVE",
"0 400 CURVE",
"-50 267 OFFCURVE",
"-50 133 OFFCURVE",
"0 0 CURVE",
"199 0 OFFCURVE",
"347 99 OFFCURVE",
"406 200 CURVE",
"289 260 LINE",
"368 162 OFFCURVE",
"593 -15 OFFCURVE",
"751 -15 CURVE SMOOTH",
"913 -15 OFFCURVE",
"995 170 OFFCURVE",
"995 373 CURVE SMOOTH",
"995 616 OFFCURVE",
"877 884 OFFCURVE",
"637 884 CURVE SMOOTH"
);
},
{
closed = 1;
nodes = (
"573 553 OFFCURVE",
"805 460 OFFCURVE",
"795 399 CURVE",
"720 362 OFFCURVE",
"539 414 OFFCURVE",
"521 469 CURVE"
);
}
);
};
layerId = "46B7EAFB-5BDB-49A8-8C4C-41313BA08B85";
name = "Regular Oct 12 15, 20:41";
paths = (
{
closed = 1;
nodes = (
"573 553 OFFCURVE",
"805 460 OFFCURVE",
"795 399 CURVE",
"720 362 OFFCURVE",
"539 414 OFFCURVE",
"521 469 CURVE"
);
},
{
closed = 1;
nodes = (
"315 884 OFFCURVE",
"342 400 OFFCURVE",
"0 400 CURVE",
"-50 267 OFFCURVE",
"-50 133 OFFCURVE",
"0 0 CURVE",
"199 0 OFFCURVE",
"347 99 OFFCURVE",
"406 200 CURVE",
"289 260 LINE",
"378 82 OFFCURVE",
"593 -15 OFFCURVE",
"751 -15 CURVE SMOOTH",
"913 -15 OFFCURVE",
"995 170 OFFCURVE",
"995 373 CURVE SMOOTH",
"995 616 OFFCURVE",
"877 884 OFFCURVE",
"637 884 CURVE SMOOTH"
);
}
);
width = 1045;
},
{
associatedMasterId = "5483B82D-F897-45AA-9987-2D1C58E320E8";
background = {
paths = (
{
closed = 1;
nodes = (
"573 553 OFFCURVE",
"805 460 OFFCURVE",
"795 399 CURVE",
"720 362 OFFCURVE",
"539 414 OFFCURVE",
"521 469 CURVE"
);
},
{
closed = 1;
nodes = (
"315 884 OFFCURVE",
"342 400 OFFCURVE",
"0 400 CURVE",
"-50 267 OFFCURVE",
"-50 133 OFFCURVE",
"0 0 CURVE",
"199 0 OFFCURVE",
"347 99 OFFCURVE",
"406 200 CURVE",
"289 260 LINE",
"378 82 OFFCURVE",
"593 -15 OFFCURVE",
"751 -15 CURVE SMOOTH",
"913 -15 OFFCURVE",
"995 170 OFFCURVE",
"995 373 CURVE SMOOTH",
"995 616 OFFCURVE",
"877 884 OFFCURVE",
"637 884 CURVE SMOOTH"
);
}
);
};
layerId = "4AB0620F-BCEE-4A74-ABB7-401332A16165";
name = "Regular Oct 13 15, 09:22";
paths = (
{
closed = 1;
nodes = (
"630 524 OFFCURVE",
"871 460 OFFCURVE",
"898 412 CURVE",
"816 369 OFFCURVE",
"566 402 OFFCURVE",
"539 456 CURVE"
);
},
{
closed = 1;
nodes = (
"370 884 OFFCURVE",
"340 400 OFFCURVE",
"0 400 CURVE",
"-50 267 OFFCURVE",
"-50 133 OFFCURVE",
"0 0 CURVE",
"199 0 OFFCURVE",
"396 102 OFFCURVE",
"486 332 CURVE",
"361 238 LINE",
"433 205 LINE",
"456 145 OFFCURVE",
"481 84 OFFCURVE",
"513 18 CURVE",
"880 -63 OFFCURVE",
"1097 10 OFFCURVE",
"1097 345 CURVE SMOOTH",
"1097 587 OFFCURVE",
"977 884 OFFCURVE",
"682 884 CURVE SMOOTH"
);
}
);
width = 1147;
}
);
unicode = FEE3;
},
{
color = 6;
glyphname = "noonghunna-ar";
layers = (
{
anchors = (
{
name = bottom;
position = "{335, -229}";
},
{
name = top;
position = "{338, 295}";
}
);
layerId = "5483B82D-F897-45AA-9987-2D1C58E320E8";
paths = (
{
closed = 1;
nodes = (
"385 -178 OFFCURVE",
"468 -165 OFFCURVE",
"565 -136 CURVE",
"610 -73 OFFCURVE",
"629 8 OFFCURVE",
"629 101 CURVE SMOOTH",
"629 172 OFFCURVE",
"618 249 OFFCURVE",
"599 329 CURVE",
"437 295 LINE",
"451 186 OFFCURVE",
"467 83 OFFCURVE",
"467 -87 CURVE",
"564 61 LINE",
"484 23 OFFCURVE",
"370 7 OFFCURVE",
"321 7 CURVE SMOOTH",
"240 7 OFFCURVE",
"204 42 OFFCURVE",
"204 109 CURVE SMOOTH",
"204 150 OFFCURVE",
"218 204 OFFCURVE",
"241 268 CURVE",
"103 313 LINE",
"62 211 OFFCURVE",
"40 122 OFFCURVE",
"40 49 CURVE SMOOTH",
"40 -94 OFFCURVE",
"124 -178 OFFCURVE",
"317 -178 CURVE SMOOTH"
);
}
);
width = 659;
}
);
unicode = 06BA;
},
{
color = 6;
glyphname = "noonghunna-ar.fina";
layers = (
{
anchors = (
{
name = bottom;
position = "{337, -298}";
},
{
name = top;
position = "{321, 224}";
}
);
components = (
{
name = connection_r;
transform = "{1, 0, 0, 1, 598, 0}";
}
);
layerId = "5483B82D-F897-45AA-9987-2D1C58E320E8";
paths = (
{
closed = 1;
nodes = (
"386 -248 OFFCURVE",
"468 -235 OFFCURVE",
"565 -206 CURVE",
"638 -107 OFFCURVE",
"636 51 OFFCURVE",
"621 146 CURVE",
"592 171 OFFCURVE",
"571 212 OFFCURVE",
"567 273 CURVE",
"559 277 LINE",
"414 216 LINE",
"456 99 OFFCURVE",
"492 -75 OFFCURVE",
"466 -204 CURVE",
"565 -12 LINE",
"462 -45 OFFCURVE",
"380 -64 OFFCURVE",
"321 -64 CURVE SMOOTH",
"244 -64 OFFCURVE",
"205 -31 OFFCURVE",
"205 40 CURVE SMOOTH",
"205 80 OFFCURVE",
"217 132 OFFCURVE",
"242 198 CURVE",
"103 243 LINE",
"62 143 OFFCURVE",
"40 54 OFFCURVE",
"40 -20 CURVE SMOOTH",
"40 -161 OFFCURVE",
"126 -248 OFFCURVE",
"317 -248 CURVE SMOOTH"
);
},
{
closed = 1;
nodes = (
"648 186 LINE",
"612 186 OFFCURVE",
"589 195 OFFCURVE",
"567 273 CURVE",
"559 277 LINE",
"414 216 LINE",
"535 99 LINE",
"479 48 LINE",
"541 3 OFFCURVE",
"622 0 OFFCURVE",
"648 0 CURVE"
);
}
);
width = 648;
}
);
unicode = FB9F;
},
{
color = 6;
glyphname = "heh-ar";
layers = (
{
anchors = (
{
name = top;
position = "{181, 469}";
}
);
components = (
{
name = "heh-ar.comb";
}
);
layerId = "5483B82D-F897-45AA-9987-2D1C58E320E8";
width = 413;
},
{
anchors = (
{
name = bottom;
position = "{222, -65}";
},
{
name = top;
position = "{197, 512}";
}
);
associatedMasterId = "5483B82D-F897-45AA-9987-2D1C58E320E8";
layerId = "1A231AF7-159F-4590-843A-2C0532DDCC1C";
name = "Bold Dec 29 15, 15:01";
paths = (
{
closed = 1;
nodes = (
"266 -7 OFFCURVE",
"333 16 OFFCURVE",
"353 30 CURVE",
"392 92 OFFCURVE",
"398 148 OFFCURVE",
"398 180 CURVE SMOOTH",
"398 310 OFFCURVE",
"302 392 OFFCURVE",
"137 463 CURVE",
"126 458 LINE",
"106 389 OFFCURVE",
"97 321 OFFCURVE",
"97 248 CURVE",
"155 241 OFFCURVE",
"288 210 OFFCURVE",
"341 147 CURVE",
"352 204 LINE",
"120 139 OFFCURVE",
"92 208 OFFCURVE",
"178 292 CURVE",
"123 349 LINE",
"81 295 OFFCURVE",
"30 206 OFFCURVE",
"30 122 CURVE SMOOTH",
"30 55 OFFCURVE",
"60 -7 OFFCURVE",
"184 -7 CURVE SMOOTH"
);
}
);
width = 428;
}
);
unicode = 0647;
},
